<svg xmlns="http://www.w3.org/2000/svg" width="30.943" height="71.407" viewBox="0 0 30.943 71.407">
    <defs>
        <style>
            .cls-1{fill:#1a1a60}
        </style>
    </defs>
    <g id="london" transform="translate(-152 -16)">
        <path id="Path_6589" d="M216.662 216.331a8.331 8.331 0 1 0-8.331 8.331 8.331 8.331 0 0 0 8.331-8.331zm-8.331 5.951a5.951 5.951 0 1 1 5.951-5.951 5.951 5.951 0 0 1-5.951 5.95z" class="cls-1" transform="translate(-40.859 -163.437)"/>
        <path id="Path_6590" d="M180.563 40.992v1.19h-2.38v-5.95a1.19 1.19 0 1 0-2.38 0v1.19h-.454l-1.926-3.852V21.951a1.19 1.19 0 1 0-2.38 0v2.1l-2.38-4.76v-2.1a1.19 1.19 0 1 0-2.38 0v2.1l-2.38 4.76v-2.1a1.19 1.19 0 0 0-2.38 0V33.57l-1.923 3.852h-.454v-1.19a1.19 1.19 0 1 0-2.38 0v5.951h-2.38v-1.19a1.19 1.19 0 1 0-2.38 0v21.422a1.19 1.19 0 0 0 1.19 1.19h1.19v3.57a1.19 1.19 0 0 0 1.19 1.19h1.19v19.042h2.38V68.365H175.8v19.042h2.38V68.365h1.19a1.19 1.19 0 0 0 1.19-1.19V63.6h1.19a1.19 1.19 0 0 0 1.19-1.19V40.992a1.19 1.19 0 1 0-2.38 0zM168.662 63.6v2.38h-2.38V63.6zm2.38 0h2.38v2.38h-2.38zm-3.57-2.38h-8.331V44.563H175.8v16.661zM163.9 30.281h7.141v2.38H163.9zm3.57-8.05l2.835 5.67h-5.669zm-4.025 12.811h8.05l1.19 2.38h-10.43zM175.8 39.8v2.38h-16.659V39.8zm-21.422 4.76h2.38v16.664h-2.38zm2.38 21.422V63.6h2.38v2.38zm4.76-2.38h2.38v2.38h-2.38zm16.662 2.38h-2.38V63.6h2.38zm2.38-4.76h-2.38V44.563h2.38z" class="cls-1"/>
        <path id="Path_6591" d="M216 400.662h2.38V385.19a1.19 1.19 0 1 0-2.38 0z" class="cls-1" transform="translate(-54.479 -313.255)"/>
        <path id="Path_6592" d="M248 400.662h2.38V385.19a1.19 1.19 0 1 0-2.38 0z" class="cls-1" transform="translate(-81.719 -313.255)"/>
        <path id="Path_6593" d="M280 400.662h2.38V385.19a1.19 1.19 0 1 0-2.38 0z" class="cls-1" transform="translate(-108.958 -313.255)"/>
        <path id="Path_6594" d="M243.957 238.006a1.19 1.19 0 0 0-1.683 0l-1.888 1.888-.7-.7a1.19 1.19 0 0 0-1.683 1.683l1.539 1.539a1.19 1.19 0 0 0 1.683 0l2.729-2.729a1.19 1.19 0 0 0 0-1.683z" class="cls-1" transform="translate(-72.915 -188.683)"/>
    </g>
</svg>
