<svg xmlns="http://www.w3.org/2000/svg" width="292.307" height="40.762" viewBox="0 0 292.307 40.762">
  <g id="freshworks" transform="translate(-4023.984 -2656.13)">
    <g id="Group_241" data-name="Group 241">
      <path id="Path_1008" data-name="Path 1008" d="M4073.53,2657.173c-5.1,0-6.921,3.556-6.921,6.883v2.036h-1.072a1.4,1.4,0,0,0,0,2.8h1.072v14.044a1.477,1.477,0,1,0,2.953,0v-14.044h3.273a1.4,1.4,0,1,0,0-2.8h-3.273v-2.036c0-1.863.688-4.084,3.968-4.084a1.4,1.4,0,0,0,0-2.8" fill="#fff"/>
      <path id="Path_1009" data-name="Path 1009" d="M4085.073,2665.629a6.107,6.107,0,0,0-5.126,2.4v-.773a1.477,1.477,0,1,0-2.953,0v15.675a1.477,1.477,0,1,0,2.953,0v-8.649c0-3.619,1.917-5.781,5.126-5.781a1.438,1.438,0,0,0,0-2.876" fill="#fff"/>
      <path id="Path_1010" data-name="Path 1010" d="M4103.189,2673.322a8.945,8.945,0,0,0-1.413-4.887c-1.319-1.913-3.406-2.884-6.2-2.884-5.208,0-8.2,3.466-8.2,9.508,0,6.245,2.967,9.546,8.581,9.546a8.806,8.806,0,0,0,6.194-2.232,1.391,1.391,0,0,0,.5-1.059,1.363,1.363,0,0,0-1.361-1.362,1.338,1.338,0,0,0-.84.281,6.84,6.84,0,0,1-4.488,1.612c-3.372,0-5.494-2.22-5.585-5.811H4101.4c1.785,0,1.785-1.632,1.785-2.712m-7.615-5.049c3.048,0,4.628,1.721,4.7,5.116h-9.881c.307-3.3,2.139-5.116,5.183-5.116" fill="#fff"/>
      <path id="Path_1011" data-name="Path 1011" d="M4113.176,2673.564c-2.21-.761-4.118-1.418-4.118-3.061,0-1.806,2-2.076,3.195-2.076a5.237,5.237,0,0,1,4.037,1.551,1.349,1.349,0,0,0,.981.419,1.362,1.362,0,0,0,1.362-1.361,1.411,1.411,0,0,0-.319-.879,7.324,7.324,0,0,0-6.061-2.567c-3.793,0-6.149,1.883-6.149,4.913,0,3.705,3.25,4.805,6.119,5.775,2.165.733,4.035,1.365,4.035,2.951,0,2.175-2.413,2.5-3.852,2.5a6.351,6.351,0,0,1-4.732-1.821,1.425,1.425,0,0,0-1.02-.458,1.363,1.363,0,0,0-1.36,1.362,1.387,1.387,0,0,0,.321.883,8.9,8.9,0,0,0,6.791,2.872c4.262,0,6.806-2,6.806-5.338,0-3.585-3.207-4.69-6.036-5.665" fill="#fff"/>
      <path id="Path_1012" data-name="Path 1012" d="M4130.746,2665.551a6.2,6.2,0,0,0-4.894,2.118v-10.062a1.477,1.477,0,1,0-2.954,0v25.328a1.477,1.477,0,1,0,2.954,0V2673.4c0-3.427,1.646-5.165,4.894-5.165,3.119,0,4.392,1.418,4.392,4.9v9.806a1.476,1.476,0,1,0,2.953,0v-10.309c0-4.694-2.471-7.075-7.345-7.075" fill="#fff"/>
      <path id="Path_1013" data-name="Path 1013" d="M4162.79,2665.783a1.448,1.448,0,0,0-1.386.972l-4.228,12.064-3.459-12.054a1.474,1.474,0,0,0-2.78,0l-3.459,12.051-4.231-12.071a1.444,1.444,0,0,0-1.383-.965,1.461,1.461,0,0,0-1.476,1.477,1.744,1.744,0,0,0,.13.623l5.676,15.564a1.446,1.446,0,0,0,1.384.965,1.485,1.485,0,0,0,1.429-1.062l3.32-11.441,3.32,11.44a1.486,1.486,0,0,0,1.429,1.063,1.445,1.445,0,0,0,1.385-.969l5.673-15.553a1.743,1.743,0,0,0,.133-.63,1.461,1.461,0,0,0-1.477-1.477" fill="#fff"/>
      <path id="Path_1014" data-name="Path 1014" d="M4173.561,2665.551c-5.383,0-8.348,3.377-8.348,9.508,0,6.156,2.965,9.546,8.348,9.546s8.349-3.39,8.349-9.546c0-6.131-2.964-9.508-8.349-9.508m0,16.332c-3.6,0-5.357-2.233-5.357-6.824,0-4.5,1.8-6.786,5.357-6.786s5.357,2.283,5.357,6.786c0,4.591-1.751,6.824-5.357,6.824" fill="#fff"/>
      <path id="Path_1015" data-name="Path 1015" d="M4193.367,2665.629a6.1,6.1,0,0,0-5.126,2.405v-.774a1.477,1.477,0,1,0-2.953,0v15.675a1.477,1.477,0,1,0,2.953,0v-8.649c0-3.619,1.917-5.781,5.126-5.781a1.438,1.438,0,1,0,0-2.876" fill="#fff"/>
      <path id="Path_1016" data-name="Path 1016" d="M4204.63,2673.361l6.146-4.909a1.507,1.507,0,0,0,.592-1.193,1.5,1.5,0,0,0-2.479-1.112l-8.718,7.129v-15.669a1.477,1.477,0,0,0-2.953,0v25.328a1.477,1.477,0,1,0,2.953,0v-6.1l2.074-1.666,6.684,8.571,0,0a1.571,1.571,0,0,0,1.269.67,1.461,1.461,0,0,0,1.477-1.477,1.344,1.344,0,0,0-.322-.92Z" fill="#fff"/>
      <path id="Path_1017" data-name="Path 1017" d="M4221.354,2673.564c-2.21-.761-4.118-1.418-4.118-3.061,0-1.806,2-2.076,3.2-2.076a5.234,5.234,0,0,1,4.037,1.551,1.36,1.36,0,0,0,2.342-.942,1.424,1.424,0,0,0-.318-.879,7.322,7.322,0,0,0-6.061-2.567c-3.793,0-6.149,1.883-6.149,4.913,0,3.705,3.251,4.805,6.119,5.775,2.165.733,4.035,1.365,4.035,2.951,0,2.175-2.413,2.5-3.851,2.5a6.346,6.346,0,0,1-4.732-1.821,1.427,1.427,0,0,0-1.02-.458,1.364,1.364,0,0,0-1.362,1.362,1.392,1.392,0,0,0,.323.883,8.9,8.9,0,0,0,6.791,2.872c4.261,0,6.805-2,6.805-5.338,0-3.585-3.207-4.69-6.036-5.665" fill="#fff"/>
      <path id="Path_1018" data-name="Path 1018" d="M4024.176,2682.095a17.331,17.331,0,0,0,4.9,9.708l5.926-5.928a17.364,17.364,0,0,1,8.684-15.044Z" fill="#9b65c3"/>
      <path id="Path_1019" data-name="Path 1019" d="M4035,2685.875a17.375,17.375,0,0,1-10.825-3.779,17.332,17.332,0,0,0,4.9,9.706Z" fill="#9b65c3"/>
      <path id="Path_1020" data-name="Path 1020" d="M4035,2685.875h0l-5.926,5.927a17.332,17.332,0,0,0,9.706,4.9l11.264-19.511a17.362,17.362,0,0,1-15.044,8.685" fill="#be63c5"/>
      <path id="Path_1021" data-name="Path 1021" d="M4037.327,2694.564a17.288,17.288,0,0,1-2.326-8.689l-5.926,5.928a17.319,17.319,0,0,0,9.706,4.9A17.462,17.462,0,0,1,4037.327,2694.564Z" fill="#bf63c6"/>
      <path id="Path_1022" data-name="Path 1022" d="M4057.092,2663.092l-13.406,7.739a17.361,17.361,0,0,1-17.371,0,17.3,17.3,0,0,0-2.331,8.688,2.975,2.975,0,0,0,2.328,4.032h0a17.294,17.294,0,0,0,8.688,2.325l22.456-22.456a4.216,4.216,0,0,0-.365-.327" fill="#3278b1"/>
      <path id="Path_1023" data-name="Path 1023" d="M4026.312,2683.55a17.3,17.3,0,0,0,8.69,2.325,17.361,17.361,0,0,1,8.684-15.044l-19.51,11.265A17.538,17.538,0,0,0,4026.312,2683.55Z" fill="#3278b2"/>
      <path id="Path_1024" data-name="Path 1024" d="M4026.315,2670.831a17.288,17.288,0,0,0-2.33,8.687,17.515,17.515,0,0,0,.191,2.577l19.51-11.263a17.368,17.368,0,0,1-17.371,0" fill="#45a4ec"/>
      <path id="Path_1025" data-name="Path 1025" d="M4057.458,2663.419a4.539,4.539,0,0,0-.366-.327,4.424,4.424,0,0,0-.537-.364,4.312,4.312,0,0,0-2.167-.583h-13.03a17.37,17.37,0,0,1-6.357,23.73,17.361,17.361,0,0,0,15.044-8.684l7.74-13.406a4.188,4.188,0,0,0-.327-.366" fill="#19bb7d"/>
      <path id="Path_1026" data-name="Path 1026" d="M4043.686,2670.831l13.405-7.739a4.266,4.266,0,0,0-.536-.364l-30.24,8.1a17.361,17.361,0,0,0,17.371,0" fill="#08c7fb"/>
      <path id="Path_1027" data-name="Path 1027" d="M4054.389,2662.145h-13.031a17.362,17.362,0,0,0-15.043,8.686l30.24-8.1a4.32,4.32,0,0,0-2.166-.582" fill="#59f2f6"/>
      <path id="Path_1028" data-name="Path 1028" d="M4035,2685.875" fill="#ffa700"/>
      <path id="Path_1029" data-name="Path 1029" d="M4050.045,2677.191l7.74-13.406a4.335,4.335,0,0,0-.327-.366L4035,2685.876a17.381,17.381,0,0,0,3.78,10.824,17.524,17.524,0,0,0,2.577.192,17.285,17.285,0,0,0,8.688-2.331,17.359,17.359,0,0,1,0-17.37" fill="#da3757"/>
      <path id="Path_1030" data-name="Path 1030" d="M4035,2685.875h0a17.294,17.294,0,0,0,2.326,8.69,17.538,17.538,0,0,0,1.454,2.136l11.264-19.511a17.362,17.362,0,0,1-15.044,8.685" fill="#d33c4e"/>
      <path id="Path_1031" data-name="Path 1031" d="M4050.045,2677.191l-11.264,19.509a17.524,17.524,0,0,0,2.577.192,17.285,17.285,0,0,0,8.688-2.331,17.359,17.359,0,0,1,0-17.37" fill="#ee5a24"/>
      <path id="Path_1032" data-name="Path 1032" d="M4058.149,2664.322a4.48,4.48,0,0,0-.364-.537,4.188,4.188,0,0,0-.327-.366,4.378,4.378,0,0,0-.366-.327l-13.406,7.739a17.374,17.374,0,0,1,6.36,23.73,17.36,17.36,0,0,0,8.686-15.042v-13.031a4.308,4.308,0,0,0-.583-2.166" fill="#8bdf55"/>
      <path id="Path_1033" data-name="Path 1033" d="M4057.092,2663.092l-13.406,7.739a17.364,17.364,0,0,0-8.685,15.044l22.456-22.456a4.216,4.216,0,0,0-.365-.327" fill="#25c16f"/>
      <path id="Path_1034" data-name="Path 1034" d="M4035,2685.875a17.362,17.362,0,0,0,15.044-8.685l7.74-13.405a4.051,4.051,0,0,0-.327-.366Z" fill="#8bdf55"/>
      <path id="Path_1035" data-name="Path 1035" d="M4057.785,2663.785l-7.74,13.405a17.363,17.363,0,0,0,0,17.372l8.1-30.24a4.48,4.48,0,0,0-.364-.537" fill="#fb0"/>
      <path id="Path_1036" data-name="Path 1036" d="M4050.046,2694.561a17.361,17.361,0,0,0,8.686-15.043v-13.03a4.3,4.3,0,0,0-.584-2.166Z" fill="#ffa800"/>
    </g>
    <g id="Group_242" data-name="Group 242" transform="translate(-5 5.893)">
      <path id="Path_1037" data-name="Path 1037" d="M4253.2,2665.556a4.227,4.227,0,1,1,0,8.453h-3.393v5.116h-2.159v-13.569Zm-3.411,6.531h3.139a2.313,2.313,0,1,0,0-4.626h-3.139Z" fill="#fff"/>
      <path id="Path_1038" data-name="Path 1038" d="M4269.228,2673.468a2.369,2.369,0,0,0-2.595,2.377v5.061H4264.6V2671.6h1.977v1.306a2.715,2.715,0,0,1,2.65-1.415Z" transform="translate(-5.085 -1.78)" fill="#fff"/>
      <path id="Path_1039" data-name="Path 1039" d="M4275.079,2677a2.349,2.349,0,0,0,2.486,2.3,2.068,2.068,0,0,0,2.213-1.324l2.05.109a4.144,4.144,0,0,1-4.209,2.975,4.828,4.828,0,0,1-.054-9.65c2.667,0,4.354,1.76,4.354,4.589v1Zm.019-1.6h4.771a2.135,2.135,0,0,0-2.322-2.25A2.283,2.283,0,0,0,4275.1,2675.4Z" transform="translate(-7.581 -1.757)" fill="#fff"/>
      <path id="Path_1040" data-name="Path 1040" d="M4295.4,2674.37l-2.032.109a1.4,1.4,0,0,0-1.6-1.325c-.961,0-1.451.4-1.451,1.035,0,.8.8.87,2.032,1.161,1.923.49,3.21,1.07,3.21,2.74,0,1.869-1.378,2.975-3.646,2.975-2.231,0-3.592-1.124-3.81-2.975l2.032-.127c.108.853.707,1.342,1.814,1.342.925,0,1.578-.363,1.578-1.052,0-.762-.49-.944-2.014-1.306-1.887-.454-3.229-.853-3.229-2.722,0-1.669,1.287-2.811,3.537-2.811A3.261,3.261,0,0,1,4295.4,2674.37Z" transform="translate(-12.137 -1.757)" fill="#fff"/>
      <path id="Path_1041" data-name="Path 1041" d="M4303.486,2677a2.348,2.348,0,0,0,2.485,2.3,2.068,2.068,0,0,0,2.213-1.324l2.05.109a4.144,4.144,0,0,1-4.209,2.975,4.828,4.828,0,0,1-.054-9.65c2.667,0,4.354,1.76,4.354,4.589v1Zm.018-1.6h4.771a2.135,2.135,0,0,0-2.322-2.25A2.282,2.282,0,0,0,4303.5,2675.4Z" transform="translate(-16.102 -1.757)" fill="#fff"/>
      <path id="Path_1042" data-name="Path 1042" d="M4325.823,2675.277v5.6h-2.05v-5.333a2,2,0,0,0-2.032-2.25,2.135,2.135,0,0,0-2.159,2.268v5.315h-2.032v-9.306h1.923v1.233a2.943,2.943,0,0,1,2.722-1.4A3.524,3.524,0,0,1,4325.823,2675.277Z" transform="translate(-20.969 -1.757)" fill="#fff"/>
      <path id="Path_1043" data-name="Path 1043" d="M4337.8,2677.822v1.814a7.653,7.653,0,0,1-1.361.109c-1.833,0-3.1-.907-3.084-3.011l.018-4.68h-1.723v-1.76h1.723l.019-3.156h2.049l-.018,3.156h2.358v1.76h-2.375l-.019,4.263a1.4,1.4,0,0,0,1.542,1.6A4.822,4.822,0,0,0,4337.8,2677.822Z" transform="translate(-25.199 -0.474)" fill="#fff"/>
      <path id="Path_1044" data-name="Path 1044" d="M4349.491,2674.37l-2.032.109a1.4,1.4,0,0,0-1.6-1.325c-.962,0-1.452.4-1.452,1.035,0,.8.8.87,2.032,1.161,1.923.49,3.211,1.07,3.211,2.74,0,1.869-1.378,2.975-3.646,2.975-2.231,0-3.592-1.124-3.809-2.975l2.031-.127c.108.853.707,1.342,1.814,1.342.925,0,1.578-.363,1.578-1.052,0-.762-.49-.944-2.014-1.306-1.886-.454-3.228-.853-3.228-2.722,0-1.669,1.287-2.811,3.538-2.811A3.262,3.262,0,0,1,4349.491,2674.37Z" transform="translate(-28.363 -1.757)" fill="#fff"/>
    </g>
  </g>
</svg>
