<svg xmlns="http://www.w3.org/2000/svg" width="426.667" height="423.172" viewBox="0 0 426.667 423.172">
  <g id="Group_840" data-name="Group 840" transform="translate(-881.533 -4377.924)">
    <g id="Group_830" data-name="Group 830">
      <path id="Path_3189" data-name="Path 3189" d="M1074.467,4546.518,884.988,4656.312a6.908,6.908,0,0,0-.2,11.847l222.894,130.725a14.627,14.627,0,0,0,15.047.252l182.015-105.087a6.908,6.908,0,0,0,.2-11.848l-223.37-135.564A6.911,6.911,0,0,0,1074.467,4546.518Z" fill="#a6a5a8" opacity="0.08"/>
      <g id="Group_814" data-name="Group 814">
        <g id="Group_784" data-name="Group 784">
          <path id="Path_3190" data-name="Path 3190" d="M1257.78,4498.5a13.943,13.943,0,0,1,6.326,10.958l-.406,176.687c-.011,4.028-2.861,5.652-6.367,3.628L1053.97,4572.363a13.94,13.94,0,0,1-6.326-10.957l.406-176.687c.011-4.029,2.861-5.653,6.367-3.629Z" fill="#7f9cb3"/>
        </g>
        <path id="Path_3191" data-name="Path 3191" d="M1261.729,4496.206l-203.362-117.411c-1.765-1.019-3.363-1.113-4.517-.443l-3.949,2.295c1.154-.67,2.752-.575,4.516.443L1257.78,4498.5a13.943,13.943,0,0,1,6.326,10.958l-.406,176.687c-.006,2-.712,3.409-1.851,4.071l3.949-2.295c1.14-.662,1.846-2.07,1.852-4.072l.405-176.686A13.94,13.94,0,0,0,1261.729,4496.206Z" fill="#0d1d26"/>
        <g id="Group_786" data-name="Group 786" style="isolation: isolate">
          <g id="Group_785" data-name="Group 785">
            <path id="Path_3192" data-name="Path 3192" d="M1255.188,4691.279c3.506,2.024,3.524,5.3.041,7.329l-134.091,77.925a13.949,13.949,0,0,1-12.656,0L905.12,4659.123c-3.506-2.024-3.521-5.306-.038-7.33l134.091-77.925a13.932,13.932,0,0,1,12.652,0Z" fill="#f2f4fc"/>
          </g>
          <path id="Path_3193" data-name="Path 3193" d="M1255.229,4698.608l-134.091,77.925a13.949,13.949,0,0,1-12.656,0L905.12,4659.123c-1.763-1.018-2.644-2.354-2.64-3.688l-.03,10.506c0,1.334.877,2.67,2.64,3.688l203.363,117.412a13.949,13.949,0,0,0,12.656,0l134.09-77.925c1.731-1.006,2.6-2.322,2.6-3.639l.029-10.506C1257.826,4696.286,1256.96,4697.6,1255.229,4698.608Z" fill="#d3d9ea"/>
        </g>
        <g id="Group_813" data-name="Group 813">
          <g id="Group_789" data-name="Group 789" style="isolation: isolate">
            <g id="Group_787" data-name="Group 787">
              <path id="Path_3194" data-name="Path 3194" d="M1066.745,4603.52c.568.328.579.854.015,1.182l-8.874,5.157a2.25,2.25,0,0,1-2.039,0l-20.227-11.678c-.568-.328-.571-.859-.016-1.181l8.875-5.158a2.236,2.236,0,0,1,2.039.006Z" fill="#d3d9ea"/>
            </g>
            <g id="Group_788" data-name="Group 788">
              <path id="Path_3195" data-name="Path 3195" d="M1088.63,4616.156c.568.328.58.853.016,1.181l-8.875,5.157a2.251,2.251,0,0,1-2.039-.005l-11.358-6.557a.623.623,0,0,1-.006-1.176l8.874-5.157a2.233,2.233,0,0,1,2.031,0Z" fill="#d3d9ea"/>
            </g>
          </g>
          <g id="Group_790" data-name="Group 790">
            <path id="Path_3196" data-name="Path 3196" d="M1223.014,4693.743c.568.327.571.848.007,1.176l-8.874,5.157a2.236,2.236,0,0,1-2.031,0l-36.3-20.957a.623.623,0,0,1-.007-1.176l8.875-5.157a2.231,2.231,0,0,1,2.03,0Z" fill="#d3d9ea"/>
          </g>
          <g id="Group_791" data-name="Group 791">
            <path id="Path_3197" data-name="Path 3197" d="M1176.188,4666.708c.568.328.58.853.016,1.181l-8.874,5.157a2.252,2.252,0,0,1-2.04,0l-11.357-6.557c-.568-.328-.571-.859-.016-1.181l8.875-5.158a2.239,2.239,0,0,1,2.039.006Z" fill="#d3d9ea"/>
          </g>
          <g id="Group_792" data-name="Group 792">
            <path id="Path_3198" data-name="Path 3198" d="M1154.3,4654.072a.621.621,0,0,1,.007,1.176l-8.875,5.158a2.252,2.252,0,0,1-2.03,0l-11.357-6.557c-.568-.328-.571-.859-.016-1.182l8.875-5.157a2.236,2.236,0,0,1,2.039.005Z" fill="#d3d9ea"/>
          </g>
          <g id="Group_793" data-name="Group 793">
            <path id="Path_3199" data-name="Path 3199" d="M1201.379,4706.316a.623.623,0,0,1,0,1.181l-8.866,5.152a2.235,2.235,0,0,1-2.039,0l-80.069-46.227a.626.626,0,0,1-.006-1.186l8.865-5.153a2.265,2.265,0,0,1,2.049,0Z" fill="#d3d9ea"/>
          </g>
          <g id="Group_794" data-name="Group 794">
            <path id="Path_3200" data-name="Path 3200" d="M1135.955,4693.618a.627.627,0,0,1,.007,1.187l-8.866,5.152a2.236,2.236,0,0,1-2.039-.006l-11.357-6.557c-.568-.327-.571-.848-.007-1.176l8.866-5.152a2.235,2.235,0,0,1,2.039,0Z" fill="#d3d9ea"/>
          </g>
          <g id="Group_795" data-name="Group 795">
            <path id="Path_3201" data-name="Path 3201" d="M1114.07,4680.983a.625.625,0,0,1,0,1.181l-8.866,5.152a2.231,2.231,0,0,1-2.03,0l-20.236-11.683a.621.621,0,0,1-.007-1.176l8.866-5.152a2.251,2.251,0,0,1,2.039-.005Z" fill="#d3d9ea"/>
          </g>
          <g id="Group_803" data-name="Group 803" style="isolation: isolate">
            <g id="Group_796" data-name="Group 796">
              <path id="Path_3202" data-name="Path 3202" d="M1036.24,4610.973a.623.623,0,0,1,0,1.181l-8.866,5.152a2.236,2.236,0,0,1-2.039,0l-11.357-6.557a.626.626,0,0,1-.007-1.186l8.865-5.152a2.256,2.256,0,0,1,2.049,0Z" fill="#d3d9ea"/>
            </g>
            <g id="Group_797" data-name="Group 797">
              <path id="Path_3203" data-name="Path 3203" d="M1058.125,4623.608a.627.627,0,0,1,.007,1.187l-8.866,5.152a2.253,2.253,0,0,1-2.048,0l-11.357-6.557a.627.627,0,0,1-.007-1.187l8.865-5.152a2.258,2.258,0,0,1,2.049,0Z" fill="#d3d9ea"/>
            </g>
            <g id="Group_798" data-name="Group 798">
              <path id="Path_3204" data-name="Path 3204" d="M1014.6,4623.551a.623.623,0,0,1,0,1.181l-8.865,5.152a2.221,2.221,0,0,1-2.031,0l-11.357-6.558c-.568-.327-.58-.853-.016-1.181l8.866-5.152a2.253,2.253,0,0,1,2.048,0Z" fill="#d3d9ea"/>
            </g>
            <g id="Group_799" data-name="Group 799">
              <path id="Path_3205" data-name="Path 3205" d="M1080.019,4636.249a.625.625,0,0,1,0,1.181l-8.866,5.152a2.25,2.25,0,0,1-2.039,0l-11.366-6.562a.624.624,0,0,1,0-1.181l8.866-5.152a2.25,2.25,0,0,1,2.039,0Z" fill="#d3d9ea"/>
            </g>
            <g id="Group_800" data-name="Group 800">
              <path id="Path_3206" data-name="Path 3206" d="M1052.543,4645.46a.627.627,0,0,1,.007,1.187l-8.866,5.152a2.235,2.235,0,0,1-2.039-.006l-27.42-15.83c-.568-.328-.58-.854-.015-1.182l8.865-5.152a2.262,2.262,0,0,1,2.049,0Z" fill="#d3d9ea"/>
            </g>
            <g id="Group_801" data-name="Group 801">
              <path id="Path_3207" data-name="Path 3207" d="M1110.774,4654a.627.627,0,0,1,.006,1.186l-8.865,5.152a2.256,2.256,0,0,1-2.049,0l-20.226-11.677a.627.627,0,0,1-.007-1.187l8.866-5.152a2.253,2.253,0,0,1,2.048,0Z" fill="#d3d9ea"/>
            </g>
            <g id="Group_802" data-name="Group 802">
              <path id="Path_3208" data-name="Path 3208" d="M1083.307,4663.221a.627.627,0,0,1,.006,1.187l-8.865,5.152a2.238,2.238,0,0,1-2.04,0l-20.235-11.683a.621.621,0,0,1-.007-1.176l8.866-5.152a2.253,2.253,0,0,1,2.039-.006Z" fill="#d3d9ea"/>
            </g>
          </g>
          <g id="Group_804" data-name="Group 804">
            <path id="Path_3209" data-name="Path 3209" d="M1132.409,4641.432c.568.328.58.853.016,1.181l-8.875,5.157a2.253,2.253,0,0,1-2.039,0l-11.357-6.557a.621.621,0,0,1-.007-1.176l8.875-5.157a2.216,2.216,0,0,1,2.03,0Z" fill="#d3d9ea"/>
          </g>
          <g id="Group_805" data-name="Group 805">
            <path id="Path_3210" data-name="Path 3210" d="M1110.524,4628.8c.568.328.571.849.007,1.176l-8.875,5.158a2.234,2.234,0,0,1-2.03,0l-11.357-6.557c-.568-.328-.571-.859-.016-1.182l8.874-5.157a2.238,2.238,0,0,1,2.04,0Z" fill="#d3d9ea"/>
          </g>
          <g id="Group_806" data-name="Group 806">
            <path id="Path_3211" data-name="Path 3211" d="M992.951,4636.129c.568.328.571.849.007,1.177l-8.875,5.157a2.234,2.234,0,0,1-2.03,0l-11.357-6.557c-.568-.328-.571-.859-.016-1.182l8.874-5.157a2.241,2.241,0,0,1,2.04,0Z" fill="#d3d9ea"/>
          </g>
          <g id="Group_807" data-name="Group 807">
            <path id="Path_3212" data-name="Path 3212" d="M1158.09,4731.472c.568.328.571.849.007,1.177l-8.875,5.157a2.234,2.234,0,0,1-2.03,0l-20.227-11.678c-.568-.328-.571-.859-.015-1.181l8.874-5.158a2.238,2.238,0,0,1,2.039.006Z" fill="#d3d9ea"/>
          </g>
          <g id="Group_808" data-name="Group 808">
            <path id="Path_3213" data-name="Path 3213" d="M1127.326,4713.711c.568.328.58.854.016,1.181l-8.874,5.158a2.255,2.255,0,0,1-2.04-.006l-11.357-6.557a.621.621,0,0,1-.007-1.176l8.875-5.157a2.219,2.219,0,0,1,2.03,0Z" fill="#d3d9ea"/>
          </g>
          <g id="Group_809" data-name="Group 809">
            <path id="Path_3214" data-name="Path 3214" d="M1105.441,4701.076c.568.328.571.848.007,1.176l-8.874,5.157a2.236,2.236,0,0,1-2.031,0l-11.357-6.557c-.568-.328-.571-.859-.016-1.181l8.875-5.158a2.238,2.238,0,0,1,2.039.006Z" fill="#d3d9ea"/>
          </g>
          <g id="Group_810" data-name="Group 810">
            <path id="Path_3215" data-name="Path 3215" d="M1083.547,4688.435c.568.328.58.854.016,1.181l-8.875,5.158a2.256,2.256,0,0,1-2.039,0l-80.068-46.228c-.568-.328-.571-.859-.016-1.181l8.875-5.158a2.238,2.238,0,0,1,2.039.006Z" fill="#d3d9ea"/>
          </g>
          <g id="Group_811" data-name="Group 811">
            <path id="Path_3216" data-name="Path 3216" d="M1179.734,4718.894a.623.623,0,0,1,0,1.181l-8.865,5.153a2.221,2.221,0,0,1-2.031,0l-11.357-6.557c-.568-.327-.58-.853-.016-1.181l8.866-5.152a2.253,2.253,0,0,1,2.048,0Z" fill="#d3d9ea"/>
          </g>
          <g id="Group_812" data-name="Group 812">
            <path id="Path_3217" data-name="Path 3217" d="M1157.849,4706.259a.625.625,0,0,1,0,1.181l-8.865,5.152a2.233,2.233,0,0,1-2.031,0l-11.366-6.562a.621.621,0,0,1-.007-1.176l8.866-5.152a2.254,2.254,0,0,1,2.039-.006Z" fill="#d3d9ea"/>
          </g>
        </g>
      </g>
      <g id="Group_823" data-name="Group 823">
        <g id="Group_815" data-name="Group 815">
          <path id="Path_3218" data-name="Path 3218" d="M1085.568,4424.381a3.8,3.8,0,0,1,1.723,2.981c0,1.1-.78,1.54-1.735.989a3.8,3.8,0,0,1-1.72-2.983C1083.839,4424.274,1084.616,4423.832,1085.568,4424.381Z" fill="#5f82ff"/>
        </g>
        <g id="Group_816" data-name="Group 816">
          <path id="Path_3219" data-name="Path 3219" d="M1242.668,4513.9a1.19,1.19,0,0,1,.539.934l-.014,5.092c0,.343-.245.478-.543.305L1140.581,4461.3a1.182,1.182,0,0,1-.539-.93l.015-5.092c0-.343.244-.481.542-.309Z" fill="#fff"/>
        </g>
        <g id="Group_822" data-name="Group 822" style="isolation: isolate">
          <g id="Group_817" data-name="Group 817">
            <path id="Path_3220" data-name="Path 3220" d="M1072.144,4416.631a3.791,3.791,0,0,1,1.72,2.979c0,1.1-.776,1.542-1.731.99a3.8,3.8,0,0,1-1.723-2.984C1070.413,4416.522,1071.19,4416.08,1072.144,4416.631Z" fill="#ff635b"/>
          </g>
          <g id="Group_818" data-name="Group 818">
            <path id="Path_3221" data-name="Path 3221" d="M1078.858,4420.507a3.8,3.8,0,0,1,1.72,2.979c0,1.1-.78,1.54-1.732.99a3.8,3.8,0,0,1-1.723-2.984C1077.126,4420.4,1077.9,4419.956,1078.858,4420.507Z" fill="#ffbf2f"/>
          </g>
          <g id="Group_819" data-name="Group 819">
            <path id="Path_3222" data-name="Path 3222" d="M1247.92,4510.163a5.567,5.567,0,0,1,2.526,4.371l-.048,16.94-187.784-108.417.048-16.94c.005-1.6,1.143-2.253,2.543-1.445Zm-4.728,9.761.015-5.092a1.19,1.19,0,0,0-.539-.934L1140.6,4454.969c-.3-.172-.542-.034-.542.309l-.015,5.092a1.182,1.182,0,0,0,.539.93l102.069,58.929c.3.173.542.038.542-.305M1134.038,4456.9l.014-5.091a1.187,1.187,0,0,0-.536-.933l-37.833-21.843c-.3-.172-.539-.031-.54.312l-.014,5.091a1.178,1.178,0,0,0,.536.929l37.833,21.843c.3.172.539.035.54-.308m-61.9-36.3c.954.552,1.728.107,1.731-.99a3.791,3.791,0,0,0-1.72-2.979c-.955-.551-1.731-.109-1.734.985a3.794,3.794,0,0,0,1.723,2.984m6.713,3.876c.952.55,1.728.107,1.732-.99a3.8,3.8,0,0,0-1.721-2.979c-.954-.551-1.731-.109-1.734.985a3.8,3.8,0,0,0,1.723,2.984m6.71,3.875c.955.551,1.732.108,1.735-.989a3.8,3.8,0,0,0-1.723-2.981c-.952-.549-1.729-.107-1.732.987a3.8,3.8,0,0,0,1.72,2.983" fill="#e2e7f7"/>
          </g>
          <g id="Group_820" data-name="Group 820">
            <path id="Path_3223" data-name="Path 3223" d="M1133.516,4450.879a1.187,1.187,0,0,1,.536.933l-.014,5.091c0,.343-.241.48-.54.308l-37.833-21.843a1.18,1.18,0,0,1-.536-.929l.014-5.091c0-.343.242-.484.54-.312Z" fill="#fff"/>
          </g>
          <g id="Group_821" data-name="Group 821">
            <path id="Path_3224" data-name="Path 3224" d="M1062.662,4406.117l-.048,16.94L1250.4,4531.474l-.38,134.11c-.005,1.608-1.143,2.257-2.543,1.449L1064.76,4561.542a5.568,5.568,0,0,1-2.526-4.375Z" fill="#f2eadf"/>
          </g>
        </g>
      </g>
      <g id="Group_824" data-name="Group 824">
        <path id="Path_3225" data-name="Path 3225" d="M1105.9,4504.777l-3.826-2.209c-3.316-1.914-6.11-.524-6.368,3.143l-.056.942a24.486,24.486,0,0,0,8.313,8.6c3.227,1.864,6.141,2.1,8.335,1.017l-.068-1.014A14.155,14.155,0,0,0,1105.9,4504.777Z" fill="#796157"/>
        <path id="Path_3226" data-name="Path 3226" d="M1104.029,4491.884c-2.363-1.364-4.291-.265-4.3,2.45a9.388,9.388,0,0,0,4.272,7.378c2.363,1.364,4.274.275,4.281-2.44A9.388,9.388,0,0,0,1104.029,4491.884Z" fill="#796157"/>
        <path id="Path_3227" data-name="Path 3227" d="M1098,4536.833l-.01,3.708,11.851,6.842.01-3.708Z" fill="#796157"/>
        <path id="Path_3228" data-name="Path 3228" d="M1091.913,4547.526l23.948,13.827.01-3.708-23.948-13.827Z" fill="#796157"/>
        <path id="Path_3229" data-name="Path 3229" d="M1177.219,4530.809l-30.332-17.512-.014,4.822,30.332,17.513Z" fill="#796157"/>
        <path id="Path_3230" data-name="Path 3230" d="M1146.823,4535.546l-.014,4.843,73.926,42.682.014-4.843Z" fill="#796157"/>
        <path id="Path_3231" data-name="Path 3231" d="M1146.746,4562.639l73.926,42.682.014-4.823-73.926-42.682Z" fill="#796157"/>
        <path id="Path_3232" data-name="Path 3232" d="M1104.293,4483.155c-4.524-2.611-8.8-3.01-12.076-1.133-3.245,1.869-5.042,5.74-5.058,10.9-.03,10.374,7.3,23.062,16.341,28.282a15.325,15.325,0,0,0,7.542,2.3,8.921,8.921,0,0,0,4.523-1.166c3.242-1.863,5.033-5.734,5.047-10.894C1120.642,4501.06,1113.321,4488.369,1104.293,4483.155Zm10.584,37.993c-2.816,1.618-6.611,1.216-10.687-1.139-8.658-5-15.679-17.147-15.65-27.079.014-4.65,1.565-8.1,4.367-9.71a7.61,7.61,0,0,1,3.849-.979,13.963,13.963,0,0,1,6.846,2.112c8.648,4.99,15.659,17.144,15.629,27.089C1119.217,4516.093,1117.672,4519.537,1114.877,4521.148Z" fill="#796157"/>
      </g>
    </g>
    <g id="Group_839" data-name="Group 839">
      <path id="Path_3246" data-name="Path 3246" d="M975.751,4731.727c-4.384-3.182-20.054,5.285-27.371,9.561-.986.575-2,1.173-3.027,1.777a4.122,4.122,0,0,0-.028,7.084l2.346,1.408a11.1,11.1,0,0,0,11.525-.062c3.142-1.931,6.951-4.331,9.788-6.309C974.763,4741.155,980.466,4735.148,975.751,4731.727Z" fill="#1b1d3f"/>
      <path id="Path_3247" data-name="Path 3247" d="M944.784,4739.392l-1.006,5.337,6.315,4.521,9.654-.661,1.416-2.72.19-4.141Z" fill="#1b1d3f"/>
      <path id="Path_3248" data-name="Path 3248" d="M1012.518,4752.822c-4.384-3.182-20.054,5.285-27.371,9.561-.986.575-2,1.173-3.027,1.777a4.121,4.121,0,0,0-.028,7.083l1.441.866a12.838,12.838,0,0,0,13.363-.094c2.94-1.818,6.293-3.948,8.855-5.735C1011.53,4762.25,1017.233,4756.243,1012.518,4752.822Z" fill="#1b1d3f"/>
      <path id="Path_3249" data-name="Path 3249" d="M980.093,4761.658l.018,5.738,15.251,1.873.945-5.511-.229-2.585-9.362.771Z" fill="#1b1d3f"/>
      <path id="Path_3250" data-name="Path 3250" d="M944.784,4735.715v4.623a4.1,4.1,0,0,0,1.275,3.038c3,2.749,9.493,3.482,13.687.886h0a3.432,3.432,0,0,0,1.606-2.534l.587-5.169Z" fill="#34355d"/>
      <path id="Path_3251" data-name="Path 3251" d="M980.093,4756.607v5.051c3.084,4.857,10.443,4.828,15.369,2.5h0a5.42,5.42,0,0,0,1.2-2.628l1.043-6.533Z" fill="#34355d"/>
      <path id="Path_3252" data-name="Path 3252" d="M938.762,4603.047l2.208,9.794a2.485,2.485,0,0,0,2.932,1.786l1.05-.229,9.987-2.479-5.738-10.854-7-1.513Z" fill="#fbcea5"/>
      <g id="Group_838" data-name="Group 838">
        <g id="Group_833" data-name="Group 833">
          <g id="Group_832" data-name="Group 832" style="isolation: isolate">
            <g id="Group_831" data-name="Group 831">
              <path id="Path_3253" data-name="Path 3253" d="M971.731,4608.971c2.052-1.185,3.724-.232,3.73,2.126l.081,33.145a8.162,8.162,0,0,1-3.706,6.419l-37.812,21.831c-2.053,1.185-3.719.235-3.726-2.128l-.081-33.145a8.161,8.161,0,0,1,3.7-6.417Z" fill="#5b6185"/>
            </g>
            <path id="Path_3254" data-name="Path 3254" d="M965.059,4603.3a2.62,2.62,0,0,0-2.645.259L924.6,4625.388a8.16,8.16,0,0,0-3.7,6.416l.081,33.145a2.6,2.6,0,0,0,1.084,2.388l9.317,5.415a2.607,2.607,0,0,1-1.084-2.388l-.081-33.145a8.161,8.161,0,0,1,3.7-6.417l37.812-21.831a2.622,2.622,0,0,1,2.645-.258Z" fill="#1b1d3f"/>
          </g>
        </g>
        <g id="Group_837" data-name="Group 837">
          <g id="Group_836" data-name="Group 836" style="isolation: isolate">
            <g id="Group_834" data-name="Group 834">
              <path id="Path_3255" data-name="Path 3255" d="M952.394,4610.908l-1.629-.947a.523.523,0,0,1,.218.48l.013,4.478,1.63.947-.013-4.478A.522.522,0,0,0,952.394,4610.908Z" fill="#35375a"/>
              <path id="Path_3256" data-name="Path 3256" d="M951.927,4607.961a1.686,1.686,0,0,0-1.7.164l-7.522,4.343a5.262,5.262,0,0,0-2.38,4.127l.013,4.478,1.63.947-.013-4.478a5.257,5.257,0,0,1,2.38-4.127l7.522-4.343a1.684,1.684,0,0,1,1.7-.164Z" fill="#35375a"/>
            </g>
            <g id="Group_835" data-name="Group 835">
              <path id="Path_3257" data-name="Path 3257" d="M951.856,4609.072c1.317-.76,2.395-.146,2.4,1.368l.013,4.478-1.642.948-.013-4.478c0-.475-.338-.667-.752-.428l-7.522,4.342a1.648,1.648,0,0,0-.746,1.294l.012,4.478-1.638.946-.013-4.478a5.257,5.257,0,0,1,2.38-4.127Z" fill="#4d5175"/>
            </g>
          </g>
        </g>
      </g>
      <path id="Path_3258" data-name="Path 3258" d="M944.217,4624.856l-3.893,44,6.616-3.82,2.342-24.3Z" fill="#1b1d3f" opacity="0.11"/>
      <path id="Path_3259" data-name="Path 3259" d="M961.958,4502.8c-8.726-3.645-24.63.094-29.33,21.731l-5.857,26.559a24.44,24.44,0,0,0,.512,12.463l11.479,39.494,7.688-1.939-5.059-43.921,6.117-20.118Z" fill="#2a2d4f"/>
      <path id="Path_3260" data-name="Path 3260" d="M942.486,4566.688l-3.724,36.358,6.307-1.591Z" fill="#1b1d3f" opacity="0.61"/>
      <path id="Path_3261" data-name="Path 3261" d="M1052.914,4551.643l2.563-3.048a8.917,8.917,0,0,1,2.577-2.1h0a8.07,8.07,0,0,0,.792-.489l5.343-3.795a.657.657,0,0,1,.459-.118l.092.011a.66.66,0,0,1,.575.555h0a.66.66,0,0,1-.18.562l-2.021,2.067,5.033-2.827a.805.805,0,0,1,.66-.057l.01,0a.8.8,0,0,1,.531.678h0a.8.8,0,0,1-.3.707l-4.023,3.171,8.051-4.161a1.02,1.02,0,0,1,.885-.023h0a1.018,1.018,0,0,1,.593.841l.005.07a1.011,1.011,0,0,1-.409.9l-6.378,4.363,6.592-3.047a.953.953,0,0,1,.855.04h0a.948.948,0,0,1,.479.874l0,.088a.947.947,0,0,1-.426.743l-6.884,4.861-4.336,2.065,4.552,1.217a.82.82,0,0,1,.6.7h0a.821.821,0,0,1-.486.842h0a3.362,3.362,0,0,1-1.5.281l-8.1-.361Z" fill="#f9c491"/>
      <path id="Path_3262" data-name="Path 3262" d="M970.456,4623.811l11.87,59.033-2.233,73.763a11.892,11.892,0,0,0,8.563,5.039c8.059.331,9.05-6.65,9.05-6.65l9.115-61.162a116.151,116.151,0,0,0,1.1-23.332l-3.152-58.756-45.024-23.755Z" fill="#1b1d3f"/>
      <path id="Path_3263" data-name="Path 3263" d="M942.486,4592.772h0a298.21,298.21,0,0,0,1.9,33.627l2.276,33.468-1.879,75.848a10.056,10.056,0,0,0,8.64,5.155c6.8,0,8.515-4.311,8.515-4.311l9.685-63.83q1.18-8.6,1.561-17.279l2.357-53.64-12.492-27.5Z" fill="#1b1d3f"/>
      <path id="Path_3264" data-name="Path 3264" d="M942.486,4557.643v44.678a24.4,24.4,0,0,0,12.107,21.082l30.519,17.8c16.41,9.573,20.954-5.289,20.954-5.289l-1.19-65.947,11.325-11.485c-3.223-9.52-6.456-22.719-6.456-22.719a27.588,27.588,0,0,0-12.932-15.383l-5.008-2.728-2.6-1.418-24.5-12.387q-.573-.263-1.134-.5a12.426,12.426,0,0,0-11.212.84h0a12.543,12.543,0,0,0-5.905,8.563h0A256.181,256.181,0,0,0,942.486,4557.643Z" fill="#34355d"/>
      <path id="Path_3265" data-name="Path 3265" d="M989.963,4546.283l15.933,80.183-.711-39.391.54-23.61Z" fill="#2a2d4f"/>
      <path id="Path_3266" data-name="Path 3266" d="M965.922,4501.1v9.124a8.461,8.461,0,0,0,1.552,4.884h0a8.463,8.463,0,0,0,7.995,3.506l.47-.061a8.46,8.46,0,0,0,7.373-8.39v-4.788Z" fill="#f9c491"/>
      <path id="Path_3267" data-name="Path 3267" d="M1009.914,4536.264c-5.038-14.768-27.14-4.588-17.869,17.62l8.417,23.316,2,5.506a12.237,12.237,0,0,0,18.849,5.618l37.929-31.024h0a5.657,5.657,0,0,0-5.657-5.657h-.665l-33.619,17.777Z" fill="#3e3f6b"/>
      <path id="Path_3268" data-name="Path 3268" d="M993.879,4478.735l1.119,4.012a8.53,8.53,0,0,1,.188,3.74h0a8.526,8.526,0,0,0,.692,5.091l1.6,3.385a1.621,1.621,0,0,1-.663,2.1l-2.378,1.354-.8,6.732a4.344,4.344,0,0,1-1.506,2.8h0a4.347,4.347,0,0,1-2.431,1.013h0a37.838,37.838,0,0,1-18.711-3.147l-5.062-2.262-.089-21.223,17.567-8.592,8.6,1.81Z" fill="#f9c491"/>
      <path id="Path_3269" data-name="Path 3269" d="M965.922,4503.554c-.019-4.542-12.4-11.447-12.439-20.887s6.983-10.535,6.983-10.535,2.3-9.095,12.1-9.136c9.36-.04,16.114,1.5,24.648,2.954a1.928,1.928,0,0,1,1.556,1.435,14.351,14.351,0,0,1,.177,6.715c-.856,3.233-4.1,6.367-8.371,7.21a1.781,1.781,0,0,0-1.348,2.232l.13.486a2.319,2.319,0,0,1-.556,2.2l-1.608,1.7a2.321,2.321,0,0,0-.635,1.521l-.113,5.179a1.9,1.9,0,0,1-.857,1.546l-1.345.883s-.253-1.028-.905-4.077-4.456-3.813-5.795-2.389c-1.765,1.876.04,8.885.04,8.885-1.811,1.756-8.176,3.052-10.595,3.767Z" fill="#141629"/>
    </g>
  </g>
</svg>
