<svg xmlns="http://www.w3.org/2000/svg" width="54.346" height="56.204" viewBox="0 0 54.346 56.204">
    <defs>
        <style>
            .cls-1{fill:#1a1a60}
        </style>
    </defs>
    <g id="_002-architecture-and-city" transform="translate(-1 .057)">
        <path id="Path_6578" d="M55.346 42.108v-4.387a.877.877 0 1 0-1.755 0v3.089a26.153 26.153 0 0 1-10.529-7.791v-5.827h8.827s.877-.086.877-.877v-4.387a.877.877 0 1 0-1.755 0v3.036a23.431 23.431 0 0 1-5.65-3.694c-.632-.553-1.2-1-1.755-1.4a9.8 9.8 0 0 1-2.1-1.965.877.877 0 0 0-.676-.369h-1.224v-3.51h7.019s.877-.182.877-.877V8.767a.877.877 0 1 0-1.755 0v2.86l-9.16-5.343L28.735.142a.878.878 0 0 0-1.114 0L20.68 6.284l-10.029 5.4V8.767a.877.877 0 1 0-1.755 0v4.387a.9.9 0 0 0 .877.877h7.019v3.51h-1.227a.877.877 0 0 0-.711.369 9.8 9.8 0 0 1-2.1 1.965c-.509.395-1.088.877-1.755 1.4a23.456 23.456 0 0 1-5.615 3.685v-3.032a.877.877 0 1 0-1.755 0v4.387a.888.888 0 0 0 .877.877h8.774v5.826a26.6 26.6 0 0 1-4.05 4.019 26.613 26.613 0 0 1-6.475 3.773v-3.089a.877.877 0 1 0-1.755 0v4.387a.842.842 0 0 0 .877.877H8.9v12.284a.878.878 0 0 0 .877.877h36.848a.878.878 0 0 0 .877-.877V42.986h7.019a.872.872 0 0 0 .825-.878zm-22.76 12.284h-8.774V51.76a4.387 4.387 0 1 1 8.774 0zm13.161 0H34.341V51.76a6.142 6.142 0 0 0-12.284 0v2.632H10.651V42.986h35.1zM28.2 2.011l5.264 4.124h-9.95zM21.4 7.89h14.46l7.519 4.387H13.284zm-9.2 14.7c.588-.518 1.114-.93 1.632-1.325a12.73 12.73 0 0 0 2.163-1.965h16.591a.877.877 0 1 0 0-1.755H18.548v-3.51h19.3v3.51H36.1a.877.877 0 0 0 0 1.755h4.3a12.73 12.73 0 0 0 2.167 1.965c.509.395 1.044.807 1.632 1.325a25.4 25.4 0 0 0 3.913 2.852H8.282a25.5 25.5 0 0 0 3.918-2.856zm-1.882 15.789a28.459 28.459 0 0 0 4.264-4.168h3.966a.877.877 0 1 0 0-1.755h-3.51v-5.264H41.36v5.264h-19.3a.877.877 0 1 0 0 1.755h19.757a28.288 28.288 0 0 0 8.555 7.019H6.019a28.248 28.248 0 0 0 4.3-2.825z" class="cls-1"/>
        <path id="Path_6579" d="M22.877 35.51a.878.878 0 0 0 .877-.877v-1.756a.877.877 0 1 0-1.755 0v1.755a.878.878 0 0 0 .878.878z" class="cls-1" transform="translate(-2.575 -3.93)"/>
        <path id="Path_6580" d="M15.877 56.264a.878.878 0 0 0 .877-.877v-3.51a.877.877 0 1 0-1.755 0v3.51a.878.878 0 0 0 .878.877z" class="cls-1" transform="translate(-1.716 -6.26)"/>
        <path id="Path_6581" d="M20.877 56.264a.878.878 0 0 0 .877-.877v-3.51a.877.877 0 1 0-1.755 0v3.51a.878.878 0 0 0 .878.877z" class="cls-1" transform="translate(-2.329 -6.26)"/>
        <path id="Path_6582" d="M42.877 56.264a.878.878 0 0 0 .877-.877v-3.51a.877.877 0 1 0-1.755 0v3.51a.878.878 0 0 0 .878.877z" class="cls-1" transform="translate(-5.027 -6.26)"/>
        <path id="Path_6583" d="M47.877 56.264a.878.878 0 0 0 .877-.877v-3.51a.877.877 0 1 0-1.755 0v3.51a.878.878 0 0 0 .878.877z" class="cls-1" transform="translate(-5.64 -6.26)"/>
        <path id="Path_6584" d="M28.877 35.51a.878.878 0 0 0 .877-.877v-1.756a.877.877 0 1 0-1.755 0v1.755a.878.878 0 0 0 .878.878z" class="cls-1" transform="translate(-3.31 -3.93)"/>
        <path id="Path_6585" d="M34.877 35.51a.878.878 0 0 0 .877-.877v-1.756a.877.877 0 1 0-1.755 0v1.755a.878.878 0 0 0 .878.878z" class="cls-1" transform="translate(-4.046 -3.93)"/>
        <path id="Path_6586" d="M40.877 35.51a.878.878 0 0 0 .877-.877v-1.756a.877.877 0 1 0-1.755 0v1.755a.878.878 0 0 0 .878.878z" class="cls-1" transform="translate(-4.781 -3.93)"/>
        <path id="Path_6587" d="M21.755 24h-.877a.877.877 0 1 0 0 1.755h.877a.877.877 0 1 0 0-1.755z" class="cls-1" transform="translate(-2.329 -2.949)"/>
        <path id="Path_6588" d="M25.755 24h-.877a.877.877 0 1 0 0 1.755h.877a.877.877 0 1 0 0-1.755z" class="cls-1" transform="translate(-2.82 -2.949)"/>
    </g>
</svg>
