<svg xmlns="http://www.w3.org/2000/svg" xmlns:xlink="http://www.w3.org/1999/xlink" width="192" height="96" viewBox="0 0 192 96"><defs><style>.a{fill:#fff;stroke:#707070;}.b{clip-path:url(#a);}.c{fill:url(#b);}.d{opacity:0.66;}.e{fill:url(#c);}.f{fill:#f30711;}</style><clipPath id="a"><rect class="a" width="192" height="96" transform="translate(1072 6710)"/></clipPath><radialGradient id="b" cx="0.324" cy="0.264" r="0.674" gradientTransform="matrix(1, 0, 0, -1, 0, 7.77)" gradientUnits="objectBoundingBox"><stop offset="0" stop-color="#fd9196"/><stop offset="1" stop-color="#f30713"/></radialGradient><radialGradient id="c" cx="-14.977" cy="0.421" r="1.226" gradientTransform="matrix(0.707, -0.707, -0.641, -0.641, 0.478, 1.394)" gradientUnits="objectBoundingBox"><stop offset="0.048" stop-color="#e4ebee"/><stop offset="0.272" stop-color="#f5f8f9"/><stop offset="0.467" stop-color="#fff"/><stop offset="0.752" stop-color="#bfc1c3"/><stop offset="0.867" stop-color="#dce0e6"/><stop offset="0.905" stop-color="#e2e6ed"/><stop offset="1" stop-color="#bcbec0"/></radialGradient></defs><g class="b" transform="translate(-1072 -6710)"><g transform="translate(1189.247 6762.614)"><path class="c" d="M-59.7-15.28A10.67,10.67,0,0,0-70.368-4.614,10.67,10.67,0,0,0-59.7,6.053,10.67,10.67,0,0,0-49.035-4.614,10.67,10.67,0,0,0-59.7-15.28Z"/><path class="d" d="M-59.2-13.931A10.215,10.215,0,0,0-69.409-3.719,10.218,10.218,0,0,0-59.2,6.5,10.221,10.221,0,0,0-48.982-3.719,10.218,10.218,0,0,0-59.2-13.931Zm0,.237a.294.294,0,0,1,.168.053.31.31,0,0,1,.113.15v0l0,0,.341,1.236a8.558,8.558,0,0,1,7.927,8.53A8.523,8.523,0,0,1-51.491,0l.877.883,0,0,0,0a.3.3,0,0,1,.072.169.3.3,0,0,1-.038.177.292.292,0,0,1-.134.122.3.3,0,0,1-.181.022H-50.9l-1.2-.315A8.552,8.552,0,0,1-59.2,4.836a8.546,8.546,0,0,1-7.091-3.773l-1.2.319h-.01a.3.3,0,0,1-.181-.025.3.3,0,0,1-.134-.122.3.3,0,0,1-.037-.174A.3.3,0,0,1-67.78.891l0,0,0,0L-66.9,0a8.522,8.522,0,0,1-.849-3.721,8.556,8.556,0,0,1,7.93-8.53l.334-1.232,0-.006v0a.308.308,0,0,1,.113-.15A.3.3,0,0,1-59.194-13.694Zm0,.124a.179.179,0,0,0-.1.032.18.18,0,0,0-.065.087l-.743,2.746a.278.278,0,0,0-.01.172.245.245,0,0,0,.1.128.855.855,0,0,1,.246.434.758.758,0,0,1,.028.487.891.891,0,0,1-.281.449,2.28,2.28,0,0,0-.6.761,2.223,2.223,0,0,0-.184.94v.792L-64.65-8.756l-.425.73,4.264,2.459v.893l-.768.443-4.263-2.463-.425.737,3.839,2.216-.687.4a2.2,2.2,0,0,0-.718.63,2.286,2.286,0,0,0-.362.9.883.883,0,0,1-.247.468.753.753,0,0,1-.437.215.855.855,0,0,1-.5.01.252.252,0,0,0-.162-.019.272.272,0,0,0-.147.084l-2,2.026a.181.181,0,0,0-.044.1.163.163,0,0,0,.022.1.18.18,0,0,0,.078.075.178.178,0,0,0,.106.013l2.753-.73a.264.264,0,0,0,.15-.078A.254.254,0,0,0-64.553.3.845.845,0,0,1-64.3-.127.765.765,0,0,1-63.892-.4a.884.884,0,0,1,.528.022,2.283,2.283,0,0,0,.961.137A2.213,2.213,0,0,0-61.5-.545l.687-.4V3.491h.846V-1.428l.771-.446.768.443V3.491h.848V-.942l.687.4a2.222,2.222,0,0,0,.905.309,2.29,2.29,0,0,0,.961-.141.9.9,0,0,1,.53-.019.751.751,0,0,1,.4.268A.846.846,0,0,1-53.836.3a.257.257,0,0,0,.066.15.273.273,0,0,0,.147.087l2.756.721a.179.179,0,0,0,.106-.012.173.173,0,0,0,.078-.072.172.172,0,0,0,.022-.1.182.182,0,0,0-.041-.1L-52.71-1.051a.273.273,0,0,0-.143-.09.251.251,0,0,0-.162.019.848.848,0,0,1-.5-.006.757.757,0,0,1-.437-.218.89.89,0,0,1-.247-.468,2.272,2.272,0,0,0-.359-.9,2.209,2.209,0,0,0-.724-.627l-.683-.4,3.839-2.216-.424-.733L-56.81-4.228l-.768-.443v-.893l4.264-2.46-.425-.733L-57.578-6.54v-.793a2.229,2.229,0,0,0-.187-.94,2.289,2.289,0,0,0-.6-.761.891.891,0,0,1-.281-.449.759.759,0,0,1,.031-.487.846.846,0,0,1,.241-.434.25.25,0,0,0,.1-.128.275.275,0,0,0,0-.172l-.755-2.746a.178.178,0,0,0-.062-.087A.164.164,0,0,0-59.194-13.569Zm0,5.309a.776.776,0,0,1,.543.225.775.775,0,0,1,.225.543V-6.05l-.768.443-.771-.446V-7.492a.777.777,0,0,1,.224-.543.782.782,0,0,1,.546-.225Zm0,3.63.765.443v.892l-.765.443-.774-.447v-.886Zm-2.387,1.38.768.443v.893l-1.245.718a.78.78,0,0,1-.584.075.784.784,0,0,1-.468-.359.777.777,0,0,1-.075-.584.766.766,0,0,1,.356-.465l1.248-.721Zm4.772,0,1.245.718a.776.776,0,0,1,.359.465.783.783,0,0,1-.078.587.779.779,0,0,1-.468.356.775.775,0,0,1-.58-.075l-1.249-.721v-.887l.771-.442Z" transform="translate(-0.468 -0.659)"/><path class="e" d="M-59.27-14.394A10.215,10.215,0,0,0-69.482-4.182,10.218,10.218,0,0,0-59.27,6.033,10.22,10.22,0,0,0-49.055-4.182,10.217,10.217,0,0,0-59.27-14.394Zm0,.237a.293.293,0,0,1,.168.053.308.308,0,0,1,.112.15v0l0,0,.34,1.236a8.558,8.558,0,0,1,7.928,8.53,8.525,8.525,0,0,1-.849,3.717l.877.884,0,0,0,0a.3.3,0,0,1,.072.168.3.3,0,0,1-.037.178.3.3,0,0,1-.134.122.3.3,0,0,1-.181.022h-.01L-52.176.6A8.552,8.552,0,0,1-59.27,4.372,8.546,8.546,0,0,1-66.361.6l-1.2.319h-.01a.3.3,0,0,1-.181-.025.3.3,0,0,1-.134-.122A.292.292,0,0,1-67.924.6a.3.3,0,0,1,.072-.169l0,0,0,0,.874-.883a8.516,8.516,0,0,1-.849-3.72,8.555,8.555,0,0,1,7.931-8.53l.334-1.233,0-.006v0a.309.309,0,0,1,.112-.15.3.3,0,0,1,.174-.053Zm0,.125a.18.18,0,0,0-.1.031.179.179,0,0,0-.065.087l-.743,2.746a.271.271,0,0,0-.009.169.252.252,0,0,0,.1.131.857.857,0,0,1,.247.434.755.755,0,0,1,.028.487A.889.889,0,0,1-60.1-9.5a2.279,2.279,0,0,0-.6.761,2.218,2.218,0,0,0-.184.94V-7L-64.722-9.22l-.424.73,4.264,2.459v.892l-.768.443-4.264-2.463-.425.733L-62.5-4.2l-.687.4a2.219,2.219,0,0,0-.721.63,2.27,2.27,0,0,0-.359.9.89.89,0,0,1-.247.468.755.755,0,0,1-.437.215.849.849,0,0,1-.5.009.25.25,0,0,0-.163-.018.263.263,0,0,0-.147.084l-2,2.025a.182.182,0,0,0-.041.1.163.163,0,0,0,.022.1A.182.182,0,0,0-67.7.78a.186.186,0,0,0,.106.015l2.752-.73a.268.268,0,0,0,.15-.078.26.26,0,0,0,.066-.15.841.841,0,0,1,.252-.428.755.755,0,0,1,.409-.268.882.882,0,0,1,.527.022,2.28,2.28,0,0,0,.962.137,2.209,2.209,0,0,0,.9-.308l.687-.4V3.026h.846V-1.892l.771-.446.768.443V3.026h.849V-1.406l.683.4A2.234,2.234,0,0,0-56.06-.7a2.277,2.277,0,0,0,.962-.14.892.892,0,0,1,.53-.022.751.751,0,0,1,.4.272.846.846,0,0,1,.255.424.257.257,0,0,0,.066.15A.277.277,0,0,0-53.7.071l2.756.721A.182.182,0,0,0-50.835.78a.177.177,0,0,0,.078-.073.174.174,0,0,0,.022-.1.181.181,0,0,0-.041-.1l-2.007-2.019a.267.267,0,0,0-.143-.09.252.252,0,0,0-.163.018.845.845,0,0,1-.5-.006.762.762,0,0,1-.437-.219.888.888,0,0,1-.247-.468,2.273,2.273,0,0,0-.359-.9,2.217,2.217,0,0,0-.724-.627l-.687-.4L-52.2-6.424l-.425-.73-4.263,2.463-.768-.443v-.893l4.264-2.459-.424-.734L-57.652-7V-7.8a2.22,2.22,0,0,0-.187-.94,2.289,2.289,0,0,0-.6-.761.885.885,0,0,1-.281-.449.756.756,0,0,1,.031-.487.847.847,0,0,1,.241-.434.258.258,0,0,0,.1-.131.266.266,0,0,0,0-.168l-.755-2.747A.19.19,0,0,0-59.171-14a.16.16,0,0,0-.1-.031Zm0,5.309a.776.776,0,0,1,.543.225.775.775,0,0,1,.225.543v1.442l-.768.443-.771-.447V-7.956a.776.776,0,0,1,.225-.543.782.782,0,0,1,.546-.225Zm0,3.63.768.443v.893l-.765.443-.774-.446v-.886Zm-2.387,1.377.771.447v.892l-1.245.718a.78.78,0,0,1-.584.075.78.78,0,0,1-.468-.359.775.775,0,0,1-.075-.583A.774.774,0,0,1-62.9-3l1.246-.721Zm4.772,0L-55.634-3a.771.771,0,0,1,.359.465.784.784,0,0,1-.081.587.771.771,0,0,1-.465.356.78.78,0,0,1-.583-.075l-1.246-.718v-.893l.768-.443Z" transform="translate(-0.433 -0.433)"/><path class="f" d="M-25.23-11.952-21.3.06V5.928h3.881V.06L-13.7-11.952h-3.509l-2.2,7.806-2.141-7.806H-25.23Zm24.229,0V5.928H2.227v-11.6l1.85,11.6H6.515l1.846-11.6v11.6h3.289v-17.88H6.721L5.315-3.447,3.96-11.952Zm27.628,0V5.928h3.6V-1.608H33.29V5.928H36.8v-17.88H33.29v7.113H30.225v-7.113h-3.6Zm15.29,0L38.806,5.927h3.51l.692-4.368H45.7l.678,4.368h3.54L46.8-11.956H41.916Zm2.466,3.922L45.3-1.565H43.429ZM16.713-11.956,13.6,5.927h3.51L17.8,1.559h2.69l.677,4.368h3.54L21.6-11.956H16.713Zm2.466,3.922.915,6.469H18.225ZM-10.9-11.956-14.01,5.927h3.51l.692-4.368h2.69l.677,4.368H-2.9l-3.11-17.883Zm2.466,3.922.915,6.469H-9.388Z" transform="translate(-22.042 -1.623)"/></g></g></svg>