<svg xmlns="http://www.w3.org/2000/svg" width="214.755" height="201.865">
    <defs>
        <style>
            .cls-1{fill:#4f98f5}
        </style>
    </defs>
    <g id="Group_60" data-name="Group 60" transform="translate(-48.338 -431.792)">
        <path id="Path_157" data-name="Path 157" class="cls-1" d="M106.374 626.925h-3.262a3.365 3.365 0 0 0 0 6.729h3.262a3.365 3.365 0 0 0 0-6.729zm0 0"/>
        <path id="Path_158" data-name="Path 158" class="cls-1" d="M259.729 597.68h-19.2a3.363 3.363 0 0 0-3.364 3.365v12.424h-13.88v-10.935h4.258a3.365 3.365 0 0 0 3.364-3.364V574.7h9.621a3.364 3.364 0 0 0 3.184-4.45l-3.092-9.065c-2.04-7.151-9.645-12.136-18.536-12.136h-13.728v-12.12a3.365 3.365 0 1 0-6.729 0v12.122h-13c-7.046 0-13.48 3.183-16.792 8.308a3.365 3.365 0 0 0 5.655 3.65c2.051-3.176 6.424-5.229 11.137-5.229h33.459c5.826 0 10.908 3.071 12.081 7.3.035.127-.107-.3 1.662 4.889h-65.367a3.364 3.364 0 0 0 0 6.728h8.615v24.473a3.365 3.365 0 0 0 3.365 3.364h4.258v10.935h-33.436v-28.215a3.364 3.364 0 1 0-6.728 0v28.215h-12.407v-28.215a3.364 3.364 0 0 0-3.364-3.364h-17.6a3.365 3.365 0 0 0-3.364 3.364v28.215H97.332V574.7h64.1a3.364 3.364 0 0 0 3.182-4.45l-3.091-9.065c-1.955-6.845-9.007-11.7-17.4-12.108v-10.2h11.46a3.366 3.366 0 0 0 3.183-4.45l-3.091-9.066c-1.953-6.847-9.006-11.7-17.4-12.108v-8.712h11a3.365 3.365 0 0 0 3.076-4.727l-3.028-6.84c-2.014-6.764-9.025-11.553-17.359-11.953v-4.235a3.364 3.364 0 0 0-6.729 0v3.784h-6.591V468.8h26.425a3.365 3.365 0 0 0 3.076-4.727l-3.028-6.84c-2.106-7.069-9.664-11.982-18.492-11.982H125.3v-10.094a3.364 3.364 0 1 0-6.729 0v10.093h-1.6c-9.016 0-16.614 5.046-18.582 12.3l-2.7 6.615A3.366 3.366 0 0 0 98.8 468.8h13.11v12.212c-8.64.306-15.825 5.261-17.733 12.289l-2.695 6.613a3.365 3.365 0 0 0 3.115 4.633h36.94v8.684h-25.084c-9.077 0-16.717 5.114-18.622 12.45l-2.755 8.837a3.368 3.368 0 0 0 3.214 4.367h11.458v10.183c-8.7.307-15.926 5.33-17.77 12.436l-2.752 8.837a3.366 3.366 0 0 0 3.211 4.365H90.6v38.764H74.267v-.42a3.364 3.364 0 0 0-6.729 0v13.879H55.066v-22.52H70.9a3.365 3.365 0 0 0 0-6.729H51.7a3.366 3.366 0 0 0-3.364 3.365v29.247a3.366 3.366 0 0 0 3.364 3.365h42.268a3.365 3.365 0 0 0 0-6.729h-19.7V620.2h162.9v6.731H116.045a3.365 3.365 0 0 0 0 6.729h143.684a3.365 3.365 0 0 0 3.364-3.365v-29.25a3.365 3.365 0 0 0-3.364-3.365zM104.845 459.441c1.09-4.324 6.189-7.463 12.122-7.463h9.652c5.826 0 10.908 3.074 12.081 7.308a26.8 26.8 0 0 0 1.2 2.785h-36.093a23.573 23.573 0 0 0 1.038-2.63zm-4.205 35.746c1.09-4.323 6.188-7.462 12.122-7.462h18.062c5.826 0 10.908 3.073 12.081 7.307a27.477 27.477 0 0 0 1.2 2.786H99.6a23.5 23.5 0 0 0 1.038-2.631zm27.462 43.7a3.365 3.365 0 1 0 0-6.729h-35.24l1.418-4.558c1.647-5.269 6.949-7.641 12.175-7.641h30.678c5.826 0 10.908 3.071 12.081 7.3.039.14-.074-.2 1.663 4.889H138.9a3.365 3.365 0 0 0-1.5 6.37v10.106h-30.921v-9.747zM88.43 563.422c1.645-5.27 6.947-7.642 12.172-7.642h42.381c5.827 0 10.908 3.071 12.084 7.3.037.14-.1-.267 1.66 4.889H87.009zm105 39.112h7.36a3.364 3.364 0 1 0 0-6.728h-14.98V574.7h38.373v21.1H210.46a3.364 3.364 0 1 0 0 6.728h6.1v10.935h-23.134zm-76.892-13.916H127.4v24.851h-10.866zm139.831 38.307h-12.476v-22.516h12.472zm0 0"/>
    </g>
</svg>
