<svg xmlns="http://www.w3.org/2000/svg" width="68.254" height="64.156">
    <defs>
        <style>
            .cls-1{fill:#59f2f7}
        </style>
    </defs>
    <g id="Group_126" data-name="Group 126" transform="translate(-74.917 -1211.667)">
        <path id="Path_364" data-name="Path 364" class="cls-1" d="M93.362 1273.684h-1.037a1.07 1.07 0 0 0 0 2.139h1.037a1.07 1.07 0 0 0 0-2.139zm0 0"/>
        <path id="Path_365" data-name="Path 365" class="cls-1" d="M142.1 1264.389H136a1.069 1.069 0 0 0-1.069 1.07v3.948h-4.411v-3.475h1.353a1.069 1.069 0 0 0 1.069-1.069v-7.776H136a1.07 1.07 0 0 0 1.012-1.415l-.983-2.881c-.648-2.273-3.065-3.857-5.891-3.857h-4.363v-3.853a1.069 1.069 0 1 0-2.138 0v3.853H119.5a6.316 6.316 0 0 0-5.337 2.64 1.07 1.07 0 0 0 1.8 1.161 4.226 4.226 0 0 1 3.54-1.662h10.634c1.852 0 3.467.976 3.84 2.321.011.041-.034-.093.528 1.554H113.73a1.07 1.07 0 0 0 0 2.139h2.739v7.776a1.069 1.069 0 0 0 1.069 1.069h1.353v3.475h-10.626v-8.967a1.07 1.07 0 0 0-2.139 0v8.967h-3.943v-8.967a1.069 1.069 0 0 0-1.069-1.069h-5.592a1.069 1.069 0 0 0-1.069 1.069v8.967h-3.965v-12.32h20.372a1.07 1.07 0 0 0 1.012-1.415l-.983-2.881a5.832 5.832 0 0 0-5.531-3.848v-3.243H109a1.07 1.07 0 0 0 1.012-1.414l-.983-2.882a5.829 5.829 0 0 0-5.531-3.848v-2.769H107a1.069 1.069 0 0 0 .978-1.5l-.963-2.174a5.843 5.843 0 0 0-5.517-3.8v-1.346a1.069 1.069 0 0 0-2.138 0v1.2h-2.1v-3.743h8.4a1.069 1.069 0 0 0 .978-1.5l-.962-2.174c-.67-2.247-3.072-3.808-5.878-3.808h-.42v-3.208a1.069 1.069 0 0 0-2.138 0v3.208h-.509c-2.866 0-5.28 1.6-5.906 3.909l-.857 2.1a1.069 1.069 0 0 0 .99 1.472h4.166v3.882a5.81 5.81 0 0 0-5.636 3.9l-.857 2.1a1.069 1.069 0 0 0 .99 1.472h11.74v2.76h-7.974c-2.885 0-5.313 1.626-5.918 3.957l-.876 2.809a1.071 1.071 0 0 0 1.022 1.388h3.641v3.236c-2.765.1-5.061 1.694-5.647 3.953l-.875 2.808a1.07 1.07 0 0 0 1.021 1.387h2.6v12.32h-5.197v-.133a1.07 1.07 0 0 0-2.139 0v4.411h-3.964v-7.157h5.034a1.069 1.069 0 0 0 0-2.139h-6.1a1.07 1.07 0 0 0-1.069 1.07v9.3a1.07 1.07 0 0 0 1.069 1.069h13.43a1.069 1.069 0 1 0 0-2.138h-6.261v-2.139h51.772v2.139H96.436a1.069 1.069 0 1 0 0 2.138H142.1a1.07 1.07 0 0 0 1.07-1.069v-9.3a1.07 1.07 0 0 0-1.07-1.07zm-49.225-43.935c.347-1.374 1.967-2.372 3.853-2.372H99.8c1.852 0 3.467.977 3.84 2.323a8.794 8.794 0 0 0 .38.885H92.546a7.315 7.315 0 0 0 .33-.836zm-1.336 11.361c.346-1.374 1.967-2.372 3.852-2.372h5.741c1.852 0 3.467.977 3.839 2.323a9.119 9.119 0 0 0 .38.885H91.21a7.955 7.955 0 0 0 .33-.836zm8.728 13.887a1.07 1.07 0 0 0 0-2.139h-11.2l.45-1.446a3.819 3.819 0 0 1 3.87-2.429h9.75c1.852 0 3.467.976 3.84 2.322.012.044-.024-.065.528 1.553H103.7a1.07 1.07 0 0 0-.478 2.025v3.212h-9.827v-3.1zm-12.609 7.8a3.817 3.817 0 0 1 3.869-2.428H105c1.852 0 3.467.976 3.841 2.321.011.045-.032-.085.527 1.554h-22.16zm33.37 12.431h2.339a1.069 1.069 0 0 0 0-2.138h-4.761v-6.707h12.2v6.707h-4.36a1.069 1.069 0 1 0 0 2.138h1.937v3.475h-7.351zm-24.438-4.423h3.454v7.9h-3.453zm44.441 12.175h-3.964v-7.156h3.964zm0 0"/>
    </g>
</svg>
