<svg xmlns="http://www.w3.org/2000/svg" xmlns:xlink="http://www.w3.org/1999/xlink" width="12" height="12" viewBox="0 0 12 12">
  <defs>
    <clipPath id="clip-path">
      <rect id="Rectangle_2271" data-name="Rectangle 2271" width="12" height="12" transform="translate(219 8987)" fill="#fff" stroke="#707070" stroke-width="1"/>
    </clipPath>
  </defs>
  <g id="Mask_Group_23" data-name="Mask Group 23" transform="translate(-219 -8987)" clip-path="url(#clip-path)">
    <g id="__TEMP__SVG__" transform="translate(219 8987)">
      <path id="Path_181" data-name="Path 181" d="M9.515,7.109a.375.375,0,0,1,0,.531L7.265,9.89a.375.375,0,0,1-.531,0L5.609,8.765a.375.375,0,1,1,.531-.531l.86.86L8.984,7.109a.375.375,0,0,1,.531,0Z" transform="translate(-1.375 -1.75)" fill="#fff" fill-rule="evenodd"/>
      <path id="Path_182" data-name="Path 182" d="M.75,3.25v7.5a.75.75,0,0,0,.75.75h9a.75.75,0,0,0,.75-.75V3.25ZM1.5,1A1.5,1.5,0,0,0,0,2.5v8.25a1.5,1.5,0,0,0,1.5,1.5h9a1.5,1.5,0,0,0,1.5-1.5V2.5A1.5,1.5,0,0,0,10.5,1Z" transform="translate(0 -0.25)" fill="#fff" fill-rule="evenodd"/>
      <path id="Path_183" data-name="Path 183" d="M3.375,0A.375.375,0,0,1,3.75.375V.75A.375.375,0,0,1,3,.75V.375A.375.375,0,0,1,3.375,0Zm6.75,0A.375.375,0,0,1,10.5.375V.75a.375.375,0,0,1-.75,0V.375A.375.375,0,0,1,10.125,0Z" transform="translate(-0.75)" fill="#fff" fill-rule="evenodd"/>
    </g>
  </g>
</svg>
