<svg xmlns="http://www.w3.org/2000/svg" xmlns:xlink="http://www.w3.org/1999/xlink" width="192" height="96" viewBox="0 0 192 96"><defs><style>.a,.c{fill:#fff;}.a{stroke:#707070;}.b{clip-path:url(#a);}.d{fill:none;}.e{fill:#06c;}</style><clipPath id="a"><rect class="a" width="192" height="96" transform="translate(176 6838)"/></clipPath></defs><g class="b" transform="translate(-176 -6838)"><g transform="translate(203.017 6855.095)"><path class="c" d="M191.6,26.717c-.137,0-.205,0-.24.034v.719h.24c.274,0,.445-.137.445-.377A.418.418,0,0,0,191.6,26.717Z" transform="translate(-57.763 -2.937)"/><path class="d" d="M107.027,32.78a1.559,1.559,0,0,0-1.54.89,5.44,5.44,0,0,0-.342,2.02,3.473,3.473,0,0,0,.513,2.054,1.57,1.57,0,0,0,1.369.65,1.438,1.438,0,0,0,1.54-.89,5.1,5.1,0,0,0,.377-2.054,4.6,4.6,0,0,0-.308-1.917C108.4,32.986,107.917,32.78,107.027,32.78Z" transform="translate(-31.42 -4.79)"/><path class="d" d="M160.3,32.386a1.787,1.787,0,0,0-1.335.582,1.843,1.843,0,0,0-.582,1.335h3.766a1.857,1.857,0,0,0-.548-1.4A1.61,1.61,0,0,0,160.3,32.386Z" transform="translate(-47.687 -4.669)"/><path class="d" d="M83.948,38.785c0,.924.787,1.849,2.533,1.849.205,0,3.56-.034,3.56-3.252V36.97c-.616,0-3.047.034-3.047.034C85.146,37.107,83.948,37.45,83.948,38.785Z" transform="translate(-24.943 -6.07)"/><path class="d" d="M51.5,31.351h-.1a3.218,3.218,0,0,0-3.389,2.978h6.744A2.952,2.952,0,0,0,51.5,31.351Z" transform="translate(-13.963 -4.353)"/><path class="c" d="M190.97,25.386a1.791,1.791,0,1,0,1.78,1.78A1.79,1.79,0,0,0,190.97,25.386Zm.445,2.875a1.651,1.651,0,0,1-.137-.513c-.068-.308-.171-.377-.411-.377h-.205V28.3h-.411V26.071a3.144,3.144,0,0,1,.616-.034,1.177,1.177,0,0,1,.685.171.552.552,0,0,1,.205.445.6.6,0,0,1-.411.548h0c.171.068.24.205.308.445a5.84,5.84,0,0,0,.171.616Z" transform="translate(-57.1 -2.53)"/><path class="c" d="M16.275,25.288h-.24c-5.34.068-8.592,2.978-8.592,8.387,0,4.758,3.149,7.736,8.558,7.839h.171c3.32,0,7.394-1.1,8.01-5.066H21.1c-.65,2.157-2.91,3.081-5.066,3.081a5.424,5.424,0,0,1-5.58-5.34H24.594v-.924C24.594,28.2,21.615,25.288,16.275,25.288Zm-.24,6.812H10.524a5.224,5.224,0,0,1,5.511-4.827h.171c2.567,0,5.169,1.335,5.237,4.827Z" transform="translate(-1.566 -2.5)"/><path class="e" d="M163.325,31.337c-.89-1.13-2.43-1.712-4.724-1.712a6.171,6.171,0,0,0-4.279,1.335,4.453,4.453,0,0,0-1.609,3.663,4.441,4.441,0,0,0,1.506,3.7c.924.822,2.294,1.232,4.382,1.232,1.438,0,5.477-.24,5.819-3.355h-3.971a1.594,1.594,0,0,1-1.849,1.335c-1.849,0-1.917-1.917-1.917-2.054h7.873A6.972,6.972,0,0,0,163.325,31.337Zm-6.641,2.122a1.787,1.787,0,0,1,.582-1.335,1.843,1.843,0,0,1,1.335-.582,1.655,1.655,0,0,1,1.3.513,1.857,1.857,0,0,1,.548,1.4Z" transform="translate(-45.954 -3.826)"/><path class="e" d="M144.5,26.027l-4.279,1.335V28.8h-2.054v2.225h2.054v5a2.038,2.038,0,0,0,1.13,2.02,6.37,6.37,0,0,0,2.773.513c.479,0,.89,0,1.335-.034.479-.068.993-.1,1.438-.171V36.194c-.034,0-.822.1-1.164.1a1.449,1.449,0,0,1-.958-.274A1.208,1.208,0,0,1,144.47,35V31.025h2.43V28.8h-2.43l.034-2.773Z" transform="translate(-41.511 -2.726)"/><path class="e" d="M124.522,36.353l-2.054-6.333h-4.656l4.656,9.551-1.54,3.389h3.9l6.025-12.94h-3.971Z" transform="translate(-35.29 -3.946)"/><path class="e" d="M104.954,28.262a5.34,5.34,0,0,0-1.712.856V24.154H99.032V37.607h4.074a2.735,2.735,0,0,0,.171-.787v-.308h.034a3.946,3.946,0,0,0,1.2.993,3.193,3.193,0,0,0,.685.24,5.835,5.835,0,0,0,1.4.171,4.862,4.862,0,0,0,4.929-5.237,4.42,4.42,0,0,0-1.13-3.252A5.176,5.176,0,0,0,104.954,28.262Zm1.746,6.607a1.463,1.463,0,0,1-1.54.89,1.57,1.57,0,0,1-1.369-.65,3.555,3.555,0,0,1-.513-2.054,5.693,5.693,0,0,1,.342-2.02,1.593,1.593,0,0,1,1.54-.89c.89,0,1.369.24,1.609.787a4.6,4.6,0,0,1,.308,1.917A4.831,4.831,0,0,1,106.7,34.869Z" transform="translate(-29.552 -2.154)"/><path class="e" d="M91.027,32.912c0-2.328-1.917-3.286-4.484-3.286h-.377c-1.951.034-4.074.719-4.279,2.773H83.8c.1-.993,1.13-1.506,2.362-1.54h.1c1.814,0,2.944.582,2.944,2.362v.274c-.822,0-3.184.068-3.184.068-3.355.1-4.792,1.1-4.792,3.081,0,1.746,1.609,3.047,3.971,3.047a4.9,4.9,0,0,0,4.074-1.643h.068c0,.411,0,.89.034,1.3h1.746a9.212,9.212,0,0,1-.1-1.746Zm-1.814,2.259c0,3.218-3.355,3.252-3.56,3.252-1.746,0-2.533-.924-2.533-1.849,0-1.335,1.2-1.712,3.047-1.746,0,0,2.43-.034,3.047-.034Z" transform="translate(-24.114 -3.826)"/><path class="e" d="M73.749,30.119H71.421l-3.252,3.457-3.286-3.457H62.418L66.732,34.6,62.11,39.43h2.362l3.492-3.8,3.56,3.8H74.16L69.3,34.6Z" transform="translate(-18.27 -3.976)"/><path class="e" d="M50.744,29.576h-.137c-3.286.034-5.306,1.849-5.306,5.2,0,2.944,1.951,4.792,5.306,4.827h.1c2.054,0,4.587-.685,4.929-3.149H53.722a3.1,3.1,0,0,1-3.149,1.917,3.393,3.393,0,0,1-3.457-3.286h8.763v-.582C55.879,31.391,54.03,29.576,50.744,29.576Zm-.171,4.245H47.184a3.214,3.214,0,0,1,3.389-2.978h.1a2.952,2.952,0,0,1,3.252,2.978Z" transform="translate(-13.134 -3.811)"/><path class="e" d="M182.195,34.707a8.912,8.912,0,0,0-3.286-1.267c-1.3-.308-2.567-.445-2.567-1.1,0-.685,2.225-1.027,2.294.377h3.9s.445-3.047-5.272-3.047c-3.731,0-5.032,1.712-5.032,2.807s.65,2.122,3.321,2.773,3.457.924,3.286,1.712c-.205.787-2.636,1.027-2.636-.719h-3.971a3.276,3.276,0,0,0,2.43,3.115c2.465.685,6.2.377,7.428-.89A2.786,2.786,0,0,0,182.195,34.707Z" transform="translate(-51.919 -3.841)"/><path class="e" d="M17.562,28.147h-.171a5.244,5.244,0,0,0-5.511,4.827H22.8C22.7,29.482,20.13,28.147,17.562,28.147Z" transform="translate(-2.922 -3.374)"/><path class="e" d="M25.868,23.506l-10.715-6.2a1.266,1.266,0,0,0-.719-.205,1.438,1.438,0,0,0-.719.205l-10.68,6.2a1.4,1.4,0,0,0-.719,1.232V37.1a1.438,1.438,0,0,0,.719,1.232l10.715,6.2a1.46,1.46,0,0,0,1.4,0l10.715-6.2a1.4,1.4,0,0,0,.719-1.232V24.7A1.383,1.383,0,0,0,25.868,23.506Zm-2.841,8.181H8.889a5.446,5.446,0,0,0,5.58,5.34c2.157,0,4.416-.924,5.066-3.081h3.081c-.582,4.005-4.656,5.066-8.01,5.066h-.171c-5.409-.068-8.558-3.081-8.558-7.839,0-5.409,3.252-8.318,8.592-8.421h.24c5.34,0,8.318,2.91,8.318,8.01Z"/></g></g></svg>