<svg xmlns="http://www.w3.org/2000/svg" width="477.094" height="51.914">
    <defs>
        <style>
            .cls-1{fill:#a2d0ff}
        </style>
    </defs>
    <g id="Group_123" data-name="Group 123" transform="translate(-74.534 -978.562)">
        <g id="Group_9384" data-name="Group 9384">
            <path id="Path_3718" data-name="Path 3718" class="cls-1" d="M397.424 993.575v35.736h-7.461v-50.749h5.86l27.028 36.6v-36.497h7.515v50.676h-6.212z"/>
            <path id="Path_3719" data-name="Path 3719" class="cls-1" d="m460.581 978.562 13.111 20.01 13.112-20.01h8.177l-17.307 25.731 16.775 25.02h-8.176l-12.581-19.269-12.58 19.269h-8.29l16.839-25.02-17.307-25.731z"/>
            <path id="Path_3720" data-name="Path 3720" class="cls-1" d="M551.628 985.64H535.92v43.673h-7.52V985.64h-15.772v-7.078h39z"/>
        </g>
        <path id="Rectangle_1665" data-name="Rectangle 1665" class="cls-1" transform="translate(74.534 1024.291)" d="M0 0h276.165v6.185H0z"/>
        <g id="Group_122" data-name="Group 122">
            <path id="Path_3721" data-name="Path 3721" class="cls-1" d="m109.733 979.918 6.332 9 6.342-9h3.945l-8.358 11.57 8.1 11.256h-3.944l-6.084-8.681-6.076 8.681H106l8.138-11.256-8.4-11.57z"/>
            <path id="Path_3722" data-name="Path 3722" class="cls-1" d="M136.97 1002.744v-22.828h9.589a6.256 6.256 0 0 1 2.844.645 7.359 7.359 0 0 1 2.237 1.685 8.2 8.2 0 0 1 1.463 2.385 7.353 7.353 0 0 1 .524 2.725 7.946 7.946 0 0 1-1.9 5.165 6.808 6.808 0 0 1-2.172 1.667 6.159 6.159 0 0 1-2.807.627h-6.175v7.949zm3.6-11.129h5.946a3.029 3.029 0 0 0 1.4-.314 3.18 3.18 0 0 0 1.077-.919 4.518 4.518 0 0 0 .708-1.363 5.268 5.268 0 0 0 .259-1.7 4.929 4.929 0 0 0-.286-1.739 3.992 3.992 0 0 0-.811-1.336 3.689 3.689 0 0 0-1.169-.865 3.253 3.253 0 0 0-1.336-.239H140.6z"/>
            <path id="Path_3723" data-name="Path 3723" class="cls-1" d="M192.463 1002.744v-22.828h9.937a6.256 6.256 0 0 1 2.844.645 7.145 7.145 0 0 1 2.237 1.667 7.8 7.8 0 0 1 1.463 2.385 7.155 7.155 0 0 1 .533 2.725 7.681 7.681 0 0 1-.322 2.219 7.94 7.94 0 0 1-.92 1.96 6.18 6.18 0 0 1-1.417 1.556 5.705 5.705 0 0 1-1.842.986l5.376 8.68h-4.088l-4.952-7.949h-5.246v7.949zm3.6-11.129h6.3a2.959 2.959 0 0 0 1.4-.332 3.369 3.369 0 0 0 1.077-.92 4.908 4.908 0 0 0 .708-1.362 5.3 5.3 0 0 0 .257-1.638 4.431 4.431 0 0 0-.313-1.637 4.7 4.7 0 0 0-.8-1.363 3.857 3.857 0 0 0-1.161-.92 2.975 2.975 0 0 0-1.363-.332h-6.111z"/>
            <path id="Path_3724" data-name="Path 3724" class="cls-1" d="M221.751 1002.744v-22.826h3.593v22.828z"/>
            <path id="Path_3725" data-name="Path 3725" class="cls-1" d="M269.558 986.673v16.071h-3.6v-22.826h2.817l13.061 16.457v-16.43h3.634v22.8h-2.991z"/>
            <path id="Path_3726" data-name="Path 3726" class="cls-1" d="M297.21 991.174a12 12 0 0 1 .745-4.1 11.357 11.357 0 0 1 2.163-3.682 11.07 11.07 0 0 1 3.488-2.623 10.61 10.61 0 0 1 4.668-.995 9.913 9.913 0 0 1 5.339 1.381 9.089 9.089 0 0 1 3.341 3.6l-2.825 1.906a6.342 6.342 0 0 0-1.161-1.74 5.653 5.653 0 0 0-1.48-1.122 6.2 6.2 0 0 0-1.667-.6 8.266 8.266 0 0 0-1.674-.175 6.576 6.576 0 0 0-3.148.717 7.168 7.168 0 0 0-2.272 1.915 8.659 8.659 0 0 0-1.38 2.669 9.7 9.7 0 0 0-.47 2.952 9.12 9.12 0 0 0 .551 3.18 8.492 8.492 0 0 0 1.529 2.669 7.456 7.456 0 0 0 2.328 1.842 6.448 6.448 0 0 0 2.953.681 7.447 7.447 0 0 0 1.721-.2 6.63 6.63 0 0 0 1.7-.681 7.075 7.075 0 0 0 1.519-1.17 6.082 6.082 0 0 0 1.136-1.7l2.982 1.7a6.913 6.913 0 0 1-1.538 2.271 9.827 9.827 0 0 1-2.255 1.656 11.743 11.743 0 0 1-2.651 1.031 11.431 11.431 0 0 1-2.761.35 9.407 9.407 0 0 1-4.4-1.031 11.428 11.428 0 0 1-3.443-2.678 12.353 12.353 0 0 1-2.246-3.766 11.811 11.811 0 0 1-.792-4.257z"/>
            <path id="Rectangle_1667" data-name="Rectangle 1667" class="cls-1" transform="translate(80.895 999.56)" d="M0 0h15.658v3.184H0z"/>
            <path id="Rectangle_1668" data-name="Rectangle 1668" class="cls-1" transform="translate(80.895 989.739)" d="M0 0h15.658v3.184H0z"/>
            <path id="Rectangle_1669" data-name="Rectangle 1669" class="cls-1" transform="translate(80.895 979.909)" d="M0 0h15.658v3.184H0z"/>
            <path id="Rectangle_1670" data-name="Rectangle 1670" class="cls-1" transform="translate(165.042 999.56)" d="M0 0h15.658v3.184H0z"/>
            <path id="Rectangle_1671" data-name="Rectangle 1671" class="cls-1" transform="translate(165.042 989.739)" d="M0 0h15.658v3.184H0z"/>
            <path id="Rectangle_1672" data-name="Rectangle 1672" class="cls-1" transform="translate(165.042 979.909)" d="M0 0h15.658v3.184H0z"/>
            <path id="Rectangle_1673" data-name="Rectangle 1673" class="cls-1" transform="translate(238.558 999.56)" d="M0 0h15.658v3.184H0z"/>
            <path id="Rectangle_1674" data-name="Rectangle 1674" class="cls-1" transform="translate(238.558 989.739)" d="M0 0h15.658v3.184H0z"/>
            <path id="Rectangle_1675" data-name="Rectangle 1675" class="cls-1" transform="translate(238.558 979.909)" d="M0 0h15.658v3.184H0z"/>
            <path id="Rectangle_1676" data-name="Rectangle 1676" class="cls-1" transform="translate(328.69 999.56)" d="M0 0h15.658v3.184H0z"/>
            <path id="Rectangle_1677" data-name="Rectangle 1677" class="cls-1" transform="translate(328.69 989.739)" d="M0 0h15.658v3.184H0z"/>
            <path id="Rectangle_1678" data-name="Rectangle 1678" class="cls-1" transform="translate(328.69 979.909)" d="M0 0h15.658v3.184H0z"/>
        </g>
    </g>
</svg>
