<svg xmlns="http://www.w3.org/2000/svg" xmlns:xlink="http://www.w3.org/1999/xlink" width="477.094" height="51.914">
    <defs>
        <linearGradient id="linear-gradient" x1=".091" y1=".5" x2="3.805" y2=".5" gradientUnits="objectBoundingBox">
            <stop offset="0" stop-color="#4f98f5"/>
            <stop offset="1" stop-color="#383b80"/>
        </linearGradient>
        <linearGradient id="linear-gradient-2" x1="-1.377" y1=".5" x2="2.143" y2=".5" xlink:href="#linear-gradient"/>
        <linearGradient id="linear-gradient-3" x1="-3.051" y1=".5" x2=".797" y2=".5" xlink:href="#linear-gradient"/>
        <linearGradient id="linear-gradient-4" x1="0" y1=".5" x2="1" y2=".5" xlink:href="#linear-gradient"/>
        <style>
            .cls-5{fill:#383b80}
        </style>
    </defs>
    <g id="Group_46" data-name="Group 46" transform="translate(-74.534 -135.038)">
        <g id="Group_9384" data-name="Group 9384">
            <path id="Path_3718" data-name="Path 3718" d="M397.424 150.051v35.736h-7.461v-50.749h5.86l27.028 36.6v-36.497h7.515v50.675h-6.212z" style="fill:url(#linear-gradient)"/>
            <path id="Path_3719" data-name="Path 3719" d="m460.581 135.038 13.111 20.01 13.112-20.01h8.177l-17.307 25.731 16.775 25.02h-8.176l-12.581-19.269-12.58 19.269h-8.29l16.839-25.02-17.307-25.731z" style="fill:url(#linear-gradient-2)"/>
            <path id="Path_3720" data-name="Path 3720" d="M551.628 142.116H535.92v43.673h-7.52v-43.673h-15.772v-7.078h39z" style="fill:url(#linear-gradient-3)"/>
        </g>
        <path id="Rectangle_1665" data-name="Rectangle 1665" transform="translate(74.534 180.767)" style="fill:url(#linear-gradient-4)" d="M0 0h276.165v6.185H0z"/>
        <g id="Group_45" data-name="Group 45">
            <path id="Path_3721" data-name="Path 3721" class="cls-5" d="m109.733 136.394 6.332 9 6.342-9h3.945l-8.358 11.569 8.1 11.257h-3.944l-6.084-8.681-6.076 8.681H106l8.138-11.257-8.4-11.569z"/>
            <path id="Path_3722" data-name="Path 3722" class="cls-5" d="M136.97 159.22v-22.828h9.589a6.256 6.256 0 0 1 2.844.645 7.358 7.358 0 0 1 2.237 1.685 8.2 8.2 0 0 1 1.463 2.385 7.353 7.353 0 0 1 .524 2.725 7.946 7.946 0 0 1-1.9 5.165 6.808 6.808 0 0 1-2.172 1.667 6.173 6.173 0 0 1-2.807.627h-6.175v7.949zm3.6-11.129h5.946a3.041 3.041 0 0 0 1.4-.314 3.183 3.183 0 0 0 1.077-.92 4.5 4.5 0 0 0 .708-1.362 5.272 5.272 0 0 0 .259-1.7 4.935 4.935 0 0 0-.286-1.74 3.987 3.987 0 0 0-.811-1.335 3.674 3.674 0 0 0-1.169-.865 3.236 3.236 0 0 0-1.336-.239H140.6z"/>
            <path id="Path_3723" data-name="Path 3723" class="cls-5" d="M192.463 159.22v-22.828h9.937a6.256 6.256 0 0 1 2.844.645 7.145 7.145 0 0 1 2.237 1.667 7.81 7.81 0 0 1 1.463 2.384 7.156 7.156 0 0 1 .533 2.726 7.686 7.686 0 0 1-.322 2.219 7.939 7.939 0 0 1-.92 1.96 6.179 6.179 0 0 1-1.417 1.556 5.724 5.724 0 0 1-1.842.986l5.376 8.68h-4.088l-4.952-7.949h-5.246v7.949zm3.6-11.129h6.3a2.958 2.958 0 0 0 1.4-.332 3.369 3.369 0 0 0 1.077-.92 4.9 4.9 0 0 0 .708-1.363 5.29 5.29 0 0 0 .257-1.637 4.44 4.44 0 0 0-.313-1.638 4.711 4.711 0 0 0-.8-1.362 3.856 3.856 0 0 0-1.161-.92 2.975 2.975 0 0 0-1.363-.332h-6.111z"/>
            <path id="Path_3724" data-name="Path 3724" class="cls-5" d="M221.751 159.22v-22.826h3.593v22.828z"/>
            <path id="Path_3725" data-name="Path 3725" class="cls-5" d="M269.558 143.148v16.072h-3.6v-22.826h2.817l13.061 16.457v-16.43h3.634v22.8h-2.991z"/>
            <path id="Path_3726" data-name="Path 3726" class="cls-5" d="M297.21 147.65a12 12 0 0 1 .745-4.1 11.346 11.346 0 0 1 2.163-3.682 11.055 11.055 0 0 1 3.488-2.623 10.611 10.611 0 0 1 4.668-.995 9.913 9.913 0 0 1 5.339 1.381 9.082 9.082 0 0 1 3.341 3.6l-2.825 1.906a6.341 6.341 0 0 0-1.161-1.74 5.652 5.652 0 0 0-1.48-1.122 6.234 6.234 0 0 0-1.667-.6 8.266 8.266 0 0 0-1.674-.174 6.564 6.564 0 0 0-3.148.717 7.155 7.155 0 0 0-2.272 1.915 8.648 8.648 0 0 0-1.38 2.669 9.7 9.7 0 0 0-.47 2.952 9.124 9.124 0 0 0 .551 3.18 8.492 8.492 0 0 0 1.529 2.669 7.471 7.471 0 0 0 2.328 1.842 6.448 6.448 0 0 0 2.953.681 7.5 7.5 0 0 0 1.721-.2 6.6 6.6 0 0 0 1.7-.682 7.039 7.039 0 0 0 1.519-1.169 6.1 6.1 0 0 0 1.136-1.7l2.982 1.7a6.923 6.923 0 0 1-1.538 2.271 9.829 9.829 0 0 1-2.251 1.654 11.745 11.745 0 0 1-2.651 1.031 11.479 11.479 0 0 1-2.761.35 9.407 9.407 0 0 1-4.4-1.031 11.444 11.444 0 0 1-3.443-2.678 12.366 12.366 0 0 1-2.246-3.766 11.811 11.811 0 0 1-.796-4.256z"/>
            <path id="Rectangle_1667" data-name="Rectangle 1667" class="cls-5" transform="translate(80.895 156.035)" d="M0 0h15.658v3.184H0z"/>
            <path id="Rectangle_1668" data-name="Rectangle 1668" class="cls-5" transform="translate(80.895 146.215)" d="M0 0h15.658v3.184H0z"/>
            <path id="Rectangle_1669" data-name="Rectangle 1669" class="cls-5" transform="translate(80.895 136.385)" d="M0 0h15.658v3.184H0z"/>
            <path id="Rectangle_1670" data-name="Rectangle 1670" class="cls-5" transform="translate(165.042 156.035)" d="M0 0h15.658v3.184H0z"/>
            <path id="Rectangle_1671" data-name="Rectangle 1671" class="cls-5" transform="translate(165.042 146.215)" d="M0 0h15.658v3.184H0z"/>
            <path id="Rectangle_1672" data-name="Rectangle 1672" class="cls-5" transform="translate(165.042 136.385)" d="M0 0h15.658v3.184H0z"/>
            <path id="Rectangle_1673" data-name="Rectangle 1673" class="cls-5" transform="translate(238.558 156.035)" d="M0 0h15.658v3.184H0z"/>
            <path id="Rectangle_1674" data-name="Rectangle 1674" class="cls-5" transform="translate(238.558 146.215)" d="M0 0h15.658v3.184H0z"/>
            <path id="Rectangle_1675" data-name="Rectangle 1675" class="cls-5" transform="translate(238.558 136.385)" d="M0 0h15.658v3.184H0z"/>
            <path id="Rectangle_1676" data-name="Rectangle 1676" class="cls-5" transform="translate(328.69 156.035)" d="M0 0h15.658v3.184H0z"/>
            <path id="Rectangle_1677" data-name="Rectangle 1677" class="cls-5" transform="translate(328.69 146.215)" d="M0 0h15.658v3.184H0z"/>
            <path id="Rectangle_1678" data-name="Rectangle 1678" class="cls-5" transform="translate(328.69 136.385)" d="M0 0h15.658v3.184H0z"/>
        </g>
    </g>
</svg>
