<svg xmlns="http://www.w3.org/2000/svg" xmlns:xlink="http://www.w3.org/1999/xlink" width="244.059" height="25.286" viewBox="0 0 244.059 25.286"><defs><linearGradient id="a" x1="-0.618" y1="0.5" x2="4.418" y2="0.5" gradientUnits="objectBoundingBox"><stop offset="0" stop-color="#3499ff"/><stop offset="1" stop-color="#3a3985"/></linearGradient><linearGradient id="b" x1="-2.05" y1="0.5" x2="2.723" y2="0.5" xlink:href="#a"/><linearGradient id="c" x1="-3.786" y1="0.5" x2="1.432" y2="0.5" xlink:href="#a"/><linearGradient id="d" x1="-0.009" y1="0.5" x2="0.974" y2="0.5" xlink:href="#a"/></defs><g transform="translate(-63.999 -21.714)"><g transform="translate(63.999 21.714)"><g transform="translate(0 0)"><path d="M.208,15.527a12.605,12.605,0,0,0,3.565,7.065L8.084,18.28A12.636,12.636,0,0,1,14.4,7.329Z" transform="translate(-0.068 -1.009)" fill="#9b65c3" fill-rule="evenodd"/><path d="M8.085,19.588A12.59,12.59,0,0,1,1.761,17.9h0A12.81,12.81,0,0,1,.209,16.838,12.6,12.6,0,0,0,3.774,23.9Z" transform="translate(-0.068 -2.318)" fill="#9b65c3" fill-rule="evenodd"/><path d="M8.654,19.018h0L4.342,23.329a12.61,12.61,0,0,0,7.064,3.566l8.2-14.2a12.635,12.635,0,0,1-10.951,6.32" transform="translate(-0.638 -1.748)" fill="#be63c5" fill-rule="evenodd"/><path d="M10.345,26.35a12.59,12.59,0,0,1-1.692-6.323L4.342,24.339A12.6,12.6,0,0,0,11.406,27.9a12.727,12.727,0,0,1-1.061-1.552Z" transform="translate(-0.638 -2.758)" fill="#bf63c6" fill-rule="evenodd"/><path d="M1.763,16.585a12.581,12.581,0,0,0,6.323,1.692,12.634,12.634,0,0,1,6.32-10.951l-14.2,8.2A12.82,12.82,0,0,0,1.763,16.585Z" transform="translate(-0.068 -1.009)" fill="#3278b2" fill-rule="evenodd"/><path d="M1.741,7.33a12.58,12.58,0,0,0-1.7,6.322h0a12.675,12.675,0,0,0,.14,1.876l14.2-8.2a12.638,12.638,0,0,1-12.641,0" transform="translate(-0.046 -1.009)" fill="#45a4ec" fill-rule="evenodd"/><path d="M24.674.927a3.438,3.438,0,0,0-.266-.238,3.234,3.234,0,0,0-.391-.265A3.138,3.138,0,0,0,22.44,0H12.954A12.635,12.635,0,0,0,2,6.321a12.633,12.633,0,0,0,12.641,0,12.634,12.634,0,0,0-6.32,10.951,12.634,12.634,0,0,0,10.951-6.319L24.909,1.2a3.437,3.437,0,0,0-.238-.266" transform="translate(-0.315 0)" fill="#19bb7d" fill-rule="evenodd"/><path d="M14.655,6.389,24.411.758A3.119,3.119,0,0,0,24.02.493L2.013,6.389a12.634,12.634,0,0,0,12.641,0" transform="translate(-0.317 -0.068)" fill="#07c7fb" fill-rule="evenodd"/><path d="M22.441,0H12.955A12.637,12.637,0,0,0,2,6.321L24.011.424A3.141,3.141,0,0,0,22.435,0" transform="translate(-0.316 0)" fill="#59f2f7" fill-rule="evenodd"/><path d="M20.291,11.1l5.633-9.754a3.277,3.277,0,0,0-.238-.267L9.343,17.418a12.59,12.59,0,0,0,1.692,6.322h0a12.762,12.762,0,0,0,1.058,1.552,12.724,12.724,0,0,0,1.876.139,12.583,12.583,0,0,0,6.323-1.7,12.633,12.633,0,0,1,0-12.641" transform="translate(-1.326 -0.148)" fill="#da3757" fill-rule="evenodd"/><path d="M9.342,19.017h0a12.594,12.594,0,0,0,1.692,6.324h0a12.842,12.842,0,0,0,1.058,1.552l8.2-14.2a12.635,12.635,0,0,1-10.951,6.32" transform="translate(-1.325 -1.748)" fill="#d33c4e" fill-rule="evenodd"/><path d="M20.729,12.7l-8.2,14.2a12.726,12.726,0,0,0,1.876.139h0a12.583,12.583,0,0,0,6.323-1.7,12.634,12.634,0,0,1,0-12.641" transform="translate(-1.765 -1.748)" fill="#ee5a24" fill-rule="evenodd"/><path d="M26.188,1.7a3.312,3.312,0,0,0-.265-.391,3.244,3.244,0,0,0-.238-.266A3.088,3.088,0,0,0,25.419.8L15.664,6.432a12.634,12.634,0,0,0-6.32,10.951A12.634,12.634,0,0,0,20.3,11.064a12.634,12.634,0,0,0,0,12.641,12.635,12.635,0,0,0,6.322-10.947V3.272A3.14,3.14,0,0,0,26.193,1.7" transform="translate(-1.326 -0.11)" fill="#8bdf55" fill-rule="evenodd"/><path d="M25.419.8,15.664,6.432a12.635,12.635,0,0,0-6.32,10.951h0L25.686,1.04A3.109,3.109,0,0,0,25.42.8" transform="translate(-1.326 -0.11)" fill="#25c16f" fill-rule="evenodd"/><path d="M9.343,17.418A12.635,12.635,0,0,0,20.294,11.1l5.633-9.755a3.094,3.094,0,0,0-.238-.266Z" transform="translate(-1.326 -0.148)" fill="#8bdf55" fill-rule="evenodd"/><path d="M27.4,1.384l-5.633,9.755a12.635,12.635,0,0,0,0,12.641l5.9-22.006a3.231,3.231,0,0,0-.265-.391" transform="translate(-2.804 -0.19)" fill="#fb0" fill-rule="evenodd"/><path d="M22.039,23.844A12.635,12.635,0,0,0,28.36,12.9V3.411a3.13,3.13,0,0,0-.425-1.576Z" transform="translate(-3.074 -0.253)" fill="#ffa800" fill-rule="evenodd"/></g></g><g transform="translate(-14175.874 4532.143)"><g transform="translate(14412.755 -4510)"><path d="M414.866,238.294v15.734h-3.285V231.684h2.58l11.9,16.113V231.729h3.309v22.312h-2.735Z" transform="translate(-411.582 -231.684)" fill="url(#a)"/><path d="M459.316,231.684l5.773,8.81,5.773-8.81h3.6l-7.62,11.329,7.386,11.016h-3.6l-5.539-8.484-5.539,8.484H455.9l7.414-11.016-7.62-11.329Z" transform="translate(-428.225 -231.684)" fill="url(#b)"/><path d="M515.476,234.8H508.56v19.229h-3.312V234.8h-6.943v-3.116h17.17Z" transform="translate(-444.298 -231.684)" fill="url(#c)"/></g><g transform="translate(14273.874 -4509.47)"><rect width="121.592" height="2.723" transform="translate(0 19.604)" fill="url(#d)"/><path d="M413.483,191.008l2.788,3.963,2.792-3.963H420.8l-3.68,5.094,3.566,4.956H418.95l-2.679-3.822-2.675,3.822h-1.755l3.583-4.956-3.7-5.094Z" transform="translate(-397.985 -190.941)" fill="#3a3985"/><path d="M428.278,201.058V191.007H432.5a2.76,2.76,0,0,1,1.252.284,3.242,3.242,0,0,1,.985.742,3.606,3.606,0,0,1,.644,1.05,3.244,3.244,0,0,1,.231,1.2,3.5,3.5,0,0,1-.835,2.274,3,3,0,0,1-.956.734,2.714,2.714,0,0,1-1.236.276h-2.719v3.5Zm1.585-4.9h2.618a1.337,1.337,0,0,0,.616-.138,1.4,1.4,0,0,0,.474-.405,1.982,1.982,0,0,0,.312-.6,2.327,2.327,0,0,0,.114-.75,2.169,2.169,0,0,0-.126-.766,1.758,1.758,0,0,0-.357-.588,1.621,1.621,0,0,0-.515-.381,1.426,1.426,0,0,0-.588-.105h-2.533Z" transform="translate(-400.788 -190.941)" fill="#3a3985"/><path d="M457.693,201.058V191.007h4.373a2.76,2.76,0,0,1,1.252.284,3.152,3.152,0,0,1,.985.734,3.441,3.441,0,0,1,.644,1.05,3.158,3.158,0,0,1,.235,1.2,3.387,3.387,0,0,1-.142.977,3.49,3.49,0,0,1-.405.863,2.721,2.721,0,0,1-.624.685,2.507,2.507,0,0,1-.811.434l2.367,3.822h-1.8l-2.18-3.5h-2.31v3.5Zm1.585-4.9h2.776a1.3,1.3,0,0,0,.616-.146,1.484,1.484,0,0,0,.474-.405,2.154,2.154,0,0,0,.312-.6,2.339,2.339,0,0,0,.113-.721,1.952,1.952,0,0,0-.138-.721,2.066,2.066,0,0,0-.353-.6,1.7,1.7,0,0,0-.511-.405,1.31,1.31,0,0,0-.6-.146h-2.691Z" transform="translate(-405.77 -190.941)" fill="#3a3985"/><path d="M473.218,201.058V191.008H474.8v10.051Z" transform="translate(-408.4 -190.941)" fill="#3a3985"/><path d="M498.236,193.982v7.076h-1.585V191.008h1.24l5.751,7.246V191.02h1.6v10.038h-1.317Z" transform="translate(-412.369 -190.941)" fill="#3a3985"/><path d="M513.216,195.95a5.269,5.269,0,0,1,.328-1.807,4.993,4.993,0,0,1,.952-1.621,4.864,4.864,0,0,1,1.536-1.155,4.666,4.666,0,0,1,2.055-.438,4.365,4.365,0,0,1,2.351.608,4,4,0,0,1,1.471,1.585l-1.244.839a2.806,2.806,0,0,0-.511-.766,2.5,2.5,0,0,0-.652-.494,2.743,2.743,0,0,0-.734-.263,3.646,3.646,0,0,0-.737-.077,2.894,2.894,0,0,0-1.386.316,3.149,3.149,0,0,0-1,.843,3.811,3.811,0,0,0-.608,1.175,4.279,4.279,0,0,0-.207,1.3,4.02,4.02,0,0,0,.243,1.4,3.736,3.736,0,0,0,.673,1.175,3.283,3.283,0,0,0,1.025.811,2.837,2.837,0,0,0,1.3.3,3.3,3.3,0,0,0,.758-.089,2.9,2.9,0,0,0,.75-.3,3.1,3.1,0,0,0,.669-.515,2.672,2.672,0,0,0,.5-.75l1.313.75a3.038,3.038,0,0,1-.677,1,4.331,4.331,0,0,1-.993.729,5.165,5.165,0,0,1-1.167.454,5.04,5.04,0,0,1-1.216.154,4.137,4.137,0,0,1-1.937-.454,5.029,5.029,0,0,1-1.516-1.179,5.442,5.442,0,0,1-.989-1.658A5.2,5.2,0,0,1,513.216,195.95Z" transform="translate(-415.174 -190.927)" fill="#3a3985"/><rect width="6.894" height="1.402" transform="translate(2.801 8.715)" fill="#3a3985"/><rect width="6.894" height="1.402" transform="translate(2.801 4.391)" fill="#3a3985"/><rect width="6.894" height="1.402" transform="translate(2.801 0.063)" fill="#3a3985"/><rect width="6.894" height="1.402" transform="translate(39.85 8.715)" fill="#3a3985"/><rect width="6.894" height="1.402" transform="translate(39.85 4.391)" fill="#3a3985"/><rect width="6.894" height="1.402" transform="translate(39.85 0.063)" fill="#3a3985"/><rect width="6.894" height="1.402" transform="translate(72.218 8.715)" fill="#3a3985"/><rect width="6.894" height="1.402" transform="translate(72.218 4.391)" fill="#3a3985"/><rect width="6.894" height="1.402" transform="translate(72.218 0.063)" fill="#3a3985"/><rect width="6.894" height="1.402" transform="translate(111.902 8.715)" fill="#3a3985"/><rect width="6.894" height="1.402" transform="translate(111.902 4.391)" fill="#3a3985"/><rect width="6.894" height="1.402" transform="translate(111.902 0.063)" fill="#3a3985"/></g></g></g></svg>