<svg xmlns="http://www.w3.org/2000/svg" xmlns:xlink="http://www.w3.org/1999/xlink" width="196" height="196" viewBox="0 0 196 196">
  <defs>
    <clipPath id="clip-path">
      <rect id="Rectangle_2360" data-name="Rectangle 2360" width="196" height="196" transform="translate(172 8226)" fill="#fff" stroke="#707070" stroke-width="1"/>
    </clipPath>
  </defs>
  <g id="Mask_Group_27" data-name="Mask Group 27" transform="translate(-172 -8226)" clip-path="url(#clip-path)">
    <g id="Layer_2" data-name="Layer 2" transform="translate(191.416 8226.047)">
      <g id="vector">
        <path id="Path_313" data-name="Path 313" d="M135.07,41.5c12.6,8.089,18.331,26.867,19.836,44.994s-1.179,35.606-7.681,54.626-16.788,39.627-32.971,46.662c-16.219,7.071-38.328.569-54.953-10.163-16.577-10.729-27.714-25.726-38.119-41.986S1.063,101.814.089,82.059C-.927,62.307,6.8,40.325,22.119,32.716c15.362-7.6,38.328-.773,59.585,1.3S122.471,33.407,135.07,41.5Z" fill="#bcd3ff"/>
        <path id="Path_314" data-name="Path 314" d="M96.012,195.99c6.754-17.006,19.923-25.727,20.643-46.607.024-1.546-25.443-17.971-37.325-17.7S51.9,195.99,51.9,195.99Z" fill="#fff"/>
        <rect id="Rectangle_2364" data-name="Rectangle 2364" width="76.207" height="135.795" transform="translate(44.158 12.388)" fill="#eaefff"/>
        <rect id="Rectangle_2365" data-name="Rectangle 2365" width="61.018" height="23.626" transform="translate(51.755 71.844)" fill="#fff"/>
        <line id="Line_1" data-name="Line 1" x2="27.889" transform="translate(76.599 78.653)" fill="none" stroke="#b0c3fa" stroke-linecap="round" stroke-linejoin="round" stroke-width="1.147"/>
        <line id="Line_2" data-name="Line 2" x2="11.329" transform="translate(76.599 85.965)" fill="none" stroke="#b0c3fa" stroke-linecap="round" stroke-linejoin="round" stroke-width="1.147"/>
        <circle id="Ellipse_53" data-name="Ellipse 53" cx="6.445" cy="6.445" r="6.445" transform="translate(57.463 77.211)" fill="#fb0"/>
        <path id="Path_315" data-name="Path 315" d="M105.421,176.075c5.072-7.868,9.618-15.861,10.033-27.892" fill="none" stroke="#141462" stroke-linecap="round" stroke-linejoin="round" stroke-width="1.147"/>
        <path id="Path_316" data-name="Path 316" d="M94.812,194.79a69.009,69.009,0,0,1,5.153-10.18" fill="none" stroke="#141462" stroke-linecap="round" stroke-linejoin="round" stroke-width="1.147"/>
        <rect id="Rectangle_2366" data-name="Rectangle 2366" width="61.018" height="23.626" transform="translate(51.755 37.157)" fill="#fff"/>
        <rect id="Rectangle_2367" data-name="Rectangle 2367" width="76.207" height="13.984" transform="translate(44.158 12.388)" fill="#d6dfff"/>
        <rect id="Rectangle_2368" data-name="Rectangle 2368" width="76.207" height="13.984" transform="translate(44.158 134.196)" fill="#d6dfff"/>
        <line id="Line_3" data-name="Line 3" x2="11.329" transform="translate(76.599 19.38)" fill="none" stroke="#141462" stroke-linecap="round" stroke-linejoin="round" stroke-width="1.147"/>
        <circle id="Ellipse_54" data-name="Ellipse 54" cx="3.358" cy="3.358" r="3.358" transform="translate(78.905 137.83)" fill="#b0c3fa"/>
        <path id="Path_317" data-name="Path 317" d="M33,195.99c3.6-13.682,4.321-66.008,0-78.01,6.241-4.561,31.924-24,35.765-27.123,3.6,2.4,1.92,22.323-9.841,30.964v6c6.241,0,15.6,20.883,10.321,42.965-3.051,9.673,6.4,25.2,6.4,25.2Z" fill="#fff"/>
        <path id="Path_318" data-name="Path 318" d="M63.659,131.659c4.58,7.511,8.089,22.424,4.383,37.925" fill="none" stroke="#141462" stroke-linecap="round" stroke-linejoin="round" stroke-width="1.147"/>
        <path id="Path_319" data-name="Path 319" d="M63.908,92.513c1.714-1.323,3-2.326,3.653-2.856,3.6,2.4,1.92,22.323-9.841,30.964v4.366" fill="none" stroke="#141462" stroke-linecap="round" stroke-linejoin="round" stroke-width="1.147"/>
        <path id="Path_320" data-name="Path 320" d="M35.4,114.106c5.413-4.037,14.241-10.705,21.363-16.12" fill="none" stroke="#141462" stroke-linecap="round" stroke-linejoin="round" stroke-width="1.147"/>
        <path id="Path_321" data-name="Path 321" d="M31.8,194.79c2.837-10.78,3.884-45.543,2.088-65.68" fill="none" stroke="#141462" stroke-linecap="round" stroke-linejoin="round" stroke-width="1.147"/>
        <line id="Line_4" data-name="Line 4" x2="5.283" transform="translate(99.205 43.966)" fill="none" stroke="#b0c3fa" stroke-linecap="round" stroke-linejoin="round" stroke-width="1.147"/>
        <line id="Line_5" data-name="Line 5" x2="17.323" transform="translate(76.599 43.966)" fill="none" stroke="#b0c3fa" stroke-linecap="round" stroke-linejoin="round" stroke-width="1.147"/>
        <line id="Line_6" data-name="Line 6" x2="11.329" transform="translate(76.599 51.278)" fill="none" stroke="#b0c3fa" stroke-linecap="round" stroke-linejoin="round" stroke-width="1.147"/>
        <circle id="Ellipse_55" data-name="Ellipse 55" cx="6.445" cy="6.445" r="6.445" transform="translate(57.463 42.524)" fill="#d33c4e"/>
        <path id="Path_322" data-name="Path 322" d="M128.349,113.1c17.721,11.843-10.969,34.324-18.631,40.534C107.735,152.213,106.36,132.927,128.349,113.1Z" fill="#fff"/>
        <path id="Path_323" data-name="Path 323" d="M114.775,147.249c-2.542,2.2-4.789,3.992-6.258,5.185-2.758-1.5-1.807-12.4,6-24.548" fill="none" stroke="#141462" stroke-linecap="round" stroke-linejoin="round" stroke-width="1.147"/>
        <path id="Path_324" data-name="Path 324" d="M127.149,111.9c9.7,6.481,5.494,16.149-1.555,24.594" fill="none" stroke="#141462" stroke-linecap="round" stroke-linejoin="round" stroke-width="1.147"/>
        <circle id="Ellipse_56" data-name="Ellipse 56" cx="3.178" cy="3.178" r="3.178" transform="translate(132.833 23.18)" fill="none" stroke="#5dfca1" stroke-linecap="round" stroke-linejoin="round" stroke-width="1.147"/>
        <path id="Path_325" data-name="Path 325" d="M125.908,8.019v-.3a7.146,7.146,0,1,1,3.149,5.924" fill="none" stroke="#ffed32" stroke-linecap="round" stroke-linejoin="round" stroke-width="1.147"/>
        <path id="Path_326" data-name="Path 326" d="M149.974,17.613a5.041,5.041,0,1,1,5.521-1.853" fill="none" stroke="#d33c4e" stroke-linecap="round" stroke-linejoin="round" stroke-width="1.147"/>
        <path id="Path_327" data-name="Path 327" d="M122.048,102.378c-18.722,11.281-20.883,35.765-18.482,37.2,6.721-2.64,31.684-30.244,31.684-42.965,0-2.88-8.348-8.329-10.266-9.109-1.075-.42.07-2.189-3.759,1.351C121.249,92.376,120.975,98.941,122.048,102.378Z" fill="#fff"/>
        <path id="Path_328" data-name="Path 328" d="M123.784,86.308c1.92.78,10.266,6.229,10.266,9.109,0,3.12-1.51,7.158-3.886,11.493" fill="none" stroke="#141462" stroke-linecap="round" stroke-linejoin="round" stroke-width="1.147"/>
        <path id="Path_329" data-name="Path 329" d="M120.779,120.615c-7.093,8.85-15.045,16.445-18.413,17.762-2.4-1.44-.24-25.923,18.482-37.2" fill="none" stroke="#141462" stroke-linecap="round" stroke-linejoin="round" stroke-width="1.147"/>
        <path id="Path_330" data-name="Path 330" d="M121.568,71.894c3.84-2.88,17.282-15.842,18.722-17.762,3.12-.96,8.641,14.162-18.722,36.245" fill="#fff"/>
        <path id="Path_331" data-name="Path 331" d="M131.254,79a94.093,94.093,0,0,1-10.885,10.173" fill="none" stroke="#1b3c87" stroke-linecap="round" stroke-linejoin="round" stroke-width="1.147"/>
        <path id="Path_332" data-name="Path 332" d="M120.368,70.694c3.84-2.88,17.282-15.842,18.722-17.762,2.208-.679,5.622,6.7-2.288,18.912" fill="none" stroke="#141462" stroke-linecap="round" stroke-linejoin="round" stroke-width="1.147"/>
      </g>
    </g>
  </g>
</svg>
