<svg xmlns="http://www.w3.org/2000/svg" xmlns:xlink="http://www.w3.org/1999/xlink" width="520.4" height="500.986" viewBox="0 0 520.4 500.986">
  <defs>
    <linearGradient id="linear-gradient" y1="0.5" x2="1" y2="0.5" gradientUnits="objectBoundingBox">
      <stop offset="0" stop-color="#383b80"/>
      <stop offset="1" stop-color="#4f98f5"/>
    </linearGradient>
    <clipPath id="clip-path">
      <path id="Path_84" data-name="Path 84" d="M2876.938,470.971l-86.911,105.808a79.321,79.321,0,0,1-111.641,10.946l-91.594-75.235a79.321,79.321,0,0,1-10.946-111.641l73.332-213.795a79.321,79.321,0,0,1,111.641-10.946L2865.991,359.33A79.32,79.32,0,0,1,2876.938,470.971Z" fill="none"/>
    </clipPath>
    <linearGradient id="linear-gradient-2" x1="138.538" y1="0.5" x2="139.538" y2="0.5" gradientUnits="objectBoundingBox">
      <stop offset="0.025" stop-color="#ffb850"/>
      <stop offset="1" stop-color="#ff961f"/>
    </linearGradient>
    <linearGradient id="linear-gradient-3" x1="190.8" x2="190.8" y2="1" gradientUnits="objectBoundingBox">
      <stop offset="0.194" stop-color="#ff7c48"/>
      <stop offset="0.994" stop-color="#e85938"/>
    </linearGradient>
    <linearGradient id="linear-gradient-4" y1="0.5" x2="1" y2="0.5" gradientUnits="objectBoundingBox">
      <stop offset="0.006" stop-color="gray"/>
      <stop offset="1"/>
    </linearGradient>
    <linearGradient id="linear-gradient-5" x1="74.133" y1="-0.402" x2="74.224" y2="2.486" xlink:href="#linear-gradient-4"/>
    <linearGradient id="linear-gradient-6" x1="-61.074" y1="3.301" x2="-61.017" y2="4.3" xlink:href="#linear-gradient-4"/>
    <linearGradient id="linear-gradient-7" y1="0.5" x2="1" y2="0.5" gradientUnits="objectBoundingBox">
      <stop offset="0" stop-color="#1f76cc"/>
      <stop offset="1" stop-color="#364bb3"/>
    </linearGradient>
  </defs>
  <g id="Group_24" data-name="Group 24" transform="translate(-2477.637 -158.079)">
    <rect id="Rectangle_1" data-name="Rectangle 1" width="218.982" height="369.877" transform="translate(2527.082 165.081)" fill="#ff5869"/>
    <rect id="Rectangle_2" data-name="Rectangle 2" width="21.345" height="21.345" transform="translate(2832.435 264.495)" fill="#59f2f7"/>
    <g id="Group_1" data-name="Group 1">
      <path id="Path_1" data-name="Path 1" d="M2772.142,211.372V200.739h-10.633Z" fill="#383b80"/>
      <path id="Path_2" data-name="Path 2" d="M2740.243,200.739l31.9,31.9V222l-21.266-21.266Z" fill="#383b80"/>
      <path id="Path_3" data-name="Path 3" d="M2718.977,200.739l53.165,53.165V243.271l-42.532-42.532Z" fill="#383b80"/>
      <path id="Path_4" data-name="Path 4" d="M2697.711,200.739l74.431,74.431V264.536l-63.8-63.8Z" fill="#383b80"/>
      <path id="Path_5" data-name="Path 5" d="M2676.445,200.739l95.7,95.7V285.8l-85.064-85.064Z" fill="#383b80"/>
      <path id="Path_6" data-name="Path 6" d="M2655.179,200.739,2772.142,317.7V307.068l-106.329-106.33Z" fill="#383b80"/>
      <path id="Path_7" data-name="Path 7" d="M2633.914,200.739l138.228,138.228V328.334l-127.6-127.6Z" fill="#383b80"/>
      <path id="Path_8" data-name="Path 8" d="M2617.965,200.739v5.317l148.86,148.86h5.317V349.6L2623.281,200.739Z" fill="#383b80"/>
      <path id="Path_9" data-name="Path 9" d="M2617.965,227.322l127.594,127.594h10.633L2617.965,216.689Z" fill="#383b80"/>
      <path id="Path_10" data-name="Path 10" d="M2617.965,248.588l106.328,106.328h10.633L2617.965,237.955Z" fill="#383b80"/>
      <path id="Path_11" data-name="Path 11" d="M2617.965,269.854l85.062,85.062h10.633l-95.695-95.695Z" fill="#383b80"/>
      <path id="Path_12" data-name="Path 12" d="M2617.965,291.12l63.8,63.8h10.633l-74.429-74.429Z" fill="#383b80"/>
      <path id="Path_13" data-name="Path 13" d="M2617.965,312.386l42.53,42.53h10.633l-53.163-53.163Z" fill="#383b80"/>
      <path id="Path_14" data-name="Path 14" d="M2617.965,333.652l21.264,21.264h10.633l-31.9-31.9Z" fill="#383b80"/>
      <path id="Path_15" data-name="Path 15" d="M2617.965,354.916H2628.6l-10.631-10.631Z" fill="#383b80"/>
    </g>
    <circle id="Ellipse_1" data-name="Ellipse 1" cx="181.106" cy="181.106" r="181.106" transform="translate(2625.942 296.854)" fill="url(#linear-gradient)" style="mix-blend-mode: multiply;isolation: isolate"/>
    <g id="Group_2" data-name="Group 2" opacity="0.3">
      <path id="Path_16" data-name="Path 16" d="M2998.037,586.861v-4.777l-5,4.777Z" fill="#4a8ae2"/>
      <path id="Path_17" data-name="Path 17" d="M2969.761,586.861l28.276-27.026v-4.777l-33.274,31.8Z" fill="#4a8ae2"/>
      <path id="Path_18" data-name="Path 18" d="M2941.484,586.861l56.553-54.052v-4.777l-61.551,58.829Z" fill="#4a8ae2"/>
      <path id="Path_19" data-name="Path 19" d="M2913.207,586.861l84.83-81.079v-4.777l-89.828,85.856Z" fill="#4a8ae2"/>
      <path id="Path_20" data-name="Path 20" d="M2884.93,586.861l113.106-108.1v-4.777l-118.1,112.882Z" fill="#4a8ae2"/>
      <path id="Path_21" data-name="Path 21" d="M2856.654,586.861,2998.037,451.73v-4.777L2851.656,586.861Z" fill="#4a8ae2"/>
      <path id="Path_22" data-name="Path 22" d="M2828.377,586.861,2998.037,424.7v-4.777L2823.379,586.861Z" fill="#4a8ae2"/>
      <path id="Path_23" data-name="Path 23" d="M2800.1,586.861l197.937-189.184V392.9L2795.1,586.861Z" fill="#4a8ae2"/>
      <path id="Path_24" data-name="Path 24" d="M2771.824,586.861l226.213-216.21v-1.593h-3.332l-227.88,217.8Z" fill="#4a8ae2"/>
      <path id="Path_25" data-name="Path 25" d="M2966.428,369.058l-227.88,217.8h5l227.879-217.8Z" fill="#4a8ae2"/>
      <path id="Path_26" data-name="Path 26" d="M2938.152,369.058l-227.88,217.8h5l227.88-217.8Z" fill="#4a8ae2"/>
      <path id="Path_27" data-name="Path 27" d="M2909.875,369.058,2682,586.861h5l227.88-217.8Z" fill="#4a8ae2"/>
      <path id="Path_28" data-name="Path 28" d="M2881.6,369.058l-227.88,217.8h5l227.88-217.8Z" fill="#4a8ae2"/>
      <path id="Path_29" data-name="Path 29" d="M2853.321,369.058l-227.88,217.8h5l227.88-217.8Z" fill="#4a8ae2"/>
      <path id="Path_30" data-name="Path 30" d="M2825.045,369.058l-227.88,217.8h5l227.88-217.8Z" fill="#4a8ae2"/>
      <path id="Path_31" data-name="Path 31" d="M2796.768,369.058l-227.88,217.8h5l227.88-217.8Z" fill="#4a8ae2"/>
      <path id="Path_32" data-name="Path 32" d="M2768.491,369.058l-226.213,216.21v1.592h3.332l227.88-217.8Z" fill="#4a8ae2"/>
      <path id="Path_33" data-name="Path 33" d="M2740.215,369.058,2542.278,558.242v4.777l202.935-193.961Z" fill="#4a8ae2"/>
      <path id="Path_34" data-name="Path 34" d="M2711.938,369.058l-169.66,162.158v4.777l174.658-166.935Z" fill="#4a8ae2"/>
      <path id="Path_35" data-name="Path 35" d="M2683.661,369.058,2542.278,504.19v4.777l146.381-139.908Z" fill="#4a8ae2"/>
      <path id="Path_36" data-name="Path 36" d="M2655.384,369.058,2542.278,477.163v4.777l118.1-112.882Z" fill="#4a8ae2"/>
      <path id="Path_37" data-name="Path 37" d="M2627.108,369.058l-84.83,81.079v4.777l89.828-85.856Z" fill="#4a8ae2"/>
      <path id="Path_38" data-name="Path 38" d="M2598.831,369.058l-56.553,54.052v4.777l61.551-58.829Z" fill="#4a8ae2"/>
      <path id="Path_39" data-name="Path 39" d="M2570.554,369.058l-28.276,27.026v4.777l33.274-31.8Z" fill="#4a8ae2"/>
      <path id="Path_40" data-name="Path 40" d="M2542.278,369.058v4.777l5-4.777Z" fill="#4a8ae2"/>
    </g>
    <rect id="Rectangle_3" data-name="Rectangle 3" width="71.19" height="20.237" transform="translate(2477.637 435.21)" fill="#59f2f7"/>
    <rect id="Rectangle_4" data-name="Rectangle 4" width="69.592" height="21.345" transform="translate(2909.509 344.662)" fill="#59f2f7"/>
    <rect id="Rectangle_5" data-name="Rectangle 5" width="20.237" height="20.237" transform="translate(2874.729 297.369)" fill="#59f2f7"/>
    <circle id="Ellipse_2" data-name="Ellipse 2" cx="69.951" cy="69.951" r="69.951" transform="translate(2571.938 504.834)" fill="#59f2f7" style="mix-blend-mode: multiply;isolation: isolate"/>
    <g id="Group_23" data-name="Group 23">
      <rect id="Rectangle_6" data-name="Rectangle 6" width="295.568" height="277.173" rx="79.321" transform="translate(2525.499 462.143) rotate(-50.6)" fill="#59f2f7"/>
      <g id="Group_22" data-name="Group 22">
        <g id="Group_21" data-name="Group 21" clip-path="url(#clip-path)">
          <g id="Group_20" data-name="Group 20">
            <path id="Path_41" data-name="Path 41" d="M2741.887,388.142c32.228,2.279,85.856,20.446,97.469,112.122,0,.012,23.4.237,23.4.237,21.71,40.844,24.885,92.524-10.569,117.6H2768.7c-23.363-17.257-38.916-47.927-47.791-74.339C2691.293,455.608,2671.749,383.182,2741.887,388.142Z" fill="#ffa811"/>
            <path id="Path_42" data-name="Path 42" d="M2872.133,594.252a60.106,60.106,0,0,1-19.947,23.852H2796.1C2817.338,591.6,2855.528,592.431,2872.133,594.252Z" fill="url(#linear-gradient-2)"/>
            <path id="Path_43" data-name="Path 43" d="M2728.03,539.116a49.211,49.211,0,0,1,13.018-9.348c3.006,34.926.674,60.2.674,60.2l-11.235.557-13.945.688A49.589,49.589,0,0,1,2728.03,539.116Z" fill="#ff7b48"/>
            <g id="Group_3" data-name="Group 3">
              <path id="Path_44" data-name="Path 44" d="M2744.084,572.507c-4.639-34.029-16.613-38.18-30.47-42.993-13.428-4.654-28.646-9.939-40.388-41.626a.638.638,0,0,1,1.2-.442c11.539,31.117,26.449,36.29,39.608,40.859,14.271,4.952,26.595,9.225,30.693,43.487a.65.65,0,0,1-.565.715Z" fill="#122c7a"/>
            </g>
            <path id="Path_45" data-name="Path 45" d="M2872.133,594.252a60.106,60.106,0,0,1-19.947,23.852H2796.1C2817.338,591.6,2855.528,592.431,2872.133,594.252Z" fill="#ff5869"/>
            <path id="Path_46" data-name="Path 46" d="M2793.575,427.056c-20.546-28.064-46.312-39.437-46.312-39.437l-8.1,7.251C2621.926,416.742,2634.3,618.4,2634.3,618.4h167.1s-.022-40.851-.175-55.569c2.376-31.488,14.462-47.157,17.248-67.13C2821.672,472.76,2804.357,441.787,2793.575,427.056Z" fill="#ffa811"/>
            <path id="Path_47" data-name="Path 47" d="M2650.317,481.3A167.665,167.665,0,0,1,2668.3,446.5a148.892,148.892,0,0,1,6.66,21.162c15.185,64.432,11.573,126.777,9.3,150.74h-50.227s-5.418-50.5,6.346-103.63c4.1-8.4,8.185-15.385,9.742-26.54A35.671,35.671,0,0,0,2650.317,481.3Z" fill="url(#linear-gradient-3)"/>
            <g id="Group_4" data-name="Group 4">
              <path id="Path_48" data-name="Path 48" d="M2761.908,619.044a.661.661,0,0,1-.64-.726c.145-1.087,14.223-108.654,13.207-128.983-1.024-20.3-25.792-87.594-26.043-88.274a.645.645,0,0,1,.384-.825.671.671,0,0,1,.825.384c1.024,2.773,25.088,68.156,26.112,88.646,1.028,20.45-13.068,128.134-13.207,129.215A.649.649,0,0,1,2761.908,619.044Z" fill="#1a7c7c"/>
            </g>
            <path id="Path_49" data-name="Path 49" d="M2829.25,521.849l-26.154,1.422s-5.984-5.211-4.539-8.634l22.8-54a5.192,5.192,0,0,1,4.783-3.173h25.907c3.716,0,6.6,3.992,6.6,3.992l-24.611,57.219A5.192,5.192,0,0,1,2829.25,521.849Z" fill="#fbfadc"/>
            <path id="Path_50" data-name="Path 50" d="M2832.443,524.573h-25.907a5.2,5.2,0,0,1-4.785-7.215l22.795-54a5.2,5.2,0,0,1,4.786-3.175h25.905a5.194,5.194,0,0,1,4.786,7.215l-22.794,54A5.2,5.2,0,0,1,2832.443,524.573Z" fill="#d2d2d2"/>
            <path id="Path_51" data-name="Path 51" d="M2832.443,524.573h-25.907a5.2,5.2,0,0,1-4.785-7.215l22.795-54a5.2,5.2,0,0,1,4.786-3.175h25.905a5.194,5.194,0,0,1,4.786,7.215l-22.794,54A5.2,5.2,0,0,1,2832.443,524.573Z" fill="url(#linear-gradient-4)" style="mix-blend-mode: soft-light;isolation: isolate"/>
            <path id="Path_52" data-name="Path 52" d="M2757.281,380.639s-3.99-3.523-14.368-4.294-13.106,1.01-13.106,1.01,8.4,7.4,16.627,8.215S2757.281,380.639,2757.281,380.639Z" fill="#1a1a1a"/>
            <path id="Path_53" data-name="Path 53" d="M2774.886,430.917c.827,2.786-.274,5.571-2.457,6.219s-4.625-1.085-5.451-3.873.272-5.57,2.455-6.219S2774.057,428.13,2774.886,430.917Z" fill="#fbfadc"/>
            <path id="Path_54" data-name="Path 54" d="M2788.517,485.283c.408,2.877-1.091,5.47-3.348,5.788s-4.413-1.756-4.819-4.635,1.091-5.469,3.348-5.789S2788.112,482.4,2788.517,485.283Z" fill="#fbfadc"/>
            <path id="Path_55" data-name="Path 55" d="M2785.929,544.146c-.189,2.9-2.187,5.132-4.46,4.983s-3.962-2.621-3.771-5.521,2.187-5.132,4.459-4.983S2786.119,541.246,2785.929,544.146Z" fill="#fbfadc"/>
            <path id="Path_56" data-name="Path 56" d="M2781.6,601.906c-.181,2.76-2.081,4.881-4.242,4.738s-3.768-2.491-3.587-5.251,2.08-4.879,4.241-4.737S2781.775,599.149,2781.6,601.906Z" fill="#fbfadc"/>
            <path id="Path_57" data-name="Path 57" d="M2660.9,539.824c-1.778,18.43,21.511,78.137,21.511,78.137l118.987.707c-89.144-12.879-89.289-206.248-89.289-206.248S2663.856,509.151,2660.9,539.824Z" fill="url(#linear-gradient-5)" style="mix-blend-mode: soft-light;isolation: isolate"/>
            <g id="Group_9" data-name="Group 9">
              <path id="Path_58" data-name="Path 58" d="M2600.154,494.272c34.453-69.351,69.716-95.519,133.365-111.343l-20.446,37.73c-15.709,29.074-19.86,41.844-19.836,67.432l23.313,6.177C2773.113,690.689,2519.5,656.624,2600.154,494.272Z" fill="#ffa811"/>
              <path id="Path_59" data-name="Path 59" d="M2656.83,629.1c-32.47.41-65.573-21.534-71.613-61.436C2637.189,565.255,2654.48,620.575,2656.83,629.1Z" fill="#ff5869"/>
              <path id="Path_60" data-name="Path 60" d="M2715.916,591.089c-21.609,13.873-59.975,30.178-96.541,7.121-45.184-28.492-18.285-98.018-9.266-122.712q-5.014,8.825-9.955,18.774C2537.125,621.142,2678.224,669.67,2715.916,591.089Z" fill="url(#linear-gradient-6)" style="mix-blend-mode: soft-light;isolation: isolate"/>
              <g id="Group_5" data-name="Group 5">
                <path id="Path_61" data-name="Path 61" d="M2622.95,572.511a.658.658,0,0,1-.64-.719c4.106-34.262,16.428-38.541,30.7-43.493,13.153-4.563,28.07-9.742,39.6-40.853a.666.666,0,0,1,.823-.383.646.646,0,0,1,.386.825c-11.749,31.687-26.968,36.972-40.4,41.626-13.863,4.813-25.832,8.97-29.836,42.429A.65.65,0,0,1,2622.95,572.511Z" fill="#1a7c7c"/>
              </g>
              <path id="Path_62" data-name="Path 62" d="M2693.237,488.091s2.183,3.31,11.466,5.98,12.247.811,12.247.811c2.535-4.1,7.205-13.551,7.205-13.551,1.014-.579,3.823-2.505,4.763-3.193a8.6,8.6,0,0,0,3.6-6.277c.119-2.7-2.388-5.33-4.969-4.749a3.1,3.1,0,0,0,.587-1.382c.334-3.118-1.493-5.4-4.221-5.155,7.185-3.47,12.607-8.738,10.643-12.383-1.275-2.369-7.468-1.338-13.041,1.726-7.266,4-22.71,9.277-24.712,13.146C2693.511,469.43,2693.237,488.091,2693.237,488.091Z" fill="#fff"/>
              <g id="Group_6" data-name="Group 6">
                <path id="Path_63" data-name="Path 63" d="M2709.846,465.376c4.453-4.779,14.056-5.469,14.464-5.5-.03.982-9.633,1.68-14.15,5.388A.492.492,0,0,1,2709.846,465.376Z" fill="#17274e"/>
              </g>
              <g id="Group_7" data-name="Group 7">
                <path id="Path_64" data-name="Path 64" d="M2714.88,472.038c3.093-4.6,12.7-5.459,13.108-5.495-.01.982-9.549,1.843-12.748,5.336A.476.476,0,0,1,2714.88,472.038Z" fill="#17274e"/>
              </g>
              <g id="Group_8" data-name="Group 8">
                <path id="Path_65" data-name="Path 65" d="M2724.153,481.82c4.813-7.04,4.9-8.563,4.9-8.627,1.048.233.891,1.943-4.526,8.452A.5.5,0,0,1,2724.153,481.82Z" fill="#17274e"/>
              </g>
            </g>
            <path id="Path_66" data-name="Path 66" d="M2794.607,328.854c3.535-16.351-3.473-16.786-3.473-16.786s5.523-20.691-14.345-26.019c-16.454-4.414-19.307,3.314-23.607-8.758s-8.352-18.45-29.564-22.911c-9.251-1.947-13.963-5.907-16.335-9.756a4.07,4.07,0,0,0-6.893-.022c-3.914,6.217-10.416,13.054-19.955,12.7a36.893,36.893,0,0,1-19.619-6.207,9.177,9.177,0,0,0-14.145,6.408c-1.746,12.259-1.808,27.945,7.047,35.542,15.729,13.5,25.344-1.94,38.229,10s-5.38,27.33,11.658,47.825c22.977,27.64,59.207-.3,59.207-.3S2786.052,368.414,2794.607,328.854Z" fill="#1a1a1a"/>
            <path id="Path_67" data-name="Path 67" d="M2757.933,370.842l-7.139,24.3s1.531,1.821-9.794-3.521-11.581-3.694-11.581-3.694l11.526-37.664Z" fill="#fff"/>
            <path id="Path_68" data-name="Path 68" d="M2784.018,330.158c.008-.348.018-.7.026-1.036C2784.036,329.462,2784.028,329.806,2784.018,330.158Z" fill="#2d272b"/>
            <path id="Path_69" data-name="Path 69" d="M2730.734,330.43c6.423-6.433,16.06,3.845,16.06,3.845,15.99,7.215,14.316-23.344,38.624-12.6,1.912.847-2.828,28.156-5.245,37.629-1.79,7.022-4.366,15.663-11.887,18.448-15.742,5.831-26.065-9.929-27.431-23.416-.073-.718.112-3.344.09-4.064C2732.145,350.662,2723.371,337.8,2730.734,330.43Z" fill="#fff"/>
            <path id="Path_70" data-name="Path 70" d="M2779.809,340.7a1.137,1.137,0,0,0,1.272-.976l.366-2.787a1.134,1.134,0,1,0-2.248-.3l-.366,2.788A1.137,1.137,0,0,0,2779.809,340.7Z" fill="#17274e"/>
            <path id="Path_71" data-name="Path 71" d="M2761.152,337.866a1.138,1.138,0,0,0,1.273-.976l.366-2.788a1.133,1.133,0,1,0-2.247-.3l-.368,2.788A1.141,1.141,0,0,0,2761.152,337.866Z" fill="#17274e"/>
            <path id="Path_72" data-name="Path 72" d="M2770.087,376.9a14.194,14.194,0,0,0,1.4-.9c-24.147-4.484-23.029-29.345-21.333-40.7a12.488,12.488,0,0,1-3.364-1.024s-9.637-10.278-16.06-3.845a9.112,9.112,0,0,0-2.748,6.267,12.711,12.711,0,0,0,2.26,7.32,16.823,16.823,0,0,0,3.639,3.855,13.715,13.715,0,0,0,1.457.949,10.53,10.53,0,0,0,5.6,1.447c.012.358-.03,1.2-.064,2.032-.026.628-.048,1.254-.042,1.68,1.169,11.732,8.7,24.73,20.478,25.011a16.778,16.778,0,0,0,2.688-.153,18.846,18.846,0,0,0,2.821-.607c.482-.141.969-.3,1.462-.483a12.454,12.454,0,0,0,1.624-.745C2769.972,376.971,2770.027,376.935,2770.087,376.9Z" fill="#fff"/>
            <g id="Group_11" data-name="Group 11">
              <path id="Path_73" data-name="Path 73" d="M2757.281,380.639s28.944,16.335,15.6,25.937-25.9-11.722-25.9-11.722-7.271,22.989-23.54,14.269c-22.607-12.113,6.364-31.768,6.364-31.768S2747.144,389.252,2757.281,380.639Z" fill="url(#linear-gradient-7)"/>
              <g id="Group_10" data-name="Group 10">
                <path id="Path_74" data-name="Path 74" d="M2746.985,395.556a.7.7,0,0,1-.7-.7v-11.1a.7.7,0,1,1,1.405,0v11.1A.7.7,0,0,1,2746.985,395.556Z" fill="#122c7a"/>
              </g>
            </g>
            <g id="Group_12" data-name="Group 12">
              <path id="Path_75" data-name="Path 75" d="M2736.091,350.787c-23.048,0-25.263-14.83-27.814-31.9-.582-3.883-1.179-7.9-2.051-11.9-3.046-14.048-10.917-15.513-20.874-17.362-5.128-.953-10.941-2.034-16.5-5.152-16.235-9.078-9.27-25.744-9.2-25.913a.815.815,0,0,1,1.046-.418.807.807,0,0,1,.419,1.046c-.274.628-6.459,15.528,8.516,23.9,5.33,2.982,10.766,3.992,16.015,4.97,10.125,1.883,18.861,3.5,22.139,18.589.879,4.058,1.483,8.1,2.07,12,2.634,17.631,4.686,31.587,28.751,30.488a.827.827,0,0,1,.831.761.8.8,0,0,1-.762.833C2737.789,350.763,2736.923,350.787,2736.091,350.787Z" fill="#344fb5"/>
            </g>
            <g id="Group_13" data-name="Group 13">
              <path id="Path_76" data-name="Path 76" d="M2758.454,317.822c-11.962-2.355-14.084-11.417-14.171-29.588-.058-12.77-4.726-13.649-14.017-15.4a78.78,78.78,0,0,1-14.135-3.708c-18.42-7.028-14.138-19.375-14.09-19.5a.764.764,0,0,1,1.018-.471.8.8,0,0,1,.475,1.016c-.163.449-3.738,11.016,13.165,17.462a76.329,76.329,0,0,0,13.863,3.634c9.506,1.8,15.244,2.877,15.313,16.955.092,19.561,3.068,26.106,12.736,28.025a.8.8,0,0,1-.157,1.575Z" fill="#344fb5"/>
            </g>
            <g id="Group_16" data-name="Group 16">
              <g id="Group_14" data-name="Group 14">
                <path id="Path_77" data-name="Path 77" d="M2774.962,354.274c-.732-.628-.626-1.024-.326-1.2,3.233-1.878,5.849-4.244,5.489-4.952a6.655,6.655,0,0,0-1.686-1.29c-1.449-.925-3.093-1.977-3.093-3.4a44.135,44.135,0,0,1,.471-8.092.674.674,0,0,1,.791-.453.646.646,0,0,1,.453.791c-.18.652-.4,2.523-.425,7.76-.006.716,1.441,1.64,2.5,2.314a6.057,6.057,0,0,1,2.145,1.789c1.15,2.269-4.3,5.663-5.988,6.651A.681.681,0,0,1,2774.962,354.274Z" fill="#17274e"/>
              </g>
              <g id="Group_15" data-name="Group 15">
                <path id="Path_78" data-name="Path 78" d="M2772.632,357.61c.884-1.688-.553-3-2.428-2.938a2.888,2.888,0,0,1-3.181-3c-.056-1.887-1.453-3.245-3.073-2.249s-2.456,5.814.306,8.416C2767.337,360.746,2771.747,359.3,2772.632,357.61Z" fill="#1a1a1a"/>
              </g>
              <path id="Path_79" data-name="Path 79" d="M2763.192,350.262c.026.02,4.984,3.648,1.716,8.112A6.769,6.769,0,0,1,2763.192,350.262Z" fill="#ff5869"/>
            </g>
            <g id="Group_19" data-name="Group 19">
              <path id="Path_80" data-name="Path 80" d="M2853.54,482.762s-2.2,6.007-4.438,6.35c-2.96.456-9.4-.618-12.537-1.2a10.413,10.413,0,0,0-4.728-.179c-3.559.986-4.865,5.044-4.314,8.549a4.262,4.262,0,0,0,.316,1.121,4.889,4.889,0,0,0-2.509,2.736,8.124,8.124,0,0,0,.716,7.27,5.13,5.13,0,0,0,1.5,1.525,5.634,5.634,0,0,0-2.109,3.669,6.782,6.782,0,0,0,4.783,7.755c.315.11.8.314,1.442.577,2.994,1.244,20.7,5.135,25.762-3.463C2871.473,493.64,2854.2,482.508,2853.54,482.762Z" fill="#fff"/>
              <g id="Group_17" data-name="Group 17">
                <path id="Path_81" data-name="Path 81" d="M2845.71,501.143A52.607,52.607,0,0,1,2827.5,497.9c.483-.861,11.648,3.656,24.711,1.8A11.93,11.93,0,0,1,2845.71,501.143Z" fill="#17274e"/>
              </g>
              <g id="Group_18" data-name="Group 18">
                <path id="Path_82" data-name="Path 82" d="M2843.664,512.907c-10.421,0-16.519-3.424-16.833-3.6.58-.8,9.793,4.342,24.728,1.982A16.362,16.362,0,0,1,2843.664,512.907Z" fill="#17274e"/>
              </g>
            </g>
            <path id="Path_83" data-name="Path 83" d="M2844.086,471.488c-.662,1.9-2.4,3.017-3.893,2.5s-2.159-2.479-1.5-4.378,2.406-3.02,3.893-2.5S2844.748,469.587,2844.086,471.488Z" fill="#fbfadc"/>
          </g>
        </g>
      </g>
    </g>
  </g>
</svg>
