<svg xmlns="http://www.w3.org/2000/svg" width="38.042" height="58.667" viewBox="0 0 38.042 58.667">
    <defs>
        <style>
            .cls-1{fill:#1a1a60}
        </style>
    </defs>
    <g id="_001-buddha" transform="translate(-90)">
        <g id="Group_9451" transform="translate(102.432 56.375)">
            <g id="Group_9450">
                <path id="Path_6595" d="M200.456 492.336a1.145 1.145 0 1 0 .336.81 1.154 1.154 0 0 0-.336-.81z" class="cls-1" transform="translate(-198.5 -492)"/>
            </g>
        </g>
        <g id="Group_9453" transform="translate(90)">
            <g id="Group_9452">
                <path id="Path_6596" d="M126.9 51.792h-.3A5.731 5.731 0 0 0 125 48.6v-2.17a6.608 6.608 0 0 0-3.8-5.965l-.428-.2v-8.441a3.889 3.889 0 0 0-2.41-3.6l-5.037-2.083h-.006l-.4-.164v-1.116a6.177 6.177 0 0 0 2.276-4.79v2.5a1.146 1.146 0 1 0 2.292 0v-5.234a1.146 1.146 0 0 0-1.146-1.146v-.951a7.314 7.314 0 0 0-2.532-5.54L110.094.708a1.146 1.146 0 0 0-2.118 0l-3.7 8.949a7.315 7.315 0 0 0-2.588 5.583v.951a1.146 1.146 0 0 0-1.146 1.146v5.236a1.146 1.146 0 0 0 2.292 0v-2.5a6.177 6.177 0 0 0 2.276 4.79v1.107l-5.44 2.25a3.889 3.889 0 0 0-2.41 3.6v8.441l-.428.2a6.608 6.608 0 0 0-3.8 5.965V48.6a5.732 5.732 0 0 0-1.6 3.192h-.294A1.146 1.146 0 0 0 90 52.937v4.583a1.146 1.146 0 0 0 1.146 1.146h7.964a1.146 1.146 0 0 0 0-2.292h-6.818v-2.291h33.458v2.292h-17.359a1.146 1.146 0 1 0 0 2.292H126.9a1.146 1.146 0 0 0 1.146-1.146v-4.584a1.146 1.146 0 0 0-1.146-1.145zM102.833 17.83v-.07c.002.024 0 .047 0 .07zm6.2-13.684l1.636 3.954a7.274 7.274 0 0 0-3.264-.007zm-4.959 10.127a5.038 5.038 0 0 1 9.889 0 4.4 4.4 0 0 0-4.944-.97 4.4 4.4 0 0 0-4.944.97zm8.84 3.064v2.734a3.9 3.9 0 1 1-7.792 0v-2.734a2.116 2.116 0 0 1 3.27-1.774 1.146 1.146 0 0 0 1.252 0 2.116 2.116 0 0 1 3.27 1.774zm-12.371 13l6.147-2.543a1.146 1.146 0 0 0 .708-1.059v-.694a6.165 6.165 0 0 0 3.24 0v.694a1.145 1.145 0 0 0 .314.787l-7.564 7.564v-.139a1.146 1.146 0 1 0-2.292 0v4.24a1.146 1.146 0 0 0 .384.856l3.409 3.036a1.146 1.146 0 0 0 .762.29h5.681a1.773 1.773 0 0 1-1.356.63H102.7l-3.145-2.5v-9.675a1.6 1.6 0 0 1 .991-1.487zm-6.766 21.455a3.465 3.465 0 0 1 2.1-2.375l.767-.3.767.3a3.464 3.464 0 0 1 2.1 2.375h-5.734zm8.25 0a3.464 3.464 0 0 1 2.1-2.375l.767-.3.767.3a3.464 3.464 0 0 1 2.1 2.375h-5.737zm8.25 0a3.464 3.464 0 0 1 2.1-2.375l.767-.3.767.3a3.464 3.464 0 0 1 2.1 2.375h-5.737zm6.994-2.593a5.775 5.775 0 0 0-2.52-1.915l-1.186-.466a1.146 1.146 0 0 0-.838 0l-1.186.466a5.775 5.775 0 0 0-2.52 1.915 5.775 5.775 0 0 0-2.52-1.915l-1.186-.466a1.146 1.146 0 0 0-.838 0l-1.186.466a5.775 5.775 0 0 0-2.52 1.915 5.775 5.775 0 0 0-2.52-1.915l-1.186-.466a1.146 1.146 0 0 0-.838 0l-.9.353v-.741a4.309 4.309 0 0 1 2.145-3.715 1.144 1.144 0 0 0 .219.234l3.891 3.094a1.146 1.146 0 0 0 .713.249h7.682a4.072 4.072 0 0 0 4.068-4.068 1.146 1.146 0 0 0-1.146-1.146h-5.16l5.191-5.191a1.146 1.146 0 0 0-1.621-1.621l-6.062 6.062-1.859-1.655v-.346l9.78-9.78 4.326 1.789a1.6 1.6 0 0 1 .994 1.487v8.207l-2.117 2.117a1.146 1.146 0 1 0 1.62 1.621l1.551-1.551.694.324a4.308 4.308 0 0 1 2.475 3.888v.741l-.9-.353a1.146 1.146 0 0 0-.838 0l-1.186.466a5.775 5.775 0 0 0-2.516 1.917zm1.256 2.593a3.464 3.464 0 0 1 2.1-2.375l.767-.3.767.3a3.464 3.464 0 0 1 2.1 2.375h-5.737z" class="cls-1" transform="translate(-90)"/>
            </g>
        </g>
        <g id="Group_9455" transform="translate(113.816 31.091)">
            <g id="Group_9454">
                <path id="Path_6597" d="M299.806 271.676a1.145 1.145 0 1 0 .336.81 1.155 1.155 0 0 0-.336-.81z" class="cls-1" transform="translate(-297.85 -271.34)"/>
            </g>
        </g>
    </g>
</svg>
