<svg xmlns="http://www.w3.org/2000/svg" xmlns:xlink="http://www.w3.org/1999/xlink" width="1440" height="825" viewBox="0 0 1440 825">
  <defs>
    <clipPath id="clip-path">
      <path id="Path_606" data-name="Path 606" d="M0,0H1440V825H0Z" transform="translate(3514 -104)" fill="#141462"/>
    </clipPath>
    <filter id="Path_253" x="424.274" y="341.888" width="726.207" height="726.207" filterUnits="userSpaceOnUse">
      <feOffset dy="3" input="SourceAlpha"/>
      <feGaussianBlur stdDeviation="49.5" result="blur"/>
      <feFlood flood-color="#00ffcb" flood-opacity="0.161"/>
      <feComposite operator="in" in2="blur"/>
      <feComposite in="SourceGraphic"/>
    </filter>
    <filter id="Path_254" x="921.882" y="-210.475" width="668.704" height="668.704" filterUnits="userSpaceOnUse">
      <feOffset dy="3" input="SourceAlpha"/>
      <feGaussianBlur stdDeviation="49.5" result="blur-2"/>
      <feFlood flood-color="#0952e2" flood-opacity="0.161"/>
      <feComposite operator="in" in2="blur-2"/>
      <feComposite in="SourceGraphic"/>
    </filter>
  </defs>
  <g id="Mask_Group_37" data-name="Mask Group 37" transform="translate(-3514 104)" clip-path="url(#clip-path)">
    <path id="Path_236" data-name="Path 236" d="M0,0H1440V825H0Z" transform="translate(3514 -104)" fill="#141462"/>
    <g transform="matrix(1, 0, 0, 1, 3514, -104)" filter="url(#Path_253)">
      <path id="Path_253-2" data-name="Path 253" d="M921.442,2591C909.533,2788.273,704,2808.442,704,2808.442" transform="translate(-1696.29 -633.29) rotate(-45)" fill="none" stroke="#00ffcb" stroke-linecap="round" stroke-width="80"/>
    </g>
    <g transform="matrix(1, 0, 0, 1, 3514, -104)" filter="url(#Path_254)">
      <path id="Path_254-2" data-name="Path 254" d="M921.442,2591C909.533,2788.273,704,2808.442,704,2808.442" transform="matrix(-0.26, 0.97, -0.97, -0.26, 4074.8, 35.43)" fill="none" stroke="#0952e2" stroke-linecap="round" stroke-width="80"/>
    </g>
  </g>
</svg>
