<svg xmlns="http://www.w3.org/2000/svg" xmlns:xlink="http://www.w3.org/1999/xlink" width="196" height="196" viewBox="0 0 196 196">
  <defs>
    <clipPath id="clip-path">
      <rect id="Rectangle_2361" data-name="Rectangle 2361" width="196" height="196" transform="translate(471 8226)" fill="#fff" stroke="#707070" stroke-width="1"/>
    </clipPath>
  </defs>
  <g id="Mask_Group_28" data-name="Mask Group 28" transform="translate(-471 -8226)" clip-path="url(#clip-path)">
    <g id="Layer_2" data-name="Layer 2" transform="translate(486.133 8226.197)">
      <g id="vector">
        <path id="Path_333" data-name="Path 333" d="M115.766,59.59c17.431,14.054,39.006,23.631,46.677,39.741,7.632,16.11,1.321,38.676-12.037,52.914-13.358,14.2-33.722,20.068-52.627,24.585-18.9,4.552-36.29,7.745-47.918.991-11.633-6.788-17.5-23.549-26.164-38.676C15.037,124.065,3.551,110.6.946,94.123c-2.6-16.513,3.67-36.108,16.953-50.86C31.22,28.474,51.585,18.485,68.391,22.751,85.162,27.006,98.372,45.538,115.766,59.59Z" fill="#cbfffe"/>
        <path id="Path_334" data-name="Path 334" d="M148.776,56.813l12.258,28.114L111.05,93.435Z" fill="none" stroke="#2bc06b" stroke-linecap="round" stroke-linejoin="round" stroke-width="0.979"/>
        <path id="Path_335" data-name="Path 335" d="M105.089,94.4c0-21.061-.41-42.251-28.282-42.251-25.443,0-27.6,29.262-27.733,39.769-.129,10.663-3.481,16.849-7.652,21.62v50.539C55.21,176.551,73.8,188.652,82.774,188.652c8.156,0,23.289-5.719,35.6-12.758V125.448C111.345,117.177,105.089,107.759,105.089,94.4Z" fill="#fb5d64"/>
        <path id="Path_336" data-name="Path 336" d="M23.078,138.291c1.069-22.765,24.217-19.388,24.573-47.8A69.386,69.386,0,0,1,50.75,70" fill="none" stroke="#1b3c87" stroke-linecap="round" stroke-linejoin="round" stroke-width="0.979"/>
        <path id="Path_337" data-name="Path 337" d="M133.977,161.255c-8.551,11.277-39.557,25.976-52.627,25.976-10.419,0-33.815-16.329-47.592-30.6" fill="none" stroke="#1b3c87" stroke-linecap="round" stroke-linejoin="round" stroke-width="0.979"/>
        <path id="Path_338" data-name="Path 338" d="M115.041,121.725c8.136,10.114,18.063,18.248,20.564,29.092" fill="none" stroke="#1b3c87" stroke-linecap="round" stroke-linejoin="round" stroke-width="0.979"/>
        <path id="Path_339" data-name="Path 339" d="M58.726,56.811c3.969-3.686,9.35-6.088,16.648-6.088,27.876,0,28.282,21.19,28.282,42.251a40.644,40.644,0,0,0,6.872,22.525" fill="none" stroke="#1b3c87" stroke-linecap="round" stroke-linejoin="round" stroke-width="0.979"/>
        <path id="Path_340" data-name="Path 340" d="M41.422,178.491a12.082,12.082,0,0,0,12.049,12.051h52.851a12.082,12.082,0,0,0,12.049-12.051V153.07C109.36,136.229,94.848,125.3,78.478,125.3c-14.744,0-27.989,8.875-37.064,22.949Z" fill="#00ffcb"/>
        <path id="Path_341" data-name="Path 341" d="M0,161.662a13.19,13.19,0,1,1,13.19,13.19A13.19,13.19,0,0,1,0,161.662Z" fill="#cbfffe" fill-rule="evenodd"/>
        <rect id="Rectangle_2369" data-name="Rectangle 2369" width="37.441" height="32.94" transform="translate(9.349 29.144) rotate(-49.93)" fill="none" stroke="#0952e2" stroke-linecap="round" stroke-linejoin="round" stroke-width="0.979"/>
        <path id="Path_342" data-name="Path 342" d="M115.348,148.679q1.61,2.662,3.022,5.556" fill="none" stroke="#141462" stroke-linecap="round" stroke-linejoin="round" stroke-width="0.979"/>
        <path id="Path_343" data-name="Path 343" d="M59.532,128.56a37.743,37.743,0,0,1,17.717-4.491c11.336,0,21.78,5.24,30.125,14.054" fill="none" stroke="#141462" stroke-linecap="round" stroke-linejoin="round" stroke-width="0.979"/>
        <path id="Path_344" data-name="Path 344" d="M41.422,145.174a56.993,56.993,0,0,1,9.772-10.91" fill="none" stroke="#141462" stroke-linecap="round" stroke-linejoin="round" stroke-width="0.979"/>
        <path id="Path_345" data-name="Path 345" d="M122.661,182.25A13.106,13.106,0,0,1,109.6,195.313H50.213A13.106,13.106,0,0,1,37.138,182.25V84.1" fill="none" stroke="#1b3c87" stroke-linecap="round" stroke-linejoin="round" stroke-width="0.979"/>
        <path id="Path_346" data-name="Path 346" d="M37.138,60.409V32.828A13.106,13.106,0,0,1,50.2,19.765h59.385a13.106,13.106,0,0,1,13.075,13.063V152.636" fill="none" stroke="#141462" stroke-linecap="round" stroke-linejoin="round" stroke-width="0.979"/>
        <path id="Path_347" data-name="Path 347" d="M45.558,187.56a12.035,12.035,0,0,1-4.136-9.07V36.581A12.082,12.082,0,0,1,53.471,24.53H91.486" fill="none" stroke="#141462" stroke-linecap="round" stroke-linejoin="round" stroke-width="0.979"/>
        <path id="Path_348" data-name="Path 348" d="M110.024,25.116a12.1,12.1,0,0,1,8.347,11.467v141.91a12.082,12.082,0,0,1-12.049,12.051H70.156" fill="none" stroke="#141462" stroke-linecap="round" stroke-linejoin="round" stroke-width="0.979"/>
        <path id="Path_349" data-name="Path 349" d="M101.993,24.53a4.6,4.6,0,0,1,.285,1.6v.252a4.655,4.655,0,0,1-4.64,4.64H65.5" fill="none" stroke="#1b3c87" stroke-linecap="round" stroke-linejoin="round" stroke-width="0.979"/>
        <line id="Line_7" data-name="Line 7" x2="36.438" transform="translate(61.676 185.371)" fill="none" stroke="#141462" stroke-linecap="round" stroke-linejoin="round" stroke-width="0.979"/>
        <path id="Path_350" data-name="Path 350" d="M63.542,108.414c.819,4.71,1.282,17.84.592,24.68,2.625,2.212,14.16,4.214,21.829,1.243-1.036-3.8-1.589-12.848-.69-18.375C80.366,114.167,63.542,108.414,63.542,108.414Z" fill="#fff"/>
        <path id="Path_351" data-name="Path 351" d="M63.442,122.487c.023,3.563-.074,7.016-.332,9.583,1.579,1.331,6.391,2.586,11.641,2.728" fill="none" stroke="#1b3c87" stroke-linecap="round" stroke-linejoin="round" stroke-width="0.979"/>
        <path id="Path_352" data-name="Path 352" d="M84.939,133.309c-1.036-3.8-1.589-12.848-.69-18.375-4.915-1.8-21.731-7.548-21.731-7.548a77.549,77.549,0,0,1,.743,8.381" fill="none" stroke="#1b3c87" stroke-linecap="round" stroke-linejoin="round" stroke-width="0.979"/>
        <ellipse id="Ellipse_57" data-name="Ellipse 57" cx="23.037" cy="30.716" rx="23.037" ry="30.716" transform="translate(56.989 57.835)" fill="#fff"/>
        <path id="Path_353" data-name="Path 353" d="M97.907,103.866c-4.11,8.41-11.226,13.968-19.314,13.968a17.613,17.613,0,0,1-5.407-.85" fill="none" stroke="#141462" stroke-linecap="round" stroke-linejoin="round" stroke-width="0.979"/>
        <path id="Path_354" data-name="Path 354" d="M57.429,99.273a39.542,39.542,0,0,1-1.874-12.155c0-16.964,10.313-30.716,23.037-30.716S101.63,70.154,101.63,87.118a40.1,40.1,0,0,1-1.171,9.694" fill="none" stroke="#141462" stroke-linecap="round" stroke-linejoin="round" stroke-width="0.979"/>
        <ellipse id="Ellipse_58" data-name="Ellipse 58" cx="1.304" cy="2.926" rx="1.304" ry="2.926" transform="translate(90.933 85.807)" fill="#141462"/>
        <path id="Path_355" data-name="Path 355" d="M84.982,93.435a12.167,12.167,0,0,0,3.276,6.143" fill="none" stroke="#141462" stroke-linecap="round" stroke-linejoin="round" stroke-width="0.979"/>
        <path id="Path_356" data-name="Path 356" d="M84.433,89.4a13.056,13.056,0,0,0,.078,1.339" fill="none" stroke="#1b3c87" stroke-linecap="round" stroke-linejoin="round" stroke-width="0.979"/>
        <circle id="Ellipse_59" data-name="Ellipse 59" cx="2.341" cy="2.341" r="2.341" transform="translate(73.512 102.503)" fill="none" stroke="#141462" stroke-linecap="round" stroke-linejoin="round" stroke-width="0.979"/>
        <path id="Path_357" data-name="Path 357" d="M85.047,64.351a1.639,1.639,0,0,0,.084.317c1.139,3.379,12.989,24.778,18.479,28.6.195-3.346.52-17.107-1.622-21s-11.035-14.15-13.826-14.15-3.106,6.305-3.106,6.305" fill="#fb5d64"/>
        <path id="Path_358" data-name="Path 358" d="M97.342,86.436a42.136,42.136,0,0,0,3.287,4.038" fill="none" stroke="#141462" stroke-linecap="round" stroke-linejoin="round" stroke-width="0.979"/>
        <path id="Path_359" data-name="Path 359" d="M83.819,63.122a1.639,1.639,0,0,0,.084.317c.719,2.13,5.695,11.422,10.648,18.958" fill="none" stroke="#141462" stroke-linecap="round" stroke-linejoin="round" stroke-width="0.979"/>
        <path id="Path_360" data-name="Path 360" d="M90.478,57.837c0,2.048-18.684,37.462-28.214,42.413-3.924,2.615-11.48,3.549-11.48,1.495s3.643-37.269,11.4-41.293S81.323,51.763,90.478,57.837Z" fill="#fb5d64"/>
        <path id="Path_361" data-name="Path 361" d="M80.833,73.7c-6.172,10.611-14.3,22.771-19.593,25.523a17.647,17.647,0,0,1-6.348,2.365" fill="none" stroke="#141462" stroke-linecap="round" stroke-linejoin="round" stroke-width="0.979"/>
        <path id="Path_362" data-name="Path 362" d="M89.454,56.813c0,.532-1.253,3.3-3.276,7.2" fill="none" stroke="#141462" stroke-linecap="round" stroke-linejoin="round" stroke-width="0.979"/>
        <circle id="Ellipse_60" data-name="Ellipse 60" cx="5.912" cy="5.912" r="5.912" transform="translate(53.676 93.066)" fill="#fff"/>
        <path id="Path_363" data-name="Path 363" d="M56.172,92.546a5.92,5.92,0,0,1,5.7.506" fill="none" stroke="#141462" stroke-linecap="round" stroke-linejoin="round" stroke-width="0.979"/>
        <path id="Path_364" data-name="Path 364" d="M60.239,103.627a5.918,5.918,0,0,1-7.372-7.237" fill="none" stroke="#141462" stroke-linecap="round" stroke-linejoin="round" stroke-width="0.979"/>
      </g>
    </g>
  </g>
</svg>
