<svg xmlns="http://www.w3.org/2000/svg" xmlns:xlink="http://www.w3.org/1999/xlink" width="196" height="196" viewBox="0 0 196 196">
  <defs>
    <clipPath id="clip-path">
      <rect id="Rectangle_2363" data-name="Rectangle 2363" width="196" height="196" transform="translate(1073 8226)" fill="#fff" stroke="#707070" stroke-width="1"/>
    </clipPath>
  </defs>
  <g id="Mask_Group_30" data-name="Mask Group 30" transform="translate(-1073 -8226)" clip-path="url(#clip-path)">
    <g id="Layer_2" data-name="Layer 2" transform="translate(1071.6 8238.329)">
      <g id="Layer_1" data-name="Layer 1" transform="translate(0.4 0)">
        <path id="Path_423" data-name="Path 423" d="M155.121,33.956c16.171,18.72,28.666,38.526,29.877,59.5,1.169,20.976-8.984,43.164-25.155,58-16.129,14.834-38.317,22.314-57.329,19.18-18.971-3.176-34.849-16.965-54.99-31.8-20.1-14.834-44.5-30.712-43.75-45.8.71-15.126,26.576-29.5,46.716-48.262,20.14-18.72,34.515-41.785,51.6-44.5S138.992,15.236,155.121,33.956Z" transform="translate(-0.352 0)" fill="#ffddce"/>
        <path id="Path_424" data-name="Path 424" d="M21.127,66.069,32.574,53.7,44.02,41.333l4.987,16.1L54,73.528,37.56,69.8Z" transform="translate(-0.103 0.593)" fill="none" stroke="#464694" stroke-linecap="round" stroke-linejoin="round" stroke-width="0.32"/>
        <path id="Path_425" data-name="Path 425" d="M167.805,39.661l-6.4,23.323L182.458,58.9Z" transform="translate(1.91 0.569)" fill="none" stroke="#eaf0ff" stroke-linecap="round" stroke-linejoin="round" stroke-width="0.32"/>
        <path id="Path_426" data-name="Path 426" d="M36.669,41.547H90.28V97.634H36.669Z" transform="translate(0.12 0.596)" fill="#ee5a24" opacity="0.32"/>
        <path id="Path_427" data-name="Path 427" d="M55.95,35.216H160.259v75.173H55.95Z" transform="translate(0.397 0.505)" fill="#ee5a24" opacity="0.35"/>
        <path id="Path_428" data-name="Path 428" d="M120.329,54.811a13.4,13.4,0,1,1,13.4,13.4A13.4,13.4,0,0,1,120.329,54.811Z" transform="translate(1.32 0.594)" fill="#bcd3ff"/>
        <path id="Path_429" data-name="Path 429" d="M97.148,120.028a13.679,13.679,0,1,1,13.68,13.679A13.679,13.679,0,0,1,97.148,120.028Z" transform="translate(0.988 1.526)" fill="none" stroke="#0952e2" stroke-linecap="round" stroke-linejoin="round" stroke-width="0.32"/>
        <path id="Path_430" data-name="Path 430" d="M139.164,29.262v10.37h.065V50.7l-7.734-8.27H109.255V29.262Z" transform="translate(1.161 0.42)" fill="#fff"/>
        <path id="Path_431" data-name="Path 431" d="M72,46.734V57.1h-.065v11.07L79.669,59.9h22.24V46.734Z" transform="translate(0.626 0.67)" fill="#fff"/>
        <path id="Path_432" data-name="Path 432" d="M152.853,72.977c0,7.416,3.223,8.761,3.223,10.106a67.589,67.589,0,0,1-1.879,9.691c1.088,1.523,8.761,2.314,10.225,1.918.119-1.444,1.958-10.838,2.373-11.471s5.063-4.352,5.063-7.436c0-6.9-.455-16.078-5.043-16.078C161.238,59.706,152.853,62.416,152.853,72.977Z" transform="translate(1.787 0.857)" fill="#fff"/>
        <path id="Path_433" data-name="Path 433" d="M175.837,94.543a109.751,109.751,0,0,0-11.34,1.479c-.045,3.787.988,43.929,1.144,49.968h22.14l7.843-45.547a5.9,5.9,0,0,0-5.9-5.9s-9.529.138-13.228,0C176.3,94.537,176.076,94.537,175.837,94.543Z" transform="translate(1.954 1.356)" fill="#3c3744"/>
        <path id="Path_434" data-name="Path 434" d="M60.96,128.423c1.263-.7,13.464-9.726,14.131-10.57s3.062-5.67,3.263-5.984,1.482-.9,1.643-.768c.983.834-.592,3.675-.78,4.109.915-.835,6.7-5.361,7.413-5.139,5.1,1.6,3.191,8.406-.014,10.065-.877.455-5.679,2.287-6.139,2.689s-20.658,17.217-21.11,17.54C59.116,139.206,59.7,129.118,60.96,128.423Z" transform="translate(0.445 1.579)" fill="#fff"/>
        <path id="Path_435" data-name="Path 435" d="M133.458,105.274c-.869,1.287-3.067,4.5-3.937,5.749-9.352-12.3-19.034-19.429-21.575-31.571-2.461-1.566-2.319,4.022-.471,8.206-2.886,1.846-5.619,3.7-4.78,5.067,3.216,5.235,4.183,3.588,5.384,3.7s10.824,19.833,13.6,22.935c2.043,2.287,3.63,4.961,9.946,7.678.679-5.78,4.935-19.465,5.8-20.5C136.644,105.971,134.327,103.988,133.458,105.274Z" transform="translate(1.065 1.136)" fill="#fff"/>
        <path id="Path_436" data-name="Path 436" d="M136.15,107.783c-2.9-2.209-4.853-3.947-4.9-4.763-.122-1.93,11.447-18.38,19.32-13.163C153.9,92.283,141.877,112.055,136.15,107.783Z" transform="translate(1.477 1.274)" fill="#00ffcb"/>
        <path id="Path_437" data-name="Path 437" d="M142.349,89.1c2.537-1.258,5.139-1.574,7.429-.057" transform="translate(1.636 1.263)" fill="none" stroke="#1b3c87" stroke-linecap="round" stroke-linejoin="round" stroke-width="0.801"/>
        <path id="Path_438" data-name="Path 438" d="M135.532,106.881c-2.939-2.15-4.853-3.947-4.9-4.763-.053-.835,2.079-4.385,5.154-7.722" transform="translate(1.468 1.354)" fill="none" stroke="#1b3c87" stroke-linecap="round" stroke-linejoin="round" stroke-width="0.801"/>
        <path id="Path_439" data-name="Path 439" d="M157.928,88.563c-23.152.211-27.771,39.97-28.843,57.513h43.83c5.531-17.209,9.62-53.923-11.35-57.237A22.141,22.141,0,0,0,157.928,88.563Z" transform="translate(1.446 1.271)" fill="#00ffcb"/>
        <path id="Path_440" data-name="Path 440" d="M7.125,93.388a5.9,5.9,0,0,0-5.9,5.9s4.244,34.365,5.792,46.891h31.9c0-2.021-.065-44.646-.392-52.792Z" transform="translate(-0.388 1.34)" fill="#3c3744"/>
        <path id="Path_441" data-name="Path 441" d="M46.313,92c-21.227,0-25.421,37.023-24.8,54.2H60.415C63.879,129.188,64.453,92,46.313,92Z" transform="translate(-0.098 1.32)" fill="#ff6e80"/>
        <path id="Path_442" data-name="Path 442" d="M60.307,118.579a108.361,108.361,0,0,1-2.042,27.166" transform="translate(0.43 1.701)" fill="none" stroke="#141462" stroke-linecap="round" stroke-linejoin="round" stroke-width="0.801"/>
        <path id="Path_443" data-name="Path 443" d="M49.909,91.994c3.779,2.011,6.354,6.212,8.025,11.515" transform="translate(0.31 1.32)" fill="none" stroke="#141462" stroke-linecap="round" stroke-linejoin="round" stroke-width="0.801"/>
        <path id="Path_444" data-name="Path 444" d="M33.206,95.568a18.107,18.107,0,0,1,5.63-3.858" transform="translate(0.07 1.316)" fill="none" stroke="#1b3c87" stroke-linecap="round" stroke-linejoin="round" stroke-width="0.801"/>
        <path id="Path_445" data-name="Path 445" d="M60.533,127.377c1.426-.751,12.713-9.095,13.762-10.2s2.793-5.645,3.556-6.317,1.271-1.039,1.725-.539-.343,3.012-1.332,4.329a31.849,31.849,0,0,1,7.8-5.54" transform="translate(0.462 1.565)" fill="none" stroke="#141462" stroke-linecap="round" stroke-linejoin="round" stroke-width="0.801"/>
        <path id="Path_446" data-name="Path 446" d="M67.657,131.919c-3.976,3.426-7.574,6.549-8.207,7.116" transform="translate(0.447 1.893)" fill="none" stroke="#141462" stroke-linecap="round" stroke-linejoin="round" stroke-width="0.801"/>
        <path id="Path_447" data-name="Path 447" d="M85.9,118.882c-1.738.886-5.17,2.178-6.756,3.31-.453.323-2.152,1.744-4.382,3.638" transform="translate(0.667 1.706)" fill="none" stroke="#141462" stroke-linecap="round" stroke-linejoin="round" stroke-width="0.801"/>
        <path id="Path_448" data-name="Path 448" d="M80.415,114.992c.541-.448,2.218-1.647,3.89-2.728a16.489,16.489,0,0,1,3.727-2.021" transform="translate(0.748 1.582)" fill="none" stroke="#141462" stroke-linecap="round" stroke-linejoin="round" stroke-width="0.801"/>
        <path id="Path_449" data-name="Path 449" d="M81.744,116.536c.541-.448,2.218-1.647,3.89-2.728a16.553,16.553,0,0,1,3.727-2.02" transform="translate(0.767 1.604)" fill="none" stroke="#141462" stroke-linecap="round" stroke-linejoin="round" stroke-width="0.801"/>
        <path id="Path_450" data-name="Path 450" d="M82.384,118.618c.481-.4,1.97-1.485,3.454-2.461a14.669,14.669,0,0,1,3.309-1.822" transform="translate(0.776 1.64)" fill="none" stroke="#141462" stroke-linecap="round" stroke-linejoin="round" stroke-width="0.801"/>
        <path id="Path_451" data-name="Path 451" d="M166.782,82.778c-.422,1.205-2.324,10.12-2.465,11.526-1.786.643-9.136-.425-10.06-1.831a39.525,39.525,0,0,0,1.784-10.122" transform="translate(1.807 1.181)" fill="#fff"/>
        <path id="Path_452" data-name="Path 452" d="M153.713,91.684A39.526,39.526,0,0,0,155.5,81.562" transform="translate(1.799 1.17)" fill="none" stroke="#141462" stroke-linecap="round" stroke-linejoin="round" stroke-width="0.801"/>
        <path id="Path_453" data-name="Path 453" d="M166.169,81.983c-.422,1.205-2.324,10.12-2.465,11.526a13.959,13.959,0,0,1-5.164-.116" transform="translate(1.869 1.176)" fill="none" stroke="#141462" stroke-linecap="round" stroke-linejoin="round" stroke-width="0.801"/>
        <path id="Path_454" data-name="Path 454" d="M153.056,67.55a19.2,19.2,0,0,1,2.271-4.6" transform="translate(1.79 0.903)" fill="none" stroke="#141462" stroke-linecap="round" stroke-linejoin="round" stroke-width="0.801"/>
        <path id="Path_455" data-name="Path 455" d="M162.312,83.856a7.141,7.141,0,0,1-2.918-.005c-4.528-.968-7.411-6.017-7.155-11.9" transform="translate(1.778 1.032)" fill="none" stroke="#141462" stroke-linecap="round" stroke-linejoin="round" stroke-width="0.801"/>
        <path id="Path_456" data-name="Path 456" d="M164.57,89.012c16.2,7.8,12.036,41.767,6.765,57.144" transform="translate(1.955 1.277)" fill="none" stroke="#1b3c87" stroke-linecap="round" stroke-linejoin="round" stroke-width="0.801"/>
        <path id="Path_457" data-name="Path 457" d="M132.073,118.771c3.55-14.823,10.228-29.24,22.785-31.172" transform="translate(1.489 1.257)" fill="none" stroke="#141462" stroke-linecap="round" stroke-linejoin="round" stroke-width="0.801"/>
        <path id="Path_458" data-name="Path 458" d="M128.334,145.551c.2-3.534.561-8.157,1.229-13.26" transform="translate(1.435 1.898)" fill="none" stroke="#141462" stroke-linecap="round" stroke-linejoin="round" stroke-width="0.801"/>
        <path id="Path_459" data-name="Path 459" d="M169.329,130.5c.292,4.32.61,8.309.855,9.5-1.292,1.571-4.3,5.561-4.3,5.561" transform="translate(1.974 1.872)" fill="none" stroke="#141462" stroke-linecap="round" stroke-linejoin="round" stroke-width="0.801"/>
        <path id="Path_460" data-name="Path 460" d="M168.48,117.5c.037.541.145,2.44.292,4.933" transform="translate(2.011 1.686)" fill="none" stroke="#1b3c87" stroke-linecap="round" stroke-linejoin="round" stroke-width="0.801"/>
        <path id="Path_461" data-name="Path 461" d="M132.608,104.521c-.433.634-3.861,5.727-3.861,5.727s-15.331-18.141-16.37-19.563a30.063,30.063,0,0,1-4.76-10.572c-.162-1.076-.682-2.347-1.583-1.751-1.422,1.072-.492,6.554.6,8.427" transform="translate(1.105 1.122)" fill="none" stroke="#141462" stroke-linecap="round" stroke-linejoin="round" stroke-width="0.801"/>
        <path id="Path_462" data-name="Path 462" d="M104.863,87.285a9.844,9.844,0,0,0,2.306,5.169" transform="translate(1.098 1.252)" fill="none" stroke="#141462" stroke-linecap="round" stroke-linejoin="round" stroke-width="0.801"/>
        <path id="Path_463" data-name="Path 463" d="M103.221,88.941a9.837,9.837,0,0,0,2.806,4.916" transform="translate(1.075 1.276)" fill="none" stroke="#141462" stroke-linecap="round" stroke-linejoin="round" stroke-width="0.801"/>
        <path id="Path_464" data-name="Path 464" d="M101.592,90.637a9.84,9.84,0,0,0,3.1,4.738" transform="translate(1.052 1.3)" fill="none" stroke="#141462" stroke-linecap="round" stroke-linejoin="round" stroke-width="0.801"/>
        <path id="Path_465" data-name="Path 465" d="M117.079,112.715c-3.175-5.637-5.869-11.919-9.166-16.516" transform="translate(1.142 1.38)" fill="none" stroke="#141462" stroke-linecap="round" stroke-linejoin="round" stroke-width="0.801"/>
        <path id="Path_466" data-name="Path 466" d="M130.679,125.558a15.952,15.952,0,0,1-7.563-4.463" transform="translate(1.36 1.737)" fill="none" stroke="#141462" stroke-linecap="round" stroke-linejoin="round" stroke-width="0.801"/>
        <path id="Path_467" data-name="Path 467" d="M154.744,68.634c.234-1.109,1.072-1.871,1.873-1.7a1.838,1.838,0,0,1,1.028,2.313" transform="translate(1.814 0.96)" fill="none" stroke="#141462" stroke-linecap="round" stroke-linejoin="round" stroke-width="0.801"/>
        <path id="Path_468" data-name="Path 468" d="M162.309,70.39c.233-1.109,1.072-1.871,1.873-1.7A1.838,1.838,0,0,1,165.21,71" transform="translate(1.923 0.985)" fill="none" stroke="#141462" stroke-linecap="round" stroke-linejoin="round" stroke-width="0.801"/>
        <path id="Path_469" data-name="Path 469" d="M158.993,70.839a10.984,10.984,0,0,1-2.308,2.41" transform="translate(1.842 1.016)" fill="none" stroke="#141462" stroke-linecap="round" stroke-linejoin="round" stroke-width="0.801"/>
        <path id="Path_470" data-name="Path 470" d="M159.281,75.443a10.713,10.713,0,0,0,3.67-.05,3.108,3.108,0,0,1-2.8,3.9" transform="translate(1.879 1.082)" fill="none" stroke="#141462" stroke-linecap="round" stroke-linejoin="round" stroke-width="0.801"/>
        <path id="Path_471" data-name="Path 471" d="M19.575,92.481H37.429" transform="translate(-0.125 1.327)" fill="none" stroke="#141462" stroke-linecap="round" stroke-linejoin="round" stroke-width="0.801"/>
        <path id="Path_472" data-name="Path 472" d="M6.3,146.11.4,98.382a5.9,5.9,0,0,1,5.9-5.9H8.524" transform="translate(-0.4 1.327)" fill="none" stroke="#141462" stroke-linecap="round" stroke-linejoin="round" stroke-width="0.801"/>
        <path id="Path_473" data-name="Path 473" d="M187.581,93.825h-12.35" transform="translate(2.108 1.346)" fill="none" stroke="#141462" stroke-linecap="round" stroke-linejoin="round" stroke-width="0.801"/>
        <path id="Path_474" data-name="Path 474" d="M186.165,145.932l7.006-40.378" transform="translate(2.265 1.514)" fill="none" stroke="#141462" stroke-linecap="round" stroke-linejoin="round" stroke-width="0.801"/>
        <path id="Path_475" data-name="Path 475" d="M70.765,62.913l-.006,3.862,7.987-8.16h22.018V45.431H97.607" transform="translate(0.609 0.652)" fill="none" stroke="#141462" stroke-linecap="round" stroke-linejoin="round" stroke-width="0.801"/>
        <path id="Path_476" data-name="Path 476" d="M90.666,45.431H70.771V56.4" transform="translate(0.609 0.652)" fill="none" stroke="#141462" stroke-linecap="round" stroke-linejoin="round" stroke-width="0.801"/>
        <path id="Path_477" data-name="Path 477" d="M74.205,49.368H95.977" transform="translate(0.659 0.708)" fill="none" stroke="#141462" stroke-linecap="round" stroke-linejoin="round" stroke-width="0.801"/>
        <path id="Path_478" data-name="Path 478" d="M74.205,54.441h7.6" transform="translate(0.659 0.781)" fill="none" stroke="#141462" stroke-linecap="round" stroke-linejoin="round" stroke-width="0.801"/>
        <path id="Path_479" data-name="Path 479" d="M133.729,28.066h4.147V41.25l.012,8.16L129.9,41.25H107.883V39.477" transform="translate(1.142 0.403)" fill="none" stroke="#141462" stroke-linecap="round" stroke-linejoin="round" stroke-width="0.801"/>
        <path id="Path_480" data-name="Path 480" d="M107.883,34.381V28.066h16.6" transform="translate(1.142 0.403)" fill="none" stroke="#141462" stroke-linecap="round" stroke-linejoin="round" stroke-width="0.801"/>
        <path id="Path_481" data-name="Path 481" d="M134.326,32H112.555" transform="translate(1.209 0.459)" fill="none" stroke="#141462" stroke-linecap="round" stroke-linejoin="round" stroke-width="0.801"/>
        <path id="Path_482" data-name="Path 482" d="M120.292,37.075h-7.6" transform="translate(1.211 0.532)" fill="none" stroke="#141462" stroke-linecap="round" stroke-linejoin="round" stroke-width="0.801"/>
        <path id="Path_483" data-name="Path 483" d="M16.162,114.768l.022.058c-.773,1.734-7.7,21.355-7.4,22.981s1.931,4.522,3.125,5.189c.546.306,6.015,1.477,12.538,2.877H63.786c-.8-2.046-4.162-3.734-7.269-3.74a4.7,4.7,0,0,0-3.9,1.406c-11.851-5.47-25.127-8.6-28.986-9.6l-.422-1.093c1.283-2.455,5.152-9.557,5.692-10.664-2.056-1.045-12.6-7.328-12.689-7.384l-.007-.02a.059.059,0,0,1-.005.011Z" transform="translate(-0.28 1.647)" fill="#fff"/>
        <path id="Path_484" data-name="Path 484" d="M10.228,129.3c-1.169,3.684-2.029,6.718-1.916,7.316.306,1.636,1.93,4.52,3.124,5.188.661.369,8.4,2.017,16.654,3.8" transform="translate(-0.287 1.855)" fill="none" stroke="#141462" stroke-linecap="round" stroke-linejoin="round" stroke-width="0.801"/>
        <path id="Path_485" data-name="Path 485" d="M15.616,113.8c-.3.661-1.789,4.778-3.346,9.362" transform="translate(-0.23 1.633)" fill="none" stroke="#141462" stroke-linecap="round" stroke-linejoin="round" stroke-width="0.801"/>
        <path id="Path_486" data-name="Path 486" d="M28.323,121.039c-.8,1.3-6,11.12-6.128,11.531,2.458.718,17.055,3.926,29.846,9.829a4.693,4.693,0,0,1,3.9-1.406c3.587.007,7.449,1.862,7.449,4.71" transform="translate(-0.088 1.736)" fill="none" stroke="#141462" stroke-linecap="round" stroke-linejoin="round" stroke-width="0.801"/>
        <path id="Path_487" data-name="Path 487" d="M34.21,97.437c8.847,5.173-.425,24.851-2.819,25.477-4.7.325-15.537-6.467-16.58-9.216S25.481,92.332,34.21,97.437Z" transform="translate(-0.194 1.385)" fill="#ff6e80"/>
        <path id="Path_488" data-name="Path 488" d="M36.883,108.727c-1.317,6.291-4.717,12.4-6.034,12.748-4.7.325-15.537-6.467-16.58-9.217-.382-1.007.949-4.146,3.218-7.467" transform="translate(-0.202 1.503)" fill="none" stroke="#141462" stroke-linecap="round" stroke-linejoin="round" stroke-width="0.801"/>
        <path id="Path_489" data-name="Path 489" d="M22.831,98.7c3.4-2.915,7.284-4.57,10.713-2.566a6.93,6.93,0,0,1,2.893,3.308" transform="translate(-0.078 1.367)" fill="none" stroke="#141462" stroke-linecap="round" stroke-linejoin="round" stroke-width="0.801"/>
        <path id="Path_490" data-name="Path 490" d="M39.071,96.468c1.288-3.5,1.089-15.273.961-16.438-.154-1.405-1.212-11.54,1.329-13.682s6.446-4.541,8.752-4.376S59.28,69.042,59.28,77.4s-7.6,12.353-9.383,12.408c-.244,1.856-.225,6.825-.225,8.625C48.94,99.135,40.939,98.9,39.071,96.468Z" transform="translate(0.155 0.889)" fill="#fff"/>
        <path id="Path_491" data-name="Path 491" d="M40.368,72.819c-1.191-.073-2.116,1-3.111,2.027-.891-6.6,2.217-18.2,6.677-18.99.767.03.863,1.046.639,1.94,2.8-2.552,8.052-3.969,10.283-3.988a3.691,3.691,0,0,1,3.913,3.062,14.5,14.5,0,0,1-1.777,5.708,4.073,4.073,0,0,1,1.968-.555c1.487,0,1.851,2.306,1.851,2.993,0,2.4-2.54,4.84-3.8,4.84a5.3,5.3,0,0,1-2.719-1.607,3.185,3.185,0,0,1,.375,1.437c.006.647-.934,1-1.494,1-1.482,0-4.419-2.891-7.107-2.891a2.577,2.577,0,0,0-2.023,2c0,.722.378,4.133.15,4.251-.694.547-1.016-1.079-3.77-1.256" transform="translate(0.126 0.772)" fill="#fb0"/>
        <path id="Path_492" data-name="Path 492" d="M57.142,81.3c-1.717,4.244-5.226,7.153-9.276,7.153a8.888,8.888,0,0,1-5.574-2.033" transform="translate(0.201 1.166)" fill="none" stroke="#141462" stroke-linecap="round" stroke-linejoin="round" stroke-width="0.801"/>
        <path id="Path_493" data-name="Path 493" d="M56.546,68.807a14.51,14.51,0,0,1,1.512,6.766,16.535,16.535,0,0,1-.1,1.8" transform="translate(0.405 0.987)" fill="none" stroke="#141462" stroke-linecap="round" stroke-linejoin="round" stroke-width="0.801"/>
        <path id="Path_494" data-name="Path 494" d="M48.577,96.99a59.706,59.706,0,0,1,.231-8.643" transform="translate(0.29 1.267)" fill="none" stroke="#141462" stroke-linecap="round" stroke-linejoin="round" stroke-width="0.801"/>
        <path id="Path_495" data-name="Path 495" d="M39.067,89.515a26.414,26.414,0,0,1-.864,5.462c.823.965,3.03,1.7,5.327,2.049" transform="translate(0.142 1.284)" fill="none" stroke="#141462" stroke-linecap="round" stroke-linejoin="round" stroke-width="0.801"/>
        <path id="Path_496" data-name="Path 496" d="M39.049,78.863a51.348,51.348,0,0,1,.195,6.632" transform="translate(0.154 1.131)" fill="none" stroke="#141462" stroke-linecap="round" stroke-linejoin="round" stroke-width="0.801"/>
        <path id="Path_497" data-name="Path 497" d="M46.335,72.967c0-.625.269-1.131.6-1.131s.6.507.6,1.131-.269,1.131-.6,1.131S46.335,73.592,46.335,72.967Z" transform="translate(0.259 1.031)" fill="#141462"/>
        <path id="Path_498" data-name="Path 498" d="M54.752,73.413c0-.625.269-1.131.6-1.131s.6.506.6,1.131-.269,1.131-.6,1.131S54.752,74.038,54.752,73.413Z" transform="translate(0.38 1.037)" fill="#141462"/>
        <path id="Path_499" data-name="Path 499" d="M52.381,75.9a5.924,5.924,0,0,0,1.853,3.313" transform="translate(0.345 1.089)" fill="none" stroke="#141462" stroke-linecap="round" stroke-linejoin="round" stroke-width="0.801"/>
        <path id="Path_500" data-name="Path 500" d="M51.948,81.571a6.144,6.144,0,0,1-2.977-1.9c-.73.351-1.1,2.836.393,3.216" transform="translate(0.287 1.143)" fill="none" stroke="#141462" stroke-linecap="round" stroke-linejoin="round" stroke-width="0.801"/>
        <path id="Path_501" data-name="Path 501" d="M56.754,68.831a1.472,1.472,0,0,1-.482.094c-1.189,0-3.187-2-3.187-2,.449,1.1.718,1.414.718,1.863s-.561.942-1.391.965c-2.022.057-4.255-2.882-7.093-2.882a2.6,2.6,0,0,0-2.185,2.236c0,.826.26,3.2.26,3.768a.508.508,0,0,1-.372.481" transform="translate(0.211 0.959)" fill="none" stroke="#141462" stroke-linecap="round" stroke-linejoin="round" stroke-width="0.801"/>
        <path id="Path_502" data-name="Path 502" d="M52.424,53.282a10.345,10.345,0,0,1,1.36-.095c2.2,0,3.972,1.481,3.972,3.142a11.6,11.6,0,0,1-2.065,5.723,4.614,4.614,0,0,1,2.176-.673c1.608,0,1.908,1.706,1.908,2.985a5.475,5.475,0,0,1-3.154,4.664" transform="translate(0.346 0.763)" fill="none" stroke="#141462" stroke-linecap="round" stroke-linejoin="round" stroke-width="0.801"/>
        <path id="Path_503" data-name="Path 503" d="M38.883,59.77c1.447-3.035,3.137-4.645,3.921-4.645,1.514,0,1.023,1.6.962,2.107A18.635,18.635,0,0,1,49.108,54.2" transform="translate(0.152 0.778)" fill="none" stroke="#141462" stroke-linecap="round" stroke-linejoin="round" stroke-width="0.801"/>
        <path id="Path_504" data-name="Path 504" d="M36.456,70.5a29.551,29.551,0,0,1,1.306-7.9" transform="translate(0.117 0.898)" fill="none" stroke="#141462" stroke-linecap="round" stroke-linejoin="round" stroke-width="0.801"/>
        <path id="Path_505" data-name="Path 505" d="M41.061,79.318a3.616,3.616,0,1,1,2.623-5.255" transform="translate(0.123 1.035)" fill="#fff"/>
        <path id="Path_506" data-name="Path 506" d="M40.65,78.976a3.616,3.616,0,1,1,2.623-5.255" transform="translate(0.117 1.03)" fill="none" stroke="#141462" stroke-linecap="round" stroke-linejoin="round" stroke-width="0.801"/>
        <path id="Path_507" data-name="Path 507" d="M183.281,116.232c-2.647,1.359-7.73,2.153-14.162,2.377.179,3.776,1.043,15.681,1.5,22.215-1,1.46-2.463,3.367-3.628,4.854h10.953c1.715-2.761,4.085-6.72,4.437-7.664C182.924,136.565,183.076,122.526,183.281,116.232Z" transform="translate(1.99 1.668)" fill="#fff"/>
        <path id="Path_508" data-name="Path 508" d="M182.607,115.038c-.049,1.728-.535,21.34-.949,22.557a66.81,66.81,0,0,1-4.84,8.218" transform="translate(2.131 1.65)" fill="none" stroke="#141462" stroke-linecap="round" stroke-linejoin="round" stroke-width="0.801"/>
        <path id="Path_509" data-name="Path 509" d="M171.653,93.55c8.89-1.941,14.993,19.665,13.692,21.482s-17.323,4.452-18.754,3.151S164.208,95.175,171.653,93.55Z" transform="translate(1.97 1.34)" fill="#00ffcb"/>
        <path id="Path_510" data-name="Path 510" d="M173.886,117.164c-3.862.569-7.43.776-8.071.193-.839-.764-1.514-8.551-.425-15.185" transform="translate(1.959 1.466)" fill="none" stroke="#141462" stroke-linecap="round" stroke-linejoin="round" stroke-width="0.801"/>
        <path id="Path_511" data-name="Path 511" d="M172.229,92.747c8.088.516,13.462,19.878,12.234,21.594-.357.5-1.83,1.062-3.806,1.587" transform="translate(2.065 1.331)" fill="none" stroke="#141462" stroke-linecap="round" stroke-linejoin="round" stroke-width="0.801"/>
        <path id="Path_512" data-name="Path 512" d="M173.719,74.675c2.283-2.263,3.519-7.181,3.519-9.871,0-5.529-3.252-7.8-3.861-7.8s-1.248,1.279-1.15,2.174c-.549-.762-5.369-5.476-14.056-5.476-2.407,0-4.135,1.166-4.135,3.083a3.687,3.687,0,0,0,1.1,2.7,1.84,1.84,0,0,0-1.721,1.977c0,1.616,2.169,2.381,3.029,2.381a4.341,4.341,0,0,0,2.753-1.733c.192.925-.387,2.432,1.627,2.445.85.006,4.432-1.807,5.1-2.413-.68,1.169-1.616,1.706-1.616,3.029,0,1.238.606,2.1,1.541,2.1a9.85,9.85,0,0,0,4.135-1.851c.106.84-.83,6.7-.548,8.3.94.07,2.094-1.126,2.109-.145" transform="translate(1.795 0.77)" fill="#ff8c56"/>
        <path id="Path_513" data-name="Path 513" d="M163.222,62.482a11.912,11.912,0,0,0,1.944-1.166c-.68,1.169-1.616,1.706-1.616,3.029,0,1.238.606,2.1,1.541,2.1a9.868,9.868,0,0,0,4.135-1.849c.107.84-.83,6.7-.548,8.3.94.071,2.094-1.126,2.109-.145" transform="translate(1.936 0.88)" fill="none" stroke="#141462" stroke-linecap="round" stroke-linejoin="round" stroke-width="0.801"/>
        <path id="Path_514" data-name="Path 514" d="M160.125,53.136a23.07,23.07,0,0,0-2.569-.142c-2.407,0-4.135,1.166-4.135,3.083a3.688,3.688,0,0,0,1.1,2.7,1.84,1.84,0,0,0-1.721,1.977c0,1.617,2.168,2.381,3.029,2.381a4.339,4.339,0,0,0,2.753-1.733c.175.846-.295,2.181,1.169,2.411" transform="translate(1.786 0.76)" fill="none" stroke="#141462" stroke-linecap="round" stroke-linejoin="round" stroke-width="0.801"/>
        <path id="Path_515" data-name="Path 515" d="M176.141,66.882a15.011,15.011,0,0,0,.312-2.8c0-5.529-3.252-7.8-3.861-7.8s-1.247,1.279-1.15,2.174a16.046,16.046,0,0,0-6.768-4.259" transform="translate(1.957 0.777)" fill="none" stroke="#141462" stroke-linecap="round" stroke-linejoin="round" stroke-width="0.801"/>
        <path id="Path_516" data-name="Path 516" d="M172.817,73.713A10.067,10.067,0,0,0,174.8,70.62" transform="translate(2.073 1.013)" fill="none" stroke="#1b3c87" stroke-linecap="round" stroke-linejoin="round" stroke-width="0.801"/>
        <path id="Path_517" data-name="Path 517" d="M170.124,72.761a2.364,2.364,0,1,1-1.423,2.979" transform="translate(2.014 1.042)" fill="none" stroke="#141462" stroke-linecap="round" stroke-linejoin="round" stroke-width="0.801"/>
        <path id="Path_518" data-name="Path 518" d="M2.482,145.369H198.37" transform="translate(-0.37 2.086)" fill="none" stroke="#141462" stroke-linecap="round" stroke-linejoin="round" stroke-width="0.801"/>
      </g>
    </g>
  </g>
</svg>
