<svg xmlns="http://www.w3.org/2000/svg" width="123.2" height="189.996">
    <path data-name="Path 49" d="M3349.574 605.735h-.952a18.565 18.565 0 0 0-5.171-10.337v-7.028a21.4 21.4 0 0 0-12.294-19.317l-1.385-.647V541.07a12.594 12.594 0 0 0-7.8-11.674l-16.312-6.747-.018-.008-1.285-.531v-3.592a20.005 20.005 0 0 0 7.37-15.512v8.1a3.711 3.711 0 0 0 7.422 0v-16.954a3.712 3.712 0 0 0-3.711-3.711h-.011v-3.081a23.684 23.684 0 0 0-8.233-17.952l-12.033-29.108a3.71 3.71 0 0 0-6.859 0l-11.977 28.983a23.691 23.691 0 0 0-8.38 18.08v3.081h-.01a3.711 3.711 0 0 0-3.711 3.711v16.956a3.711 3.711 0 1 0 7.422 0v-8.1a20 20 0 0 0 7.37 15.512v3.592L3261.4 529.4a12.6 12.6 0 0 0-7.8 11.674v27.336l-1.384.647a21.4 21.4 0 0 0-12.294 19.317v7.026a18.559 18.559 0 0 0-5.171 10.337h-.952a3.711 3.711 0 0 0-3.711 3.711v14.843a3.711 3.711 0 0 0 3.711 3.711h25.79a3.711 3.711 0 0 0 0-7.422h-22.079v-7.421h108.357v7.421h-56.22a3.711 3.711 0 1 0 0 7.422h59.931a3.711 3.711 0 0 0 3.71-3.711v-14.845a3.711 3.711 0 0 0-3.714-3.711zm-8.523 0h-18.579a11.215 11.215 0 0 1 6.805-7.692l2.484-.977 2.484.977a11.219 11.219 0 0 1 6.806 7.692zm-61.984-102.729v-8.854a6.853 6.853 0 0 1 10.59-5.745 3.712 3.712 0 0 0 4.055 0 6.852 6.852 0 0 1 10.589 5.745v8.854a12.617 12.617 0 0 1-25.234 0zm12.617-31.962a16.342 16.342 0 0 1 16.016 13.186 792.088 792.088 0 0 1-21.775-4.354 14.233 14.233 0 0 0-10.251 4.354 16.343 16.343 0 0 1 16.01-13.186zm.047-19.612 5.291 12.8a23.565 23.565 0 0 0-10.571-.025zm-20.085 44.09h.011c0 .075-.011.149-.011.226zm-10.628 45.548a5.2 5.2 0 0 1 3.219-4.816l19.908-8.234a3.711 3.711 0 0 0 2.292-3.429v-2.248a19.987 19.987 0 0 0 10.494 0v2.248a3.708 3.708 0 0 0 1.016 2.548l-24.5 24.5v-.45a3.711 3.711 0 0 0-7.422 0v13.731a3.708 3.708 0 0 0 1.243 2.77l11.04 9.834a3.706 3.706 0 0 0 2.468.94h18.4a5.741 5.741 0 0 1-4.392 2.041h-23.582l-10.187-8.1V541.07zm-6.73 35.27a3.711 3.711 0 0 0 .71.757l12.6 10.019a3.7 3.7 0 0 0 2.309.807h24.878a13.189 13.189 0 0 0 13.174-13.174 3.712 3.712 0 0 0-3.711-3.711h-16.711l16.81-16.81a3.711 3.711 0 0 0-5.248-5.248l-19.633 19.633-6.019-5.362v-1.12l31.673-31.672 14.009 5.8a5.2 5.2 0 0 1 3.219 4.815v26.576l-6.848 6.85a3.711 3.711 0 1 0 5.248 5.248l5.023-5.023 2.248 1.051a13.952 13.952 0 0 1 8.015 12.593v2.4l-2.91-1.144a3.71 3.71 0 0 0-2.715 0l-3.841 1.51a8.469 8.469 0 0 1-16.32 0l-3.842-1.51a3.71 3.71 0 0 0-2.715 0l-3.842 1.51a8.469 8.469 0 0 1-16.319 0l-3.842-1.51a3.71 3.71 0 0 0-2.715 0l-3.842 1.51a8.469 8.469 0 0 1-16.319 0l-3.842-1.51a3.71 3.71 0 0 0-2.715 0l-2.91 1.144v-2.4a13.954 13.954 0 0 1 6.943-12.029zm60.045 29.395h-18.579a11.216 11.216 0 0 1 6.805-7.692l2.484-.977 2.484.977a11.219 11.219 0 0 1 6.806 7.692zm-26.718 0h-18.58a11.219 11.219 0 0 1 6.806-7.692l2.484-.977 2.484.977a11.219 11.219 0 0 1 6.806 7.692zm-38.492-7.692 2.484-.977 2.484.977a11.215 11.215 0 0 1 6.8 7.692h-18.579a11.219 11.219 0 0 1 6.811-7.692z" transform="translate(-3230.084 -438.004)" style="fill:#4f98f5"/>
</svg>
