<svg xmlns="http://www.w3.org/2000/svg" width="45.941" height="70.849">
    <path data-name="Path 377" d="M584.75 1267.521h-.35a6.918 6.918 0 0 0-1.929-3.855v-2.621a7.98 7.98 0 0 0-4.584-7.2l-.517-.241v-10.194a4.7 4.7 0 0 0-2.91-4.353l-6.082-2.516h-.007l-.479-.2V1235a7.462 7.462 0 0 0 2.748-5.785v3.021a1.384 1.384 0 1 0 2.767 0v-6.323a1.383 1.383 0 0 0-1.383-1.383v-1.149a8.836 8.836 0 0 0-3.07-6.7l-4.486-10.855a1.384 1.384 0 0 0-2.558 0l-4.466 10.808a8.833 8.833 0 0 0-3.125 6.742v1.149a1.384 1.384 0 0 0-1.384 1.383v6.323a1.384 1.384 0 1 0 2.768 0v-3.021a7.462 7.462 0 0 0 2.748 5.785v1.339l-6.568 2.717a4.7 4.7 0 0 0-2.911 4.353v10.196l-.516.241a7.98 7.98 0 0 0-4.584 7.2v2.621a6.918 6.918 0 0 0-1.929 3.855h-.355a1.383 1.383 0 0 0-1.383 1.384v5.535a1.383 1.383 0 0 0 1.383 1.383h9.618a1.383 1.383 0 0 0 0-2.767h-8.246v-2.768h40.407v2.768H562.4a1.383 1.383 0 0 0 0 2.767h22.35a1.383 1.383 0 0 0 1.384-1.383v-5.535a1.383 1.383 0 0 0-1.384-1.38zm-3.178 0h-6.928a4.186 4.186 0 0 1 2.538-2.869l.926-.364.926.364a4.181 4.181 0 0 1 2.538 2.869zm-23.113-38.308v-3.3a2.554 2.554 0 0 1 3.948-2.142 1.385 1.385 0 0 0 1.513 0 2.554 2.554 0 0 1 3.948 2.142v3.3a4.7 4.7 0 1 1-9.409 0zm4.7-11.919a6.1 6.1 0 0 1 5.972 4.917 300.375 300.375 0 0 1-8.12-1.623 5.309 5.309 0 0 0-3.823 1.623 6.1 6.1 0 0 1 5.975-4.917zm.018-7.313 1.973 4.774a8.8 8.8 0 0 0-3.942-.009zm-7.49 16.441v.085zm-3.963 16.985a1.938 1.938 0 0 1 1.2-1.8l7.424-3.07a1.385 1.385 0 0 0 .855-1.279v-.838a7.461 7.461 0 0 0 3.913 0v.838a1.383 1.383 0 0 0 .379.95l-9.135 9.135v-.168a1.384 1.384 0 0 0-2.768 0v5.12a1.382 1.382 0 0 0 .464 1.033l4.116 3.667a1.385 1.385 0 0 0 .921.351h6.861a2.142 2.142 0 0 1-1.637.761h-8.794l-3.8-3.02v-11.684zm-2.51 13.152a1.4 1.4 0 0 0 .265.283l4.7 3.736a1.385 1.385 0 0 0 .862.3h9.277a4.918 4.918 0 0 0 4.912-4.913 1.384 1.384 0 0 0-1.384-1.384h-6.231l6.268-6.268a1.384 1.384 0 0 0-1.957-1.957l-7.321 7.321-2.244-2v-.417l11.81-11.811 5.224 2.161a1.937 1.937 0 0 1 1.2 1.8v9.91l-2.557 2.556a1.384 1.384 0 0 0 1.957 1.958l1.874-1.874.838.392a5.2 5.2 0 0 1 2.989 4.7v.895l-1.085-.427a1.4 1.4 0 0 0-1.013 0l-1.432.564a6.975 6.975 0 0 0-3.043 2.312 6.975 6.975 0 0 0-3.043-2.312l-1.433-.564a1.392 1.392 0 0 0-1.012 0l-1.433.564a6.966 6.966 0 0 0-3.042 2.312 6.975 6.975 0 0 0-3.043-2.312l-1.433-.564a1.392 1.392 0 0 0-1.012 0l-1.433.564a6.975 6.975 0 0 0-3.043 2.312 6.973 6.973 0 0 0-3.042-2.312l-1.433-.564a1.392 1.392 0 0 0-1.012 0l-1.086.427v-.895a5.206 5.206 0 0 1 2.595-4.493zm22.391 10.962h-6.928a4.186 4.186 0 0 1 2.538-2.869l.926-.364.926.364a4.186 4.186 0 0 1 2.542 2.869zm-9.963 0h-6.928a4.182 4.182 0 0 1 2.537-2.869l.927-.364.926.364a4.186 4.186 0 0 1 2.542 2.869zm-14.354-2.869.927-.364.926.364a4.186 4.186 0 0 1 2.538 2.869h-6.929a4.186 4.186 0 0 1 2.542-2.869z" transform="translate(-540.193 -1204.974)" style="fill:#59f2f7"/>
</svg>
