<svg xmlns="http://www.w3.org/2000/svg" width="60.443" height="62.508">
    <defs>
        <style>
            .cls-1{fill:#59f2f7}
        </style>
    </defs>
    <g id="Group_131" data-name="Group 131" transform="translate(-305.404 -1213.315)">
        <g id="Group_130" data-name="Group 130">
            <path id="Path_366" data-name="Path 366" class="cls-1" d="M365.847 1260.21v-4.879a.976.976 0 1 0-1.952 0v3.435a29.082 29.082 0 0 1-11.71-8.665v-6.48H362s.976-.1.976-.976v-4.879a.976.976 0 0 0-1.952 0v3.377a26.065 26.065 0 0 1-6.284-4.109 24.86 24.86 0 0 0-1.952-1.551 10.924 10.924 0 0 1-2.332-2.186.977.977 0 0 0-.752-.41h-1.364v-3.9h7.807s.976-.2.976-.976v-4.879a.976.976 0 1 0-1.952 0v3.181l-10.188-5.943-8.733-6.831a.979.979 0 0 0-1.24 0l-7.719 6.831-11.153 6.011v-3.249a.976.976 0 1 0-1.952 0v4.879a1 1 0 0 0 .976.976h7.807v3.9H321.6a.975.975 0 0 0-.791.41 10.9 10.9 0 0 1-2.332 2.186c-.566.439-1.21.976-1.952 1.561a26.1 26.1 0 0 1-6.245 4.1v-3.377a.976.976 0 0 0-1.952 0v4.879a.988.988 0 0 0 .976.976h9.759v6.48a29.061 29.061 0 0 1-11.71 8.665v-3.435a.976.976 0 1 0-1.952 0v4.879a.936.936 0 0 0 .976.976h7.806v13.662a.976.976 0 0 0 .976.975h40.985a.976.976 0 0 0 .976-.975v-13.662h7.806a.971.971 0 0 0 .918-.976zm-25.313 13.662h-9.759v-2.928a4.88 4.88 0 0 1 9.759 0zm14.637 0h-12.686v-2.928a6.83 6.83 0 0 0-13.661 0v2.928h-12.686v-12.686h39.033zm-19.516-58.257 5.855 4.586h-11.066zm-7.563 6.538h16.081l8.363 4.879h-33.47zm-10.237 16.347a32.568 32.568 0 0 1 1.815-1.473 14.216 14.216 0 0 0 2.411-2.186h18.453a.976.976 0 1 0 0-1.952H324.92v-3.9h21.469v3.9h-1.952a.976.976 0 1 0 0 1.952h4.791a14.216 14.216 0 0 0 2.411 2.186c.566.439 1.161.9 1.815 1.473a28.214 28.214 0 0 0 4.352 3.172H313.5a28.329 28.329 0 0 0 4.352-3.172zm-2.088 17.565a31.686 31.686 0 0 0 4.743-4.635h4.41a.976.976 0 0 0 0-1.952h-3.9v-5.855h29.275v5.855h-21.471a.976.976 0 1 0 0 1.952H350.8a31.425 31.425 0 0 0 9.514 7.806h-49.328a31.343 31.343 0 0 0 4.781-3.142zm0 0"/>
        </g>
        <path id="Path_367" data-name="Path 367" class="cls-1" d="M326.872 1248.5a.976.976 0 0 0 .976-.976v-1.951a.976.976 0 0 0-1.952 0v1.951a.976.976 0 0 0 .976.976zm0 0"/>
        <path id="Path_368" data-name="Path 368" class="cls-1" d="M320.041 1268.993a.977.977 0 0 0 .976-.976v-3.9a.975.975 0 1 0-1.951 0v3.9a.976.976 0 0 0 .975.976zm0 0"/>
        <path id="Path_369" data-name="Path 369" class="cls-1" d="M324.92 1268.993a.977.977 0 0 0 .976-.976v-3.9a.975.975 0 1 0-1.951 0v3.9a.976.976 0 0 0 .975.976zm0 0"/>
        <path id="Path_370" data-name="Path 370" class="cls-1" d="M346.389 1268.993a.976.976 0 0 0 .975-.976v-3.9a.976.976 0 1 0-1.951 0v3.9a.977.977 0 0 0 .976.976zm0 0"/>
        <path id="Path_371" data-name="Path 371" class="cls-1" d="M351.268 1268.993a.977.977 0 0 0 .976-.976v-3.9a.976.976 0 1 0-1.952 0v3.9a.977.977 0 0 0 .976.976zm0 0"/>
        <path id="Path_372" data-name="Path 372" class="cls-1" d="M332.727 1248.5a.976.976 0 0 0 .976-.976v-1.951a.976.976 0 0 0-1.952 0v1.951a.976.976 0 0 0 .976.976zm0 0"/>
        <path id="Path_373" data-name="Path 373" class="cls-1" d="M338.582 1248.5a.976.976 0 0 0 .976-.976v-1.951a.976.976 0 0 0-1.952 0v1.951a.976.976 0 0 0 .976.976zm0 0"/>
        <path id="Path_374" data-name="Path 374" class="cls-1" d="M344.437 1248.5a.976.976 0 0 0 .976-.976v-1.951a.976.976 0 0 0-1.952 0v1.951a.976.976 0 0 0 .976.976zm0 0"/>
        <path id="Path_375" data-name="Path 375" class="cls-1" d="M325.9 1236.79h-.976a.976.976 0 0 0 0 1.952h.976a.976.976 0 1 0 0-1.952zm0 0"/>
        <path id="Path_376" data-name="Path 376" class="cls-1" d="M329.8 1236.79h-.976a.976.976 0 1 0 0 1.952h.976a.976.976 0 0 0 0-1.952zm0 0"/>
    </g>
</svg>
