<svg xmlns="http://www.w3.org/2000/svg" xmlns:xlink="http://www.w3.org/1999/xlink" width="192" height="96" viewBox="0 0 192 96"><defs><style>.a{fill:#fff;stroke:#707070;}.b{clip-path:url(#a);}.c{fill:none;}.d,.e{fill:#171a1c;}.d,.f{fill-rule:evenodd;}.f{fill:#ecaa20;}</style><clipPath id="a"><rect class="a" width="192" height="96" transform="translate(624 6838)"/></clipPath></defs><g class="b" transform="translate(-624 -6838)"><g transform="translate(668.888 6872.666)"><rect class="c" width="102.225" height="26.667"/><g transform="translate(0.642 0.702)"><path class="d" d="M2268.6,767.693h3.445v11.365a1.617,1.617,0,0,0,.641,1.111l1.249,1.042a2.079,2.079,0,0,0,2.836-.067l3.375-2.623,3.375,2.623a2.08,2.08,0,0,0,2.837.067l1.249-1.042a1.623,1.623,0,0,0,.641-1.111V767.693h3.445v11.365a4.446,4.446,0,0,1-.878,2.556l-1.556,1.681a6.148,6.148,0,0,1-6.889,1.243,2.262,2.262,0,0,0-4.456,0,6.149,6.149,0,0,1-6.89-1.243l-1.555-1.681a4.454,4.454,0,0,1-.878-2.556Z" transform="translate(-2268.588 -763.653)"/><path class="d" d="M2283.715,767.693h3.445v10.058l-3.445,2.719Z" transform="translate(-2275.712 -763.654)"/><path class="d" d="M2313.642,779.933l3.916,3.968a5.949,5.949,0,0,0,7.359.269l4.389-3.832v-4.909l-6.077,5.717a2.308,2.308,0,0,1-3.241,0l-2.872-2.651.1-5.015a2.457,2.457,0,0,1,2.368-2.14l3.978-.012a2.171,2.171,0,0,1,2.025,1.479l-5.873,5.38,5.2.067,4.4-4.042-.008-1.875c-.05-.948-.686-2.047-2.431-3.43a5.348,5.348,0,0,0-2.9-1.21h-5c-3.193.821-5.195,2.827-5.312,5.9Z" transform="translate(-2289.807 -763.654)"/><path class="d" d="M2399.583,779.933l3.916,3.968a5.949,5.949,0,0,0,7.359.269l4.389-3.832v-4.909l-6.077,5.717a2.308,2.308,0,0,1-3.241,0l-2.872-2.651.1-5.015a2.456,2.456,0,0,1,2.369-2.14l3.978-.012a2.17,2.17,0,0,1,2.024,1.479l-5.874,5.38,5.2.067,4.4-4.042-.008-1.875c-.05-.948-.686-2.047-2.431-3.43a5.345,5.345,0,0,0-2.9-1.21h-5c-3.192.821-5.2,2.827-5.311,5.9Z" transform="translate(-2330.28 -763.654)"/><path class="d" d="M2376.039,781.086h3.511v-15a1.953,1.953,0,0,1,.607-1.077l1.148-1.009a2.19,2.19,0,0,1,2.7-.067l3.578,2.824v-4.237l-1.688-1.547a5.52,5.52,0,0,0-5-.606,7.036,7.036,0,0,0-3.646,2.824,5.166,5.166,0,0,0-1.216,2.889Z" transform="translate(-2319.189 -760.028)"/><rect class="e" width="7.495" height="3.565" transform="translate(60.904 10.903)"/><path class="d" d="M2430.407,767.871h3.511v3.111l2.094-2.169a5.4,5.4,0,0,1,4.726-1.009c1.535.143,2.908,1.425,4.255,2.889,1.162,1.268,2.024,5.515-.271,7.734l-2.836,2.623,4.489,4.036h-5.03l-4.288-3.833v-4.942l2.464,2.454,3.038-3.027a2.316,2.316,0,0,0,0-2.556l-1.889-1.749a2.283,2.283,0,0,0-2.768.4l-3.983,4.019v9.23h-3.511Z" transform="translate(-2344.796 -763.626)"/><path class="f" d="M2344.654,779.933l3.915,3.968a5.95,5.95,0,0,0,7.36.269l4.387-3.832v-4.909l-6.077,5.717a2.308,2.308,0,0,1-3.24,0l-2.873-2.651.1-5.015a2.454,2.454,0,0,1,2.368-2.14l3.978-.012a2.172,2.172,0,0,1,2.026,1.479l-5.875,5.38,5.2.067,4.4-4.042-.008-1.875c-.049-.948-.684-2.047-2.43-3.43a5.349,5.349,0,0,0-2.9-1.21h-5c-3.192.821-5.2,2.827-5.312,5.9Z" transform="translate(-2304.41 -763.654)"/><path class="f" d="M2358.823,799.352c-4.583,3.168-9.509,3.526-14.854.437l1.654,1.749c5.879,3.19,10.706,2.451,14.922-.572Z" transform="translate(-2304.088 -778.63)"/></g></g></g></svg>