<svg xmlns="http://www.w3.org/2000/svg" xmlns:xlink="http://www.w3.org/1999/xlink" width="531.641" height="490.647" viewBox="0 0 531.641 490.647">
  <defs>
    <linearGradient id="linear-gradient" y1="0.5" x2="1" y2="0.5" gradientUnits="objectBoundingBox">
      <stop offset="0" stop-color="#383b80"/>
      <stop offset="1" stop-color="#4f98f5"/>
    </linearGradient>
    <clipPath id="clip-path">
      <rect id="Rectangle_10" data-name="Rectangle 10" width="295.568" height="277.173" rx="79.321" transform="translate(3129.735 492.162) rotate(-50.6)" fill="none"/>
    </clipPath>
    <linearGradient id="linear-gradient-2" x1="-10.804" y1="-0.016" x2="-10.804" y2="0.986" gradientUnits="objectBoundingBox">
      <stop offset="0" stop-color="#1f76cc"/>
      <stop offset="1" stop-color="#364bb3"/>
    </linearGradient>
    <linearGradient id="linear-gradient-3" x1="-16.106" y1="-0.403" x2="-16.004" y2="2.487" gradientUnits="objectBoundingBox">
      <stop offset="0.006" stop-color="gray"/>
      <stop offset="1"/>
    </linearGradient>
    <linearGradient id="linear-gradient-4" x1="19.827" y1="0.5" x2="20.74" y2="0.5" xlink:href="#linear-gradient-3"/>
    <linearGradient id="linear-gradient-5" x1="19.758" y1="-0.527" x2="19.758" y2="0.457" xlink:href="#linear-gradient-3"/>
    <linearGradient id="linear-gradient-6" x1="-46.234" y1="-5.137" x2="-46.234" y2="-2.785" gradientUnits="objectBoundingBox">
      <stop offset="0.006" stop-color="#ffaf99"/>
      <stop offset="1" stop-color="#ed6f5f"/>
    </linearGradient>
    <linearGradient id="linear-gradient-7" x1="-49.618" y1="0.503" x2="-49.618" y2="2.333" xlink:href="#linear-gradient-6"/>
  </defs>
  <g id="Group_46" data-name="Group 46" transform="translate(-3110.681 -177.445)">
    <g id="Group_44" data-name="Group 44">
      <circle id="Ellipse_3" data-name="Ellipse 3" cx="202.694" cy="202.694" r="202.694" transform="translate(3177.859 181.172)" fill="#ff5869"/>
      <g id="Group_25" data-name="Group 25" opacity="0.3">
        <path id="Path_85" data-name="Path 85" d="M3495.992,177.445h-4.777l4.777,5Z" fill="#4a8ae2"/>
        <path id="Path_86" data-name="Path 86" d="M3495.992,205.721l-27.026-28.276h-4.777l31.8,33.274Z" fill="#4a8ae2"/>
        <path id="Path_87" data-name="Path 87" d="M3495.992,234l-54.052-56.553h-4.777L3495.992,239Z" fill="#4a8ae2"/>
        <path id="Path_88" data-name="Path 88" d="M3495.992,262.274l-81.079-84.83h-4.777l85.855,89.828Z" fill="#4a8ae2"/>
        <path id="Path_89" data-name="Path 89" d="M3495.992,290.551l-108.1-113.106h-4.777l112.882,118.1Z" fill="#4a8ae2"/>
        <path id="Path_90" data-name="Path 90" d="M3495.992,318.828,3360.861,177.445h-4.777l139.908,146.381Z" fill="#4a8ae2"/>
        <path id="Path_91" data-name="Path 91" d="M3495.992,347.1l-162.157-169.66h-4.777L3495.992,352.1Z" fill="#4a8ae2"/>
        <path id="Path_92" data-name="Path 92" d="M3495.992,375.381,3306.809,177.445h-4.777l193.961,202.935Z" fill="#4a8ae2"/>
        <path id="Path_93" data-name="Path 93" d="M3495.992,403.658l-216.21-226.213h-1.593v3.332l217.8,227.88Z" fill="#4a8ae2"/>
        <path id="Path_94" data-name="Path 94" d="M3278.19,209.053l217.8,227.88v-5l-217.8-227.879Z" fill="#4a8ae2"/>
        <path id="Path_95" data-name="Path 95" d="M3278.19,237.33l217.8,227.88v-5l-217.8-227.88Z" fill="#4a8ae2"/>
        <path id="Path_96" data-name="Path 96" d="M3278.19,265.606l217.8,227.88v-5l-217.8-227.88Z" fill="#4a8ae2"/>
        <path id="Path_97" data-name="Path 97" d="M3278.19,293.883l217.8,227.88v-5l-217.8-227.88Z" fill="#4a8ae2"/>
        <path id="Path_98" data-name="Path 98" d="M3278.19,322.16l217.8,227.88v-5l-217.8-227.88Z" fill="#4a8ae2"/>
        <path id="Path_99" data-name="Path 99" d="M3278.19,350.437l217.8,227.88v-5l-217.8-227.88Z" fill="#4a8ae2"/>
        <path id="Path_100" data-name="Path 100" d="M3278.19,378.713l217.8,227.88v-5l-217.8-227.88Z" fill="#4a8ae2"/>
        <path id="Path_101" data-name="Path 101" d="M3278.19,406.99,3494.4,633.2h1.592v-3.332l-217.8-227.88Z" fill="#4a8ae2"/>
        <path id="Path_102" data-name="Path 102" d="M3278.19,435.267,3467.374,633.2h4.777L3278.19,430.269Z" fill="#4a8ae2"/>
        <path id="Path_103" data-name="Path 103" d="M3278.19,463.544,3440.347,633.2h4.777L3278.19,458.546Z" fill="#4a8ae2"/>
        <path id="Path_104" data-name="Path 104" d="M3278.19,491.82,3413.321,633.2h4.777L3278.19,486.822Z" fill="#4a8ae2"/>
        <path id="Path_105" data-name="Path 105" d="M3278.19,520.1l108.1,113.107h4.777L3278.19,515.1Z" fill="#4a8ae2"/>
        <path id="Path_106" data-name="Path 106" d="M3278.19,548.374l81.079,84.83h4.777l-85.856-89.828Z" fill="#4a8ae2"/>
        <path id="Path_107" data-name="Path 107" d="M3278.19,576.651l54.052,56.553h4.777l-58.829-61.551Z" fill="#4a8ae2"/>
        <path id="Path_108" data-name="Path 108" d="M3278.19,604.927l27.026,28.276h4.777l-31.8-33.274Z" fill="#4a8ae2"/>
        <path id="Path_109" data-name="Path 109" d="M3278.19,633.2h4.777l-4.777-5Z" fill="#4a8ae2"/>
      </g>
      <rect id="Rectangle_7" data-name="Rectangle 7" width="62.974" height="19.315" transform="translate(3176.844 247.796)" fill="#59f2f7"/>
      <rect id="Rectangle_8" data-name="Rectangle 8" width="19.315" height="19.315" transform="translate(3231.106 218.227)" fill="#59f2f7"/>
      <circle id="Ellipse_4" data-name="Ellipse 4" cx="140.04" cy="140.04" r="140.04" transform="translate(3330.629 366.447)" fill="url(#linear-gradient)" style="mix-blend-mode: multiply;isolation: isolate"/>
      <circle id="Ellipse_5" data-name="Ellipse 5" cx="43.544" cy="43.544" r="43.544" transform="translate(3552.733 372.969)" fill="none" stroke="#59f2f7" stroke-miterlimit="10" stroke-width="5"/>
      <g id="Group_43" data-name="Group 43">
        <rect id="Rectangle_9" data-name="Rectangle 9" width="295.568" height="277.173" rx="79.321" transform="translate(3129.735 492.162) rotate(-50.6)" fill="#59f2f7"/>
        <g id="Group_42" data-name="Group 42">
          <g id="Group_41" data-name="Group 41" clip-path="url(#clip-path)">
            <g id="Group_40" data-name="Group 40">
              <path id="Path_110" data-name="Path 110" d="M3324.919,411.427c-32.822,2.323-87.437,20.825-99.264,114.188,0,.012-23.829.24-23.829.24-16.668,31.358-22.6,68.985-9.05,96.551a2.392,2.392,0,0,1,3.35,1.655c.832,3.463,3.358,6.012,5.63,8.626,1.976,2.275,3.641,4.795,5.637,7.055.522.59,1.078,1.207,1.664,1.819,1.784.168,3.571.312,5.352.5,5.734.6,11.426,1.037,17.192,1.2,1.653.047,3.309.109,4.967.176a52.479,52.479,0,0,1,8.785-.645c7.426.129,14.892,1.266,22.323,1.647a2.511,2.511,0,0,1,2.09,1.182h27.845c23.794-17.573,39.632-48.807,48.67-75.707C3376.445,480.137,3396.348,406.378,3324.919,411.427Z" fill="url(#linear-gradient-2)"/>
              <path id="Path_111" data-name="Path 111" d="M3192.274,621.334a61.215,61.215,0,0,0,20.315,24.29H3269.7C3248.08,618.63,3209.186,619.478,3192.274,621.334Z" fill="#ffb850"/>
              <path id="Path_112" data-name="Path 112" d="M3324.919,411.427c-32.822,2.323-87.437,20.825-99.264,114.188,0,.012-23.829.24-23.829.24-22.11,41.6-25.345,94.229,10.763,119.767h85.022c23.794-17.573,39.632-48.807,48.67-75.707C3376.445,480.137,3396.348,406.378,3324.919,411.427Z" fill="#ce4784"/>
              <path id="Path_113" data-name="Path 113" d="M3357.938,390.2a34.989,34.989,0,0,0-13.607-1.693c-12.093,1.035-17.456,7.012-17.456,7.012L3334.6,406.3Z" fill="#1a1a1a"/>
              <path id="Path_114" data-name="Path 114" d="M3259.294,581.092q-.108-2.1-.2-4.283c-.072-1.733-.123-3.151-.169-4.587-.061-1.93-.1-3.356-.129-4.8-.041-2.063-.065-3.51-.078-4.973-.02-2.167-.028-3.649-.026-5.149.006-2.2.018-3.733.039-5.288.031-2.178.063-3.79.106-5.419.054-2.076.111-3.785.178-5.51.068-1.749.15-3.481.24-5.226.111-2.115.213-3.8.324-5.494.154-2.3.277-3.962.412-5.632.2-2.44.35-4.1.51-5.766.246-2.5.422-4.178.611-5.864.288-2.5.495-4.212.719-5.933.322-2.441.569-4.215.832-6,.344-2.29.637-4.159.952-6.034.228-1.376.484-2.723.75-4.057.078-.4.162-.79.244-1.182q.3-1.46.635-2.885c.09-.389.18-.78.271-1.166.3-1.217.6-2.423.926-3.6.385-1.409.746-2.62,1.115-3.817.112-.36.227-.713.34-1.069q.417-1.3.856-2.576c.123-.356.246-.713.371-1.067q.556-1.564,1.147-3.086c.549-1.41,1-2.491,1.455-3.557.137-.321.28-.637.42-.953q.507-1.158,1.035-2.286c.155-.328.307-.656.463-.98q.639-1.336,1.3-2.63c.705-1.369,1.227-2.326,1.754-3.27.873-1.527,1.268-2.2,1.668-2.867.176-.293.352-.588.532-.877q.7-1.152,1.434-2.266c.828-1.27,1.406-2.114,1.988-2.944.953-1.334,1.391-1.932,1.831-2.52,1.083-1.43,1.593-2.082,2.107-2.725.922-1.144,1.543-1.885,2.168-2.613.994-1.139,1.469-1.674,1.946-2.2,1.125-1.224,1.668-1.8,2.215-2.361.951-.981,1.6-1.63,2.26-2.264.992-.95,1.5-1.43,2.018-1.9,1.125-1.024,1.7-1.529,2.265-2.026.946-.816,1.62-1.381,2.3-1.931.93-.755,1.482-1.192,2.035-1.622,1.088-.838,1.7-1.3,2.3-1.742.852-.623,1.539-1.114,2.223-1.59.823-.569,1.418-.971,2.012-1.364,1-.66,1.637-1.07,2.266-1.465.731-.459,1.42-.879,2.1-1.285s1.307-.768,1.942-1.129c2.178-1.233,4.086-2.231,5.9-3.12a85.237,85.237,0,0,1,17.16-6.469l.43,8.675,7.411-3.27,10.161-3.79s68.263,4.944,87.761,76.879c17.844,65.836,12.56,159.308,12.56,159.308s-193.785.326-193.842,0Z" fill="#ce4784"/>
              <g id="Group_26" data-name="Group 26">
                <path id="Path_115" data-name="Path 115" d="M3312.427,645.05a.659.659,0,0,1-.654-.637c-.022-.893-2.325-89.687,1.75-140.615,3.19-39.935,19.893-85.139,20.061-85.592a.644.644,0,0,1,.842-.383.652.652,0,0,1,.383.841c-.17.45-16.809,45.49-19.985,85.237-4.069,50.86-1.766,139.586-1.743,140.476a.657.657,0,0,1-.634.673Z" fill="#17274e"/>
              </g>
              <path id="Path_116" data-name="Path 116" d="M3307.434,455.45c-.519,2.917.913,5.608,3.2,6.015s4.557-1.627,5.075-4.544-.912-5.606-3.2-6.012S3307.952,452.536,3307.434,455.45Z" fill="#fbfadc"/>
              <path id="Path_117" data-name="Path 117" d="M3300.033,510.357c-.414,2.932,1.112,5.571,3.409,5.9s4.5-1.788,4.91-4.72-1.113-5.571-3.41-5.895S3300.447,507.427,3300.033,510.357Z" fill="#fbfadc"/>
              <path id="Path_118" data-name="Path 118" d="M3298.047,568.857c-.217,2.953,1.482,5.485,3.8,5.655s4.366-2.087,4.583-5.04-1.485-5.483-3.8-5.653S3298.263,565.905,3298.047,568.857Z" fill="#fbfadc"/>
              <path id="Path_119" data-name="Path 119" d="M3291.573,628.575c-.205,2.807,1.412,5.213,3.612,5.375s4.151-1.982,4.358-4.791-1.412-5.214-3.612-5.376S3291.78,625.766,3291.573,628.575Z" fill="#fbfadc"/>
              <path id="Path_120" data-name="Path 120" d="M3454.81,565.182a50.144,50.144,0,0,1,13.257-9.52c3.063,35.568.686,61.308.686,61.308l-11.441.566-14.2.7A50.509,50.509,0,0,1,3454.81,565.182Z" fill="#ff7b48"/>
              <path id="Path_121" data-name="Path 121" d="M3429.461,566.692c1.809,18.768-10.591,74.677-10.591,74.677l-117.815.719c90.786-13.117,80.232-211.805,80.232-211.805S3426.449,535.454,3429.461,566.692Z" fill="url(#linear-gradient-3)" style="mix-blend-mode: soft-light;isolation: isolate"/>
              <g id="Group_27" data-name="Group 27">
                <path id="Path_122" data-name="Path 122" d="M3220.8,464.565h99.744a13.25,13.25,0,0,1,12.2,8.483l27.533,68.338c3.686,9.152-7.132,19.216-16.612,19.216l-136.983-88.654C3209.061,469.28,3216.892,464.565,3220.8,464.565Z" fill="#fbfadc"/>
                <path id="Path_123" data-name="Path 123" d="M3242.614,560.668h99.745a13.248,13.248,0,0,0,12.2-18.4l-27.53-65.215a13.247,13.247,0,0,0-12.205-8.1h-99.744a13.247,13.247,0,0,0-12.2,18.4l27.53,65.215A13.248,13.248,0,0,0,3242.614,560.668Z" fill="#d2d2d2"/>
                <path id="Path_124" data-name="Path 124" d="M3242.614,560.668h99.745a13.248,13.248,0,0,0,12.2-18.4l-27.53-65.215a13.247,13.247,0,0,0-12.205-8.1h-99.744a13.247,13.247,0,0,0-12.2,18.4l27.53,65.215A13.248,13.248,0,0,0,3242.614,560.668Z" fill="url(#linear-gradient-4)" style="mix-blend-mode: soft-light;isolation: isolate"/>
                <path id="Path_125" data-name="Path 125" d="M3278.011,511.434c2.836,4.912,2.514,10.411-.719,12.276s-8.155-.6-10.993-5.516-2.516-10.411.718-12.279S3275.173,506.517,3278.011,511.434Z" fill="#fbfadc"/>
              </g>
              <path id="Path_126" data-name="Path 126" d="M3439.884,654.938c3.167-3.015,9.552-3.46,13.7-3.546a2.3,2.3,0,0,1,2.008.951,208.51,208.51,0,0,0,20.809-8.819c4.309-2.139,7.054-5.048,9.9-8.847,2.633-3.518,5.475-6.911,7.964-10.53,2.91-4.233,4.315-8.91,6.278-13.6,1.947-4.658,4.158-9.2,6.243-13.8a2.085,2.085,0,0,1,2.678-1.221c3.457-20.7-.293-46.236-15.088-76.013-35.086-70.628-71-97.278-135.819-113.391l20.823,38.421c16,29.611,20.225,42.616,20.2,68.674l-23.741,6.29c-27.665,96.068,17.528,137.989,62.879,137.309A4.485,4.485,0,0,1,3439.884,654.938Z" fill="#ce4784"/>
              <path id="Path_127" data-name="Path 127" d="M3436.659,656.821c33.069.415,66.78-21.931,72.931-62.567C3456.66,591.8,3439.052,648.142,3436.659,656.821Z" fill="#07c8fb"/>
              <path id="Path_128" data-name="Path 128" d="M3376.484,618.113c22.008,14.126,61.08,30.732,98.319,7.25,46.017-29.017,18.623-99.82,9.438-124.97q5.1,8.986,10.136,19.12C3558.566,648.718,3414.871,698.14,3376.484,618.113Z" fill="url(#linear-gradient-5)" style="mix-blend-mode: soft-light;isolation: isolate"/>
              <g id="Group_28" data-name="Group 28">
                <path id="Path_129" data-name="Path 129" d="M3471.159,599.192c-4.721-34.654-16.918-38.889-31.037-43.788-13.671-4.743-29.167-10.125-41.129-42.39a.651.651,0,1,1,1.222-.451c11.75,31.685,26.939,36.957,40.337,41.608,14.535,5.044,27.086,9.4,31.26,44.289a.66.66,0,0,1-.575.727C3471.208,599.188,3471.183,599.192,3471.159,599.192Z" fill="#17274e"/>
              </g>
              <g id="Group_31" data-name="Group 31">
                <path id="Path_130" data-name="Path 130" d="M3207.248,543.141c5.161,8.757,23.191,4.793,26.238,3.529.65-.269,1.151-.478,1.467-.588a6.907,6.907,0,0,0,4.872-7.9,5.741,5.741,0,0,0-2.145-3.737,5.25,5.25,0,0,0,1.531-1.553,8.28,8.28,0,0,0,.729-7.405,5.037,5.037,0,0,0-2.407-2.737c.063-.507.137-.966.174-1.191.561-3.567-.769-7.7-4.4-8.7a10.147,10.147,0,0,0-4.6.14c-3.4.631-9.958,1.686-12.978,1.262-2.658-.373-3.694-6.835-3.694-6.835C3211.364,507.166,3192.948,518.868,3207.248,543.141Z" fill="url(#linear-gradient-6)"/>
                <g id="Group_29" data-name="Group 29">
                  <path id="Path_131" data-name="Path 131" d="M3219.178,526.51a47.384,47.384,0,0,1-6.763-.475,62.019,62.019,0,0,0,24.929-3.745C3237.631,523.252,3229.642,526.51,3219.178,526.51Z" fill="#17274e"/>
                </g>
                <g id="Group_30" data-name="Group 30">
                  <path id="Path_132" data-name="Path 132" d="M3221.26,538.49a52.227,52.227,0,0,1-8.191-.664c15.364,1.439,24.752-3.815,24.845-3.872C3238.092,535,3231.88,538.49,3221.26,538.49Z" fill="#17274e"/>
                </g>
              </g>
              <path id="Path_133" data-name="Path 133" d="M3352.166,359.857a102.681,102.681,0,0,1-2.176,11.188c-1.8.274-3.693-1.548-5.447-4.178A15.649,15.649,0,0,0,3352.166,359.857Z" fill="#1a1a1a"/>
              <g id="Group_32" data-name="Group 32">
                <path id="Path_134" data-name="Path 134" d="M3352.7,338.352c-2.048-16.426-11.135-15.217-18.393-14.5-12.051-10.5-31.813,3.034-37.321,9.085-4.714,5.177-2.588,14.891-1,18.555.158.364,5.6,6.962,5.6,6.962L3300.414,353c22.061-5.158,26.122-16.033,26.122-16.033,3.384,11.914,9.062,14.074,10.6,14.449,2.456-3.227,7.64-8.741,12.969-5.249a8.185,8.185,0,0,1,3,3.433A69.865,69.865,0,0,0,3352.7,338.352Z" fill="#1a1a1a"/>
              </g>
              <path id="Path_135" data-name="Path 135" d="M3357.074,400.047c-.007-.012-6.25-25.565-8.7-35.585a16.4,16.4,0,0,0,3.791-4.605c1.833-3.368,2.364-7.206.942-10.259a8.177,8.177,0,0,0-3-3.432c-5.329-3.493-10.513,2.021-12.73,4.93-1.776-.057-7.454-2.217-10.838-14.131a54.848,54.848,0,0,0-14.787,4.895c-4.76,2.5-11.388,10.658-11.388,10.658,3.3,15.941,7.667,38.567,15.447,41.171,3.086,1.034,8.385.4,13.03-.881l4.062,16.215s4.626,3.381,14.766-2.291C3357.3,401.342,3357.116,400.153,3357.074,400.047Z" fill="#fff"/>
              <path id="Path_136" data-name="Path 136" d="M3321.631,356.442a1.032,1.032,0,0,1-1.263-.791l-.477-2.668a1,1,0,0,1,.809-1.162,1.032,1.032,0,0,1,1.262.79l.476,2.669A1,1,0,0,1,3321.631,356.442Z" fill="#17274e"/>
              <path id="Path_137" data-name="Path 137" d="M3306.485,359.73a1.034,1.034,0,0,1-1.264-.791l-.476-2.671a1,1,0,0,1,.808-1.16,1.029,1.029,0,0,1,1.262.791l.479,2.668A1.009,1.009,0,0,1,3306.485,359.73Z" fill="#17274e"/>
              <g id="Group_33" data-name="Group 33">
                <path id="Path_138" data-name="Path 138" d="M3313.365,370.157c-8.47-.1-8.79-1.37-8.9-1.786-.312-1.252,2.79-10.876,4.137-14.957a.668.668,0,0,1,.827-.416.656.656,0,0,1,.416.827c-2.09,6.313-4.194,13.374-4.106,14.257.449.352,4.33.729,7.628.766a.655.655,0,0,1-.006,1.309Z" fill="#17274e"/>
              </g>
              <g id="Group_35" data-name="Group 35">
                <path id="Path_139" data-name="Path 139" d="M3326.875,395.523l7.9,7.311,23.162-12.63,10.592,18.707L3353,422.485a8.828,8.828,0,0,1-12.445-.818l-5.867-6.679-6.89,6.81a3.426,3.426,0,0,1-5.741-1.633l-2.049-8.511Z" fill="#ce4784"/>
                <g id="Group_34" data-name="Group 34">
                  <path id="Path_140" data-name="Path 140" d="M3334.688,415.643a.661.661,0,0,1-.655-.661l.088-12.151a.654.654,0,1,1,1.309.011l-.088,12.152A.653.653,0,0,1,3334.688,415.643Z" fill="#17274e"/>
                </g>
              </g>
              <g id="Group_36" data-name="Group 36">
                <path id="Path_141" data-name="Path 141" d="M3318.957,379.252c-2.75,0-5.254-4.36-5.559-4.909a.653.653,0,0,1,1.143-.633c.718,1.287,3.182,4.821,4.872,4.147,1.949-.758,1.328-4.932.921-6.476a.653.653,0,0,1,1.264-.332c.073.272,1.719,6.691-1.709,8.027A2.57,2.57,0,0,1,3318.957,379.252Z" fill="#17274e"/>
              </g>
              <path id="Path_142" data-name="Path 142" d="M3334.309,323.85s-3.036-7.929-11.82-9.28-18.809,5.407-18.809,5.407S3321.288,317.373,3334.309,323.85Z" fill="#1a1a1a"/>
              <path id="Path_143" data-name="Path 143" d="M3334.205,324.014l14.2-11.208S3347.369,326.214,3334.205,324.014Z" fill="#1a1a1a"/>
              <path id="Path_144" data-name="Path 144" d="M3395.947,487.73c-2.039-3.94-17.766-9.318-25.169-13.387-5.675-3.121-11.98-4.172-13.279-1.76-2,3.714,3.522,9.078,10.839,12.613-2.779-.256-4.639,2.075-4.3,5.249a3.106,3.106,0,0,0,.617,1.422c-2.647-.608-5.2,2.07-5.079,4.823a8.753,8.753,0,0,0,3.665,6.391c.959.7,3.819,2.662,4.854,3.252,0,0,4.754,9.63,7.335,13.8,0,0,3.024,1.893,12.474-.826s11.675-6.091,11.675-6.091S3399.3,494.213,3395.947,487.73Z" fill="url(#linear-gradient-7)"/>
              <g id="Group_37" data-name="Group 37">
                <path id="Path_145" data-name="Path 145" d="M3382.666,490.087c-4.918-3.893-14.7-4.6-14.795-4.608.483-.967,10.261-.259,15.112,3.722C3382.951,490.023,3382.811,490.087,3382.666,490.087Z" fill="#17274e"/>
              </g>
              <g id="Group_38" data-name="Group 38">
                <path id="Path_146" data-name="Path 146" d="M3377.539,496.869c-3.624-3.725-13.338-4.59-13.433-4.6.5-.959,10.282-.088,13.8,3.76C3377.781,496.824,3377.66,496.869,3377.539,496.869Z" fill="#17274e"/>
              </g>
              <g id="Group_39" data-name="Group 39">
                <path id="Path_147" data-name="Path 147" d="M3368.094,506.836c-5.9-6.812-6.061-8.554-5.979-8.929.994.295,1.227,1.934,6.362,8.108C3368.321,506.8,3368.205,506.836,3368.094,506.836Z" fill="#17274e"/>
              </g>
              <path id="Path_148" data-name="Path 148" d="M3320.01,411.654l2.049,8.511s-.885,5.608,5.741,1.633" fill="none" stroke="#17274e" stroke-linecap="round" stroke-miterlimit="10" stroke-width="1.145"/>
              <path id="Path_149" data-name="Path 149" d="M3339.8,416.35l8.609,8.319,20.12-15.757" fill="none" stroke="#17274e" stroke-linecap="round" stroke-miterlimit="10" stroke-width="1.145"/>
              <path id="Path_150" data-name="Path 150" d="M3346.769,348.446s3.572,1.523,2.424,4.525-2.575,7.977-4.923,9.125" fill="none" stroke="#17274e" stroke-linecap="round" stroke-linejoin="round" stroke-width="1.145"/>
            </g>
          </g>
        </g>
      </g>
    </g>
    <path id="Path_151" data-name="Path 151" d="M3485.761,271.593l14.727-14.727a4.009,4.009,0,0,0-5.67-5.67l-14.727,14.727L3465.364,251.2a4.009,4.009,0,0,0-5.67,5.67l14.726,14.727-14.726,14.727a4.009,4.009,0,0,0,5.67,5.67l14.727-14.726,14.727,14.726a4.009,4.009,0,0,0,5.67-5.67Z" fill="#59f2f7"/>
    <g id="Group_45" data-name="Group 45">
      <path id="Path_152" data-name="Path 152" d="M3197.89,349.193a13.674,13.674,0,0,0-13.628-13.643l-59.924-.034a13.676,13.676,0,0,0-13.643,13.629l-.014,25.489a13.676,13.676,0,0,0,13.628,13.643l58.455.032,15.1,10.986.013-23.562-.056.046c.029-.363.056-.727.056-1.1Zm-46.253,26.133-25.709-.014a1.7,1.7,0,1,1,0-3.409l25.708.015a1.7,1.7,0,1,1,0,3.408Zm25.715-11.348-51.418-.029a1.7,1.7,0,0,1,0-3.409l51.418.029a1.7,1.7,0,0,1,0,3.409Zm.006-11.363-51.418-.029a1.7,1.7,0,0,1,0-3.409l51.418.029a1.7,1.7,0,0,1,0,3.409Z" fill="url(#linear-gradient)" style="mix-blend-mode: multiply;isolation: isolate"/>
      <path id="Path_153" data-name="Path 153" d="M3197.633,278.6l-47.038-.026a10.735,10.735,0,0,0-10.71,10.7l-.011,20.008c0,.291.02.576.043.861l-.044-.036-.01,18.5,11.862-8.611,45.886.026a10.735,10.735,0,0,0,10.709-10.7l.011-20.008A10.735,10.735,0,0,0,3197.633,278.6ZM3176.17,310.2l-20.181-.011a1.7,1.7,0,0,1,0-3.409l20.181.011a1.7,1.7,0,1,1,0,3.409Zm20.186-8.908-40.362-.023a1.7,1.7,0,0,1,0-3.409l40.362.023a1.7,1.7,0,1,1,0,3.409Zm.005-8.921L3156,292.346a1.7,1.7,0,0,1,0-3.409l40.362.022a1.7,1.7,0,1,1,0,3.409Z" fill="url(#linear-gradient)" style="mix-blend-mode: multiply;isolation: isolate"/>
    </g>
    <rect id="Rectangle_11" data-name="Rectangle 11" width="38.073" height="38.073" transform="translate(3374.254 230.424)" fill="#59f2f7"/>
  </g>
</svg>
