<svg xmlns="http://www.w3.org/2000/svg" width="59.669" height="56.087" viewBox="0 0 59.669 56.087">
    <defs>
        <style>
            .cls-1{fill:#1a1a60}
        </style>
    </defs>
    <g id="_003-pura-ulun-danu-bratan" transform="translate(0 -15.327)">
        <path id="Path_6576" d="M124.066 479.328h-.895a.923.923 0 1 0 0 1.846h.895a.923.923 0 1 0 0-1.846z" class="cls-1" transform="translate(-107.955 -409.761)"/>
        <path id="Path_6577" d="M58.734 61.418H53.4a.935.935 0 0 0-.935.935V65.8h-3.857v-3.033h1.183a.935.935 0 0 0 .935-.935v-6.8H53.4a.935.935 0 0 0 .885-1.236l-.859-2.519a5.163 5.163 0 0 0-5.15-3.372H44.46v-3.366a.935.935 0 1 0-1.87 0v3.368h-3.612a5.517 5.517 0 0 0-4.665 2.308.935.935 0 0 0 1.57 1.014 3.7 3.7 0 0 1 3.095-1.453h9.3a3.353 3.353 0 0 1 3.357 2.03c.01.035-.03-.082.462 1.358H33.931a.935.935 0 1 0 0 1.87h2.394v6.8a.935.935 0 0 0 .935.935h1.183V65.8h-9.29v-7.834a.935.935 0 0 0-1.87 0V65.8h-3.446v-7.834a.935.935 0 0 0-.935-.935h-4.888a.935.935 0 0 0-.935.935V65.8h-3.466V55.034h17.809a.935.935 0 0 0 .885-1.236l-.859-2.519a5.1 5.1 0 0 0-4.835-3.364v-2.833H29.8a.935.935 0 0 0 .885-1.236l-.859-2.519a5.1 5.1 0 0 0-4.835-3.364v-2.421h3.057a.935.935 0 0 0 .855-1.313l-.841-1.9a5.109 5.109 0 0 0-4.823-3.321V27.83a.935.935 0 0 0-1.87 0v1.052h-1.836V25.61h7.342a.935.935 0 0 0 .855-1.313l-.841-1.9a5.176 5.176 0 0 0-5.138-3.33h-.367v-2.8a.935.935 0 0 0-1.87 0v2.8h-.445a5.131 5.131 0 0 0-5.169 3.417l-.749 1.837a.935.935 0 0 0 .866 1.288h3.641V29a5.08 5.08 0 0 0-4.926 3.414l-.749 1.837a.935.935 0 0 0 .866 1.288h10.267v2.412h-6.969a5.12 5.12 0 0 0-5.174 3.459l-.765 2.455a.935.935 0 0 0 .892 1.213h3.184v2.829a5.069 5.069 0 0 0-4.937 3.455l-.765 2.455a.935.935 0 0 0 .892 1.213h2.269v10.775H7.2v-.117a.935.935 0 1 0-1.87 0v3.856H1.869v-6.256h4.4a.935.935 0 1 0 0-1.87H.935a.935.935 0 0 0-.935.935v8.126a.935.935 0 0 0 .935.935h11.743a.935.935 0 1 0 0-1.87H7.2v-1.87h45.26v1.87H18.812a.935.935 0 1 0 0 1.87h39.922a.935.935 0 0 0 .935-.935v-8.126a.935.935 0 0 0-.935-.935zM15.7 23.009a3.318 3.318 0 0 1 3.368-2.074h2.682a3.353 3.353 0 0 1 3.357 2.03 7.467 7.467 0 0 0 .332.774H15.412a6.61 6.61 0 0 0 .288-.73zm-1.168 9.932a3.318 3.318 0 0 1 3.368-2.073h5.019a3.353 3.353 0 0 1 3.357 2.03 7.47 7.47 0 0 0 .332.774H14.244a6.609 6.609 0 0 0 .288-.731zm7.63 12.14a.935.935 0 1 0 0-1.87h-9.791l.394-1.265a3.337 3.337 0 0 1 3.382-2.123h8.524a3.353 3.353 0 0 1 3.357 2.03c.011.039-.021-.057.462 1.358h-3.329a.935.935 0 0 0-.419 1.77v2.809h-8.588v-2.708zM11.139 51.9a3.337 3.337 0 0 1 3.382-2.123H26.3a3.353 3.353 0 0 1 3.357 2.03c.011.039-.027-.074.462 1.358H10.745zm29.173 10.867h2.045a.935.935 0 1 0 0-1.87h-4.162v-5.863h10.661V60.9h-3.812a.935.935 0 0 0 0 1.87h1.694v3.03h-6.426zM18.948 58.9h3.019v6.9h-3.019zM57.8 69.544h-3.466v-6.256H57.8z" class="cls-1"/>
    </g>
</svg>
