<svg xmlns="http://www.w3.org/2000/svg" xmlns:xlink="http://www.w3.org/1999/xlink" width="1440" height="826" viewBox="0 0 1440 826"><defs><style>.a{fill:#fff;}.a,.d{stroke:#fff;}.b{fill:#050534;}.c{clip-path:url(#a);}.d{fill:none;stroke-dasharray:4;}.e{clip-path:url(#b);}.f{filter:url(#c);}</style><clipPath id="a"><rect class="a" width="182" height="184" transform="translate(0 3922)"/></clipPath><clipPath id="b"><rect class="a" width="468" height="542" transform="translate(0.462)"/></clipPath><filter id="c" x="1110.04" y="-222.788" width="611.267" height="577.133" filterUnits="userSpaceOnUse"><feOffset dy="3" input="SourceAlpha"/><feGaussianBlur stdDeviation="24.5" result="d"/><feFlood flood-color="#00ffcb"/><feComposite operator="in" in2="d"/><feComposite in="SourceGraphic"/></filter></defs><g transform="translate(0 -3295)"><rect class="b" width="1440" height="825" transform="translate(0 3295)"/><g class="c" transform="translate(0 15)"><g transform="translate(-50.383 3934.46)"><g transform="translate(28.117)"><path class="d" d="M-913.333,1658.5c68.875,9.308,106.253-31.365,136.3-2.327s-3.372,55.849,29.38,67.949-14.189,80.05-14.189,80.05" transform="translate(923.809 -1638.911)"/><path class="d" d="M-913.333,1658.5c68.875,9.308,106.253-31.365,136.3-2.327s-3.372,55.849,29.38,67.949-14.189,80.05-14.189,80.05" transform="translate(913.333 -1629.406)"/><path class="d" d="M-913.333,1658.5c68.875,9.308,106.253-31.365,136.3-2.327s-3.372,55.849,29.38,67.949-18.41,91.817-18.41,91.817" transform="translate(932.479 -1645.543)"/></g><g transform="translate(0 24.151)"><path class="d" d="M-913.333,1658.5c68.875,9.308,106.253-31.365,136.3-2.327s-3.372,55.849,29.38,67.949-14.189,80.05-14.189,80.05" transform="translate(923.809 -1638.911)"/><path class="d" d="M-913.333,1658.5c68.875,9.308,106.253-31.365,136.3-2.327s-3.372,55.849,29.38,67.949-14.189,80.05-14.189,80.05" transform="translate(913.333 -1629.406)"/><path class="d" d="M-913.333,1658.5c68.875,9.308,106.253-31.365,136.3-2.327s-3.372,55.849,29.38,67.949-18.41,91.817-18.41,91.817" transform="translate(932.479 -1645.543)"/></g></g><g transform="translate(-105.576 3982.761)"><g transform="translate(28.117)"><path class="d" d="M-913.333,1658.5c68.875,9.308,106.253-31.365,136.3-2.327s-3.372,55.849,29.38,67.949-14.189,80.05-14.189,80.05" transform="translate(923.809 -1638.911)"/><path class="d" d="M-913.333,1658.5c68.875,9.308,106.253-31.365,136.3-2.327s-3.372,55.849,29.38,67.949-14.189,80.05-14.189,80.05" transform="translate(913.333 -1629.406)"/><path class="d" d="M-913.333,1658.5c68.875,9.308,106.253-31.365,136.3-2.327s-3.372,55.849,29.38,67.949-18.41,91.817-18.41,91.817" transform="translate(932.479 -1645.543)"/></g><g transform="translate(0 24.151)"><path class="d" d="M-913.333,1658.5c68.875,9.308,106.253-31.365,136.3-2.327s-3.372,55.849,29.38,67.949-14.189,80.05-14.189,80.05" transform="translate(923.809 -1638.911)"/><path class="d" d="M-913.333,1658.5c68.875,9.308,106.253-31.365,136.3-2.327s-3.372,55.849,29.38,67.949-14.189,80.05-14.189,80.05" transform="translate(913.333 -1629.406)"/><path class="d" d="M-913.333,1658.5c68.875,9.308,106.253-31.365,136.3-2.327s-3.372,55.849,29.38,67.949-18.41,91.817-18.41,91.817" transform="translate(932.479 -1645.543)"/></g></g></g><g class="e" transform="translate(971.538 3295)"><g transform="translate(17.809 -83.643)"><g transform="translate(0 65.367)"><path class="d" d="M-449.635,2039.824c-180.135-25.194-277.894,84.895-356.491,6.3s8.818-151.162-76.841-183.914,37.109-216.666,37.109-216.666" transform="translate(934.277 -1619.817)"/><path class="d" d="M-449.635,2039.824c-180.135-25.194-277.894,84.895-356.491,6.3s8.818-151.162-76.841-183.914,37.109-216.666,37.109-216.666" transform="translate(961.675 -1645.542)"/><path class="d" d="M-451.365,2071.672c-180.135-25.194-277.894,84.9-356.491,6.3s8.818-151.162-76.841-183.914,48.149-248.514,48.149-248.514" transform="translate(913.333 -1633.715)"/></g><g transform="translate(73.538)"><path class="d" d="M-449.635,2039.824c-180.135-25.194-277.894,84.895-356.491,6.3s8.818-151.162-76.841-183.914,37.109-216.666,37.109-216.666" transform="translate(934.277 -1619.817)"/><path class="d" d="M-449.635,2039.824c-180.135-25.194-277.894,84.895-356.491,6.3s8.818-151.162-76.841-183.914,37.109-216.666,37.109-216.666" transform="translate(961.675 -1645.542)"/><path class="d" d="M-451.365,2071.672c-180.135-25.194-277.894,84.9-356.491,6.3s8.818-151.162-76.841-183.914,48.149-248.514,48.149-248.514" transform="translate(913.333 -1633.715)"/></g></g><g transform="translate(164.161 -217.377)"><g transform="translate(0 65.367)"><path class="d" d="M-449.635,2039.824c-180.135-25.194-277.894,84.895-356.491,6.3s8.818-151.162-76.841-183.914,37.109-216.666,37.109-216.666" transform="translate(934.277 -1619.817)"/><g class="f" transform="matrix(1, 0, 0, 1, -1135.7, 152.01)"><path class="d" d="M-449.635,2039.824c-180.135-25.194-277.894,84.895-356.491,6.3s8.818-151.162-76.841-183.914,37.109-216.666,37.109-216.666" transform="translate(2097.37 -1797.55)"/></g><path class="d" d="M-451.365,2071.672c-180.135-25.194-277.894,84.9-356.491,6.3s8.818-151.162-76.841-183.914,48.149-248.514,48.149-248.514" transform="translate(913.333 -1633.715)"/></g><g transform="translate(73.538)"><path class="d" d="M-449.635,2039.824c-180.135-25.194-277.894,84.895-356.491,6.3s8.818-151.162-76.841-183.914,37.109-216.666,37.109-216.666" transform="translate(934.277 -1619.817)"/><path class="d" d="M-449.635,2039.824c-180.135-25.194-277.894,84.895-356.491,6.3s8.818-151.162-76.841-183.914,37.109-216.666,37.109-216.666" transform="translate(961.675 -1645.542)"/><path class="d" d="M-451.365,2071.672c-180.135-25.194-277.894,84.9-356.491,6.3s8.818-151.162-76.841-183.914,48.149-248.514,48.149-248.514" transform="translate(913.333 -1633.715)"/></g></g></g></g></svg>