<svg xmlns="http://www.w3.org/2000/svg" xmlns:xlink="http://www.w3.org/1999/xlink" width="192" height="19.896" viewBox="0 0 192 19.896"><defs><style>.a{fill:#9b65c3;}.a,.b,.c,.d,.e,.f,.g,.h,.i,.j,.k,.l,.m,.n,.o{fill-rule:evenodd;}.b{fill:#be63c5;}.c{fill:#bf63c6;}.d{fill:#3278b2;}.e{fill:#45a4ec;}.f{fill:#19bb7d;}.g{fill:#07c7fb;}.h{fill:#59f2f7;}.i{fill:#da3757;}.j{fill:#d33c4e;}.k{fill:#ee5a24;}.l{fill:#8bdf55;}.m{fill:#25c16f;}.n{fill:#fb0;}.o{fill:#ffa800;}.p{fill:url(#a);}.q{fill:url(#b);}.r{fill:url(#c);}.s{fill:url(#d);}.t{fill:#3a3985;}</style><linearGradient id="a" x1="-0.618" y1="0.5" x2="4.418" y2="0.5" gradientUnits="objectBoundingBox"><stop offset="0" stop-color="#3499ff"/><stop offset="1" stop-color="#3a3985"/></linearGradient><linearGradient id="b" x1="-2.05" x2="2.723" xlink:href="#a"/><linearGradient id="c" x1="-3.786" x2="1.432" xlink:href="#a"/><linearGradient id="d" x1="-0.009" x2="0.974" xlink:href="#a"/></defs><g transform="translate(-49.032 -16.637)"><g transform="translate(49.032 16.637)"><g transform="translate(0 0)"><path class="a" d="M.159,12.065a9.916,9.916,0,0,0,2.8,5.558L6.355,14.23a9.94,9.94,0,0,1,4.969-8.615Z" transform="translate(-0.045 -0.644)"/><path class="a" d="M6.356,15.064a9.9,9.9,0,0,1-4.975-1.328h0A10.077,10.077,0,0,1,.16,12.9a9.912,9.912,0,0,0,2.8,5.555Z" transform="translate(-0.045 -1.479)"/><path class="b" d="M6.719,14.7h0L3.327,18.092A9.92,9.92,0,0,0,8.884,20.9L15.335,9.727A9.94,9.94,0,0,1,6.72,14.7" transform="translate(-0.409 -1.115)"/><path class="c" d="M8.049,20.319a9.9,9.9,0,0,1-1.331-4.974L3.327,18.737a9.912,9.912,0,0,0,5.557,2.8,10.012,10.012,0,0,1-.835-1.221Z" transform="translate(-0.409 -1.759)"/><path class="d" d="M1.383,12.9a9.9,9.9,0,0,0,4.974,1.331,9.939,9.939,0,0,1,4.972-8.615L.158,12.064a10.085,10.085,0,0,0,1.225.833Z" transform="translate(-0.045 -0.644)"/><path class="e" d="M1.369,5.616A9.9,9.9,0,0,0,.031,10.59h0a9.964,9.964,0,0,0,.11,1.474L11.312,5.615a9.942,9.942,0,0,1-9.944,0" transform="translate(-0.031 -0.644)"/><path class="f" d="M19.369.729A2.7,2.7,0,0,0,19.16.542a2.544,2.544,0,0,0-.308-.208A2.469,2.469,0,0,0,17.612,0H10.15A9.94,9.94,0,0,0,1.532,4.973a9.938,9.938,0,0,0,9.944,0A9.939,9.939,0,0,0,6.5,13.587,9.939,9.939,0,0,0,15.12,8.616L19.554.944a2.7,2.7,0,0,0-.187-.209" transform="translate(-0.203 0)"/><path class="g" d="M11.487,5.016,19.162.586a2.453,2.453,0,0,0-.308-.208L1.542,5.016a9.939,9.939,0,0,0,9.944,0" transform="translate(-0.204 -0.043)"/><path class="h" d="M17.613,0H10.15A9.941,9.941,0,0,0,1.532,4.973L18.848.334A2.471,2.471,0,0,0,17.608,0" transform="translate(-0.204 0)"/><path class="i" d="M15.771,8.71,20.2,1.037a2.578,2.578,0,0,0-.187-.21L7.159,13.68A9.9,9.9,0,0,0,8.49,18.654h0a10.04,10.04,0,0,0,.832,1.221,10.01,10.01,0,0,0,1.476.109,9.9,9.9,0,0,0,4.974-1.337,9.938,9.938,0,0,1,0-9.944" transform="translate(-0.848 -0.094)"/><path class="j" d="M7.158,14.7h0a9.907,9.907,0,0,0,1.331,4.975h0A10.1,10.1,0,0,0,9.321,20.9L15.772,9.725A9.94,9.94,0,0,1,7.157,14.7" transform="translate(-0.847 -1.115)"/><path class="k" d="M16.05,9.731,9.6,20.9a10.011,10.011,0,0,0,1.476.109h0a9.9,9.9,0,0,0,4.974-1.337,9.939,9.939,0,0,1,0-9.944" transform="translate(-1.128 -1.115)"/><path class="l" d="M20.41,1.321a2.606,2.606,0,0,0-.208-.308A2.552,2.552,0,0,0,20.014.8a2.429,2.429,0,0,0-.209-.191L12.131,5.044a9.939,9.939,0,0,0-4.972,8.615,9.939,9.939,0,0,0,8.619-4.971,9.939,9.939,0,0,0,0,9.944,9.94,9.94,0,0,0,4.973-8.612V2.558a2.47,2.47,0,0,0-.337-1.237" transform="translate(-0.848 -0.07)"/><path class="m" d="M19.805.613,12.131,5.044a9.94,9.94,0,0,0-4.972,8.615h0L20.015.8a2.446,2.446,0,0,0-.209-.189" transform="translate(-0.848 -0.07)"/><path class="l" d="M7.159,13.68a9.94,9.94,0,0,0,8.615-4.97L20.2,1.036a2.434,2.434,0,0,0-.187-.209Z" transform="translate(-0.848 -0.094)"/><path class="n" d="M21.144,1.06,16.712,8.734a9.94,9.94,0,0,0,0,9.944L21.354,1.367a2.542,2.542,0,0,0-.208-.308" transform="translate(-1.791 -0.121)"/><path class="o" d="M16.886,18.72a9.94,9.94,0,0,0,4.973-8.609V2.646a2.462,2.462,0,0,0-.334-1.24Z" transform="translate(-1.963 -0.161)"/></g></g><g transform="translate(75.784 16.975)"><g transform="translate(109.253 0)"><path class="p" d="M317.933,182.714v12.378h-2.584V177.514h2.03l9.361,12.676v-12.64h2.6V195.1h-2.152Z" transform="translate(-315.349 -177.514)"/><path class="q" d="M352,177.514l4.542,6.931,4.541-6.931h2.832l-5.994,8.912,5.81,8.666H360.9l-4.357-6.674-4.357,6.674H349.31l5.832-8.666-5.994-8.912Z" transform="translate(-327.538 -177.514)"/><path class="r" d="M395.3,179.965h-5.441v15.127h-2.605V179.965H381.8v-2.451H395.3Z" transform="translate(-339.309 -177.514)"/></g><g transform="translate(0 0.417)"><rect class="s" width="95.653" height="2.142" transform="translate(0 15.422)"/><path class="t" d="M316.842,146.348l2.193,3.118,2.2-3.118H322.6l-2.895,4.007,2.805,3.9h-1.366l-2.108-3.007-2.1,3.007h-1.381l2.819-3.9-2.911-4.007Z" transform="translate(-304.651 -146.296)"/><path class="t" d="M328.142,154.254v-7.907h3.321a2.171,2.171,0,0,1,.985.223,2.551,2.551,0,0,1,.775.584,2.837,2.837,0,0,1,.507.826,2.551,2.551,0,0,1,.182.944,2.753,2.753,0,0,1-.657,1.789,2.359,2.359,0,0,1-.752.577,2.135,2.135,0,0,1-.972.217h-2.139v2.753Zm1.247-3.855h2.06a1.052,1.052,0,0,0,.485-.109,1.1,1.1,0,0,0,.373-.319,1.559,1.559,0,0,0,.245-.472,1.831,1.831,0,0,0,.09-.59,1.705,1.705,0,0,0-.1-.6,1.382,1.382,0,0,0-.281-.463,1.275,1.275,0,0,0-.405-.3,1.123,1.123,0,0,0-.463-.083H329.4Z" transform="translate(-306.517 -146.296)"/><path class="t" d="M350.68,154.254v-7.907h3.44a2.171,2.171,0,0,1,.985.223,2.48,2.48,0,0,1,.775.577,2.706,2.706,0,0,1,.507.826,2.484,2.484,0,0,1,.185.944,2.667,2.667,0,0,1-.112.769,2.747,2.747,0,0,1-.319.679,2.14,2.14,0,0,1-.491.539,1.972,1.972,0,0,1-.638.341l1.862,3.007h-1.416l-1.715-2.753h-1.817v2.753Zm1.247-3.855h2.184a1.023,1.023,0,0,0,.485-.115,1.168,1.168,0,0,0,.373-.319,1.7,1.7,0,0,0,.245-.472,1.839,1.839,0,0,0,.089-.567,1.536,1.536,0,0,0-.109-.567,1.626,1.626,0,0,0-.278-.472,1.337,1.337,0,0,0-.4-.319,1.031,1.031,0,0,0-.472-.115h-2.117Z" transform="translate(-309.833 -146.296)"/><path class="t" d="M362.575,154.254v-7.906h1.245v7.907Z" transform="translate(-311.584 -146.296)"/><path class="t" d="M381.776,148.688v5.567h-1.247v-7.906h.975l4.524,5.7v-5.691h1.259v7.9h-1.036Z" transform="translate(-314.226 -146.296)"/><path class="t" d="M393.221,150.238a4.143,4.143,0,0,1,.258-1.422,3.927,3.927,0,0,1,.749-1.275,3.825,3.825,0,0,1,1.208-.909,3.67,3.67,0,0,1,1.617-.345,3.434,3.434,0,0,1,1.85.478,3.147,3.147,0,0,1,1.157,1.247l-.979.66a2.207,2.207,0,0,0-.4-.6,1.967,1.967,0,0,0-.513-.389,2.16,2.16,0,0,0-.577-.207,2.868,2.868,0,0,0-.58-.061,2.276,2.276,0,0,0-1.09.249,2.477,2.477,0,0,0-.787.663,3,3,0,0,0-.478.924,3.365,3.365,0,0,0-.163,1.023,3.164,3.164,0,0,0,.191,1.1,2.939,2.939,0,0,0,.529.924,2.583,2.583,0,0,0,.806.638,2.231,2.231,0,0,0,1.023.236,2.6,2.6,0,0,0,.6-.07,2.282,2.282,0,0,0,.59-.236,2.438,2.438,0,0,0,.526-.405,2.1,2.1,0,0,0,.393-.59l1.033.59a2.39,2.39,0,0,1-.533.787,3.408,3.408,0,0,1-.781.574,4.064,4.064,0,0,1-.918.357,3.965,3.965,0,0,1-.957.121,3.255,3.255,0,0,1-1.524-.357,3.955,3.955,0,0,1-1.193-.927,4.282,4.282,0,0,1-.778-1.3A4.091,4.091,0,0,1,393.221,150.238Z" transform="translate(-316.094 -146.286)"/><rect class="t" width="5.423" height="1.103" transform="translate(2.203 6.856)"/><rect class="t" width="5.423" height="1.103" transform="translate(2.203 3.454)"/><rect class="t" width="5.423" height="1.103" transform="translate(2.203 0.049)"/><rect class="t" width="5.423" height="1.103" transform="translate(31.349 6.856)"/><rect class="t" width="5.423" height="1.103" transform="translate(31.349 3.454)"/><rect class="t" width="5.423" height="1.103" transform="translate(31.349 0.049)"/><rect class="t" width="5.423" height="1.103" transform="translate(56.812 6.856)"/><rect class="t" width="5.423" height="1.103" transform="translate(56.812 3.454)"/><rect class="t" width="5.423" height="1.103" transform="translate(56.812 0.049)"/><rect class="t" width="5.423" height="1.103" transform="translate(88.03 6.856)"/><rect class="t" width="5.423" height="1.103" transform="translate(88.03 3.454)"/><rect class="t" width="5.423" height="1.103" transform="translate(88.03 0.049)"/></g></g></g></svg>