<svg xmlns="http://www.w3.org/2000/svg" xmlns:xlink="http://www.w3.org/1999/xlink" width="192" height="96" viewBox="0 0 192 96"><defs><style>.a,.c{fill:#fff;}.a{stroke:#707070;}.b{clip-path:url(#a);}.d{fill:#646969;}.e{fill:url(#b);}</style><clipPath id="a"><rect class="a" width="192" height="96" transform="translate(848 6710)"/></clipPath><linearGradient id="b" x1="0.255" y1="0.199" x2="0.865" y2="0.807" gradientUnits="objectBoundingBox"><stop offset="0.25" stop-color="#00b5e2"/><stop offset="0.569" stop-color="#1d5bcd"/><stop offset="0.753" stop-color="#2e26c0"/></linearGradient></defs><g class="b" transform="translate(-848 -6710)"><g transform="translate(894.974 6723.546)"><path class="c" d="M129.274,32.736a14.526,14.526,0,0,0-3.109-.879,54.066,54.066,0,0,0-8.982-.765V11.788h-.845a10.454,10.454,0,0,0-10.123,7.789c-.148.063-.3.126-.438.192-2.981,1.376-4.648,3.27-4.712,5.347a16.1,16.1,0,0,0-2.8.908,4.9,4.9,0,0,0-1.348.845,1.73,1.73,0,0,0,0,2.713,4.947,4.947,0,0,0,1.348.845,19.944,19.944,0,0,0,4.305,1.233A74.936,74.936,0,0,0,115.5,32.751V46.506h.852a7.742,7.742,0,0,0,7.383-5.641c.07-.03.142-.07.21-.1,2.151-.993,3.375-2.375,3.476-3.9a11.363,11.363,0,0,0,1.853-.607c1.038-.464,1.566-1.057,1.566-1.759S130.312,33.2,129.274,32.736Zm-25.62-9.517a8.215,8.215,0,0,1,2.235-1.629c-.014.222-.023.445-.023.669a10.484,10.484,0,0,0,.192,2c-1.162.14-2.255.3-3.263.491A3.347,3.347,0,0,1,103.654,23.22Zm-.343,6.869c-4.45-.8-5.251-1.7-5.364-1.862.094-.138.665-.779,3.412-1.452a7.569,7.569,0,0,0,3.714,3.594C104.461,30.284,103.871,30.19,103.311,30.089Zm3.168-.9a8.94,8.94,0,0,1-2.826-1.922,4.018,4.018,0,0,1-.607-.853l.265-.049c.989-.178,2.064-.333,3.205-.466.055.146.11.292.171.436a10.431,10.431,0,0,0,2.244,3.328c.212.212.434.413.661.605A17.989,17.989,0,0,1,106.48,29.19Zm9.019,1.821a8.791,8.791,0,0,1-7.236-5.289c2.25-.2,4.636-.318,7.236-.339Zm0-7.309c-2.753.022-5.361.152-7.759.38a8.615,8.615,0,0,1-.069-3.271,24.978,24.978,0,0,1,7.829-1.376Zm0-5.947a28.1,28.1,0,0,0-7.269,1.1,8.809,8.809,0,0,1,7.269-5.346Zm1.682,14.879h.074a6.013,6.013,0,0,1,4.522,3.472c-1.448.118-2.913.189-4.6.208V32.635Zm0,12.056V42.2a20.83,20.83,0,0,0,4.417-.623A5.86,5.86,0,0,1,117.182,44.691Zm5.04-4.854a22.627,22.627,0,0,1-5.039.682V37.9c1.836-.02,3.493-.1,5.07-.244a6.2,6.2,0,0,1,.089,1A6.328,6.328,0,0,1,122.221,39.837Zm1.267-3.9a7.648,7.648,0,0,0-1.713-2.606c-.154-.154-.316-.3-.481-.44a7.853,7.853,0,0,1,2.079.586,5.211,5.211,0,0,1,2.331,2.146l-.113.02C124.936,35.759,124.231,35.856,123.489,35.942Zm.522,3.228c.007-.137.012-.273.012-.41a7.763,7.763,0,0,0-.108-1.283c.728-.09,1.417-.194,2.057-.311A3.817,3.817,0,0,1,124.011,39.17Zm3.138-3.824a5.243,5.243,0,0,0-2-2.207c.149.023.3.046.439.07,2.624.447,3.915,1.008,3.915,1.264C129.506,34.673,128.724,35,127.149,35.346Z" transform="translate(-44.58)"/><g transform="translate(11.79 11.788)"><g transform="translate(0 24.702)"><path class="d" d="M15.609,68.17c-1.141-.314-1.358-.614-1.358-1.056,0-.55.457-.877,1.223-.877a4.19,4.19,0,0,1,2.562.934l.323.231V64.925l-.1-.06a5.179,5.179,0,0,0-2.853-.766c-2.233,0-3.619,1.189-3.619,3.1,0,1.73.866,2.632,2.984,3.116,1.288.339,1.641.595,1.641,1.186s-.462.876-1.375.876a4.814,4.814,0,0,1-2.8-1.039l-.327-.247v2.55l.09.061a5.85,5.85,0,0,0,3.075.812c2.389,0,3.815-1.167,3.815-3.122C18.9,69.614,17.945,68.68,15.609,68.17Z" transform="translate(-11.79 -64.099)"/><path class="d" d="M33.231,64.1a6.642,6.642,0,0,0-3.214.8l-.1.059v2.329l.3-.172a5.165,5.165,0,0,1,2.667-.751c.609,0,1.633.17,1.633,1.309v.6h-.855c-2.99,0-4.635,1.1-4.635,3.1,0,1.424.782,3.122,4.506,3.122a14.422,14.422,0,0,0,3.338-.4l.152-.04V67.57C37.024,65.3,35.712,64.1,33.231,64.1Zm1.287,8.308a7.425,7.425,0,0,1-.964.079c-1.328,0-2-.4-2-1.18,0-.993,1.229-1.2,2.26-1.2h.7Z" transform="translate(-20.888 -64.101)"/><path class="d" d="M76.363,74.759a17.052,17.052,0,0,0,3.768-.438l.154-.039V64.558H77.76v7.918a11.148,11.148,0,0,1-1.44.1c-1.429,0-2.066-.537-2.066-1.741V64.558H71.728v6.43C71.728,73.56,73.2,74.759,76.363,74.759Z" transform="translate(-43.424 -64.341)"/><path class="d" d="M96.421,66.894a4.041,4.041,0,0,1,1.4-.24,4.851,4.851,0,0,1,1.763.288l.278.109V64.52l-.151-.04a6.76,6.76,0,0,0-1.89-.245,8.065,8.065,0,0,0-3.84.977l-.1.059v9.1h2.548Z" transform="translate(-55.112 -64.171)"/><path class="d" d="M111.657,64.1a6.648,6.648,0,0,0-3.214.8l-.1.059v2.329l.3-.172a5.162,5.162,0,0,1,2.666-.751c.611,0,1.634.17,1.634,1.309v.6h-.855c-2.99,0-4.635,1.1-4.635,3.1,0,1.424.782,3.122,4.506,3.122a14.422,14.422,0,0,0,3.338-.4l.152-.04V67.57C115.45,65.3,114.138,64.1,111.657,64.1Zm1.287,8.308a7.425,7.425,0,0,1-.964.079c-1.328,0-2-.4-2-1.18,0-.993,1.229-1.2,2.26-1.2h.7v2.3Z" transform="translate(-62.28 -64.101)"/><path class="d" d="M53.209,64.1a10.886,10.886,0,0,0-3.416.573l-.138.047V78.194h2.526V74.441a6.866,6.866,0,0,0,1.028.077c3.38,0,5.479-2.042,5.479-5.328C58.688,66.051,56.588,64.1,53.209,64.1Zm-.129,8.171a4.57,4.57,0,0,1-.9-.089V66.51a6.677,6.677,0,0,1,1.006-.078,2.644,2.644,0,0,1,2.931,2.823A2.756,2.756,0,0,1,53.079,72.273Z" transform="translate(-31.774 -64.101)"/><path class="d" d="M59.5,91.767a2.787,2.787,0,0,0,.208,5.566,3.342,3.342,0,0,0,1.864-.493l.046-.033V95.544l-.169.111a2.816,2.816,0,0,1-1.661.479,1.463,1.463,0,0,1-1.534-1.215h3.55v-.686A2.173,2.173,0,0,0,59.5,91.767Zm-1.193,2.2a1.2,1.2,0,0,1,1.158-1.018.959.959,0,0,1,1.04,1.018Z" transform="translate(-35.61 -78.702)"/><path class="d" d="M71.611,91.6a6.969,6.969,0,0,0-2.384.447l-.069.027v4.978h1.361v-4.07a3.952,3.952,0,0,1,1-.123c.665,0,.989.293.989.9v3.3h1.35v-3.4C73.857,92.266,73.123,91.6,71.611,91.6Z" transform="translate(-42.068 -78.612)"/><path class="d" d="M83.344,91.6a2.787,2.787,0,0,0,.208,5.566,3.342,3.342,0,0,0,1.864-.493l.046-.033V95.373l-.169.111a2.816,2.816,0,0,1-1.661.479A1.463,1.463,0,0,1,82.1,94.749h3.55v-.686A2.174,2.174,0,0,0,83.344,91.6Zm-1.193,2.2a1.2,1.2,0,0,1,1.158-1.018.959.959,0,0,1,1.04,1.018Z" transform="translate(-48.193 -78.612)"/><path class="d" d="M115.288,95.659l-1.379-3.818h-1.462l2.157,5.458-.758,1.957H115.2l2.857-7.415h-1.414Z" transform="translate(-64.916 -78.741)"/><path class="d" d="M105.433,91.9a5.789,5.789,0,0,0-1.816-.3A2.611,2.611,0,0,0,100.7,94.3a2.568,2.568,0,0,0,2.809,2.725,1.854,1.854,0,0,0,.649-.127,1.114,1.114,0,0,1-1.242,1.166,3.324,3.324,0,0,1-1.635-.437l-.161-.087v1.3l.063.029a4.2,4.2,0,0,0,1.733.368,2.307,2.307,0,0,0,2.592-2.327l-.006-4.989Zm-1.887,3.941c-1.006,0-1.474-.478-1.474-1.506a1.4,1.4,0,0,1,1.557-1.5,3.6,3.6,0,0,1,.533.041v2.83A1.67,1.67,0,0,1,103.546,95.841Z" transform="translate(-58.718 -78.612)"/><path class="d" d="M95.349,91.669a4.311,4.311,0,0,0-2.052.522l-.056.032v4.863H94.6v-4a2.154,2.154,0,0,1,.746-.128,2.578,2.578,0,0,1,.943.154l.148.059V91.823l-.081-.021A3.563,3.563,0,0,0,95.349,91.669Z" transform="translate(-54.778 -78.65)"/></g><g transform="translate(39.886)"><path class="e" d="M129.274,32.736a14.526,14.526,0,0,0-3.109-.879,54.066,54.066,0,0,0-8.982-.765V11.788h-.845a10.454,10.454,0,0,0-10.123,7.789c-.148.063-.3.126-.438.192-2.981,1.376-4.648,3.27-4.712,5.347a16.1,16.1,0,0,0-2.8.908,4.9,4.9,0,0,0-1.348.845,1.73,1.73,0,0,0,0,2.713,4.947,4.947,0,0,0,1.348.845,19.944,19.944,0,0,0,4.305,1.233A74.936,74.936,0,0,0,115.5,32.751V46.506h.852a7.742,7.742,0,0,0,7.383-5.641c.07-.03.142-.07.21-.1,2.151-.993,3.375-2.375,3.476-3.9a11.363,11.363,0,0,0,1.853-.607c1.038-.464,1.566-1.057,1.566-1.759S130.312,33.2,129.274,32.736Zm-25.62-9.517a8.215,8.215,0,0,1,2.235-1.629c-.014.222-.023.445-.023.669a10.484,10.484,0,0,0,.192,2c-1.162.14-2.255.3-3.263.491A3.347,3.347,0,0,1,103.654,23.22Zm-.343,6.869c-4.45-.8-5.251-1.7-5.364-1.862.094-.138.665-.779,3.412-1.452a7.569,7.569,0,0,0,3.714,3.594C104.461,30.284,103.871,30.19,103.311,30.089Zm3.168-.9a8.94,8.94,0,0,1-2.826-1.922,4.018,4.018,0,0,1-.607-.853l.265-.049c.989-.178,2.064-.333,3.205-.466.055.146.11.292.171.436a10.431,10.431,0,0,0,2.244,3.328c.212.212.434.413.661.605A17.989,17.989,0,0,1,106.48,29.19Zm9.019,1.821a8.791,8.791,0,0,1-7.236-5.289c2.25-.2,4.636-.318,7.236-.339Zm0-7.309c-2.753.022-5.361.152-7.759.38a8.615,8.615,0,0,1-.069-3.271,24.978,24.978,0,0,1,7.829-1.376Zm0-5.947a28.1,28.1,0,0,0-7.269,1.1,8.809,8.809,0,0,1,7.269-5.346Zm1.682,14.879h.074a6.013,6.013,0,0,1,4.522,3.472c-1.448.118-2.913.189-4.6.208V32.635Zm0,12.056V42.2a20.83,20.83,0,0,0,4.417-.623A5.86,5.86,0,0,1,117.182,44.691Zm5.04-4.854a22.627,22.627,0,0,1-5.039.682V37.9c1.836-.02,3.493-.1,5.07-.244a6.2,6.2,0,0,1,.089,1A6.328,6.328,0,0,1,122.221,39.837Zm1.267-3.9a7.648,7.648,0,0,0-1.713-2.606c-.154-.154-.316-.3-.481-.44a7.853,7.853,0,0,1,2.079.586,5.211,5.211,0,0,1,2.331,2.146l-.113.02C124.936,35.759,124.231,35.856,123.489,35.942Zm.522,3.228c.007-.137.012-.273.012-.41a7.763,7.763,0,0,0-.108-1.283c.728-.09,1.417-.194,2.057-.311A3.817,3.817,0,0,1,124.011,39.17Zm3.138-3.824a5.243,5.243,0,0,0-2-2.207c.149.023.3.046.439.07,2.624.447,3.915,1.008,3.915,1.264C129.506,34.673,128.724,35,127.149,35.346Z" transform="translate(-96.256 -11.788)"/></g></g></g></g></svg>