<svg xmlns="http://www.w3.org/2000/svg" xmlns:xlink="http://www.w3.org/1999/xlink" width="400" height="313.727" viewBox="0 0 400 313.727">
  <defs>
    <clipPath id="clip-path">
      <path id="Path_263" data-name="Path 263" d="M0,0H400V313.727H0Z" transform="translate(0 2981.273)" fill="#f9f9fe"/>
    </clipPath>
    <clipPath id="clip-path-2">
      <rect id="Rectangle_2146" data-name="Rectangle 2146" width="1440" height="820" fill="#fff"/>
    </clipPath>
    <filter id="Path_40" x="133" y="157.895" width="136.833" height="136.833" filterUnits="userSpaceOnUse">
      <feOffset dy="3" input="SourceAlpha"/>
      <feGaussianBlur stdDeviation="16" result="blur"/>
      <feFlood flood-color="#2bc06b" flood-opacity="0.639"/>
      <feComposite operator="in" in2="blur"/>
      <feComposite in="SourceGraphic"/>
    </filter>
    <filter id="Path_41" x="105.417" y="-41.273" width="221.167" height="221.167" filterUnits="userSpaceOnUse">
      <feOffset dy="3" input="SourceAlpha"/>
      <feGaussianBlur stdDeviation="32" result="blur-2"/>
      <feFlood flood-color="#e55623"/>
      <feComposite operator="in" in2="blur-2"/>
      <feComposite in="SourceGraphic"/>
    </filter>
    <filter id="Path_42" x="292.333" y="70.061" width="131.667" height="131" filterUnits="userSpaceOnUse">
      <feOffset dy="3" input="SourceAlpha"/>
      <feGaussianBlur stdDeviation="16" result="blur-3"/>
      <feFlood flood-color="#fb0" flood-opacity="0.639"/>
      <feComposite operator="in" in2="blur-3"/>
      <feComposite in="SourceGraphic"/>
    </filter>
  </defs>
  <g id="Mask_Group_25" data-name="Mask Group 25" transform="translate(0 -2981.273)" clip-path="url(#clip-path)">
    <path id="Path_262" data-name="Path 262" d="M184.825-.1C286.9-.151,369.606,82.06,369.552,183.527S286.706,367.292,184.63,367.346-.151,285.188-.1,183.722,82.749-.044,184.825-.1Z" transform="matrix(0.996, 0.087, -0.087, 0.996, -171.521, 3019.938)" fill="none" stroke="#0952e2" stroke-linecap="round" stroke-width="48" stroke-dasharray="192"/>
    <g id="Group_363" data-name="Group 363" transform="translate(181 3033)">
      <path id="Path_39" data-name="Path 39" d="M31.583,0A31.583,31.583,0,1,1,0,31.583,31.583,31.583,0,0,1,31.583,0Z" transform="translate(60.166 67.5)" fill="none" stroke="#de717d" stroke-width="16"/>
      <g transform="matrix(1, 0, 0, 1, -181, -51.73)" filter="url(#Path_40)">
        <path id="Path_40-2" data-name="Path 40" d="M20.416,0A20.416,20.416,0,1,1,0,20.416,20.416,20.416,0,0,1,20.416,0Z" transform="translate(181 202.89)" fill="#2bc06b"/>
      </g>
      <g transform="matrix(1, 0, 0, 1, -181, -51.73)" filter="url(#Path_41)">
        <path id="Path_41-2" data-name="Path 41" d="M14.583,0A14.583,14.583,0,1,1,0,14.583,14.583,14.583,0,0,1,14.583,0Z" transform="translate(201.42 51.73)" fill="#ee5a24"/>
      </g>
      <g transform="matrix(1, 0, 0, 1, -181, -51.73)" filter="url(#Path_42)">
        <path id="Path_42-2" data-name="Path 42" d="M12.833,0A12.67,12.67,0,0,1,25.667,12.5,12.67,12.67,0,0,1,12.833,25,12.67,12.67,0,0,1,0,12.5,12.67,12.67,0,0,1,12.833,0Z" transform="translate(345.33 120.06)" fill="none" stroke="#fb0" stroke-width="10"/>
      </g>
    </g>
  </g>
</svg>
