<svg xmlns="http://www.w3.org/2000/svg" width="126" height="126" viewBox="0 0 126 126"><defs><style>.a,.c,.f{fill:none;}.a,.b,.c{stroke:#00ffcb;}.a{stroke-dasharray:4;}.b,.d{fill:#00ffcb;}.e{stroke:none;}</style></defs><g transform="translate(224.667 -75.333)"><g class="a" transform="translate(-224.667 75.333)"><circle class="e" cx="19.5" cy="19.5" r="19.5"/><circle class="f" cx="19.5" cy="19.5" r="19"/></g><g class="b" transform="translate(-174.667 103.333)"><circle class="e" cx="5.5" cy="5.5" r="5.5"/><circle class="f" cx="5.5" cy="5.5" r="5"/></g><g class="c" transform="translate(-152.667 103.333)"><circle class="e" cx="5.5" cy="5.5" r="5.5"/><circle class="f" cx="5.5" cy="5.5" r="5"/></g><g class="c" transform="translate(-131.667 103.333)"><circle class="e" cx="5.5" cy="5.5" r="5.5"/><circle class="f" cx="5.5" cy="5.5" r="5"/></g><g class="c" transform="translate(-109.667 103.333)"><circle class="e" cx="5.5" cy="5.5" r="5.5"/><circle class="f" cx="5.5" cy="5.5" r="5"/></g><g class="c" transform="translate(-196.667 125.333)"><circle class="e" cx="5.5" cy="5.5" r="5.5"/><circle class="f" cx="5.5" cy="5.5" r="5"/></g><g class="c" transform="translate(-174.667 125.333)"><circle class="e" cx="5.5" cy="5.5" r="5.5"/><circle class="f" cx="5.5" cy="5.5" r="5"/></g><g class="c" transform="translate(-152.667 125.333)"><circle class="e" cx="5.5" cy="5.5" r="5.5"/><circle class="f" cx="5.5" cy="5.5" r="5"/></g><g class="c" transform="translate(-131.667 125.333)"><circle class="e" cx="5.5" cy="5.5" r="5.5"/><circle class="f" cx="5.5" cy="5.5" r="5"/></g><g class="c" transform="translate(-109.667 125.333)"><circle class="e" cx="5.5" cy="5.5" r="5.5"/><circle class="f" cx="5.5" cy="5.5" r="5"/></g><circle class="d" cx="8.5" cy="8.5" r="8.5" transform="translate(-213.667 86.333)"/><g class="c" transform="translate(-174.667 147.333)"><circle class="e" cx="5.5" cy="5.5" r="5.5"/><circle class="f" cx="5.5" cy="5.5" r="5"/></g><g class="c" transform="translate(-152.667 147.333)"><circle class="e" cx="5" cy="5" r="5"/><circle class="f" cx="5" cy="5" r="4.5"/></g><g class="c" transform="translate(-131.667 147.333)"><ellipse class="e" cx="5.5" cy="5" rx="5.5" ry="5"/><ellipse class="f" cx="5.5" cy="5" rx="5" ry="4.5"/></g><g class="c" transform="translate(-109.667 147.333)"><ellipse class="e" cx="5.5" cy="5" rx="5.5" ry="5"/><ellipse class="f" cx="5.5" cy="5" rx="5" ry="4.5"/></g><g class="c" transform="translate(-196.667 168.333)"><circle class="e" cx="5.5" cy="5.5" r="5.5"/><circle class="f" cx="5.5" cy="5.5" r="5"/></g><g class="c" transform="translate(-174.667 168.333)"><circle class="e" cx="5.5" cy="5.5" r="5.5"/><circle class="f" cx="5.5" cy="5.5" r="5"/></g><g class="c" transform="translate(-152.667 168.333)"><ellipse class="e" cx="5" cy="5.5" rx="5" ry="5.5"/><ellipse class="f" cx="5" cy="5.5" rx="4.5" ry="5"/></g><g class="c" transform="translate(-131.667 168.333)"><circle class="e" cx="5.5" cy="5.5" r="5.5"/><circle class="f" cx="5.5" cy="5.5" r="5"/></g><g class="c" transform="translate(-109.667 168.333)"><circle class="e" cx="5.5" cy="5.5" r="5.5"/><circle class="f" cx="5.5" cy="5.5" r="5"/></g><g class="c" transform="translate(-196.667 190.333)"><circle class="e" cx="5.5" cy="5.5" r="5.5"/><circle class="f" cx="5.5" cy="5.5" r="5"/></g><g class="c" transform="translate(-174.667 190.333)"><circle class="e" cx="5.5" cy="5.5" r="5.5"/><circle class="f" cx="5.5" cy="5.5" r="5"/></g><g class="c" transform="translate(-152.667 190.333)"><ellipse class="e" cx="5" cy="5.5" rx="5" ry="5.5"/><ellipse class="f" cx="5" cy="5.5" rx="4.5" ry="5"/></g><g class="c" transform="translate(-131.667 190.333)"><circle class="e" cx="5.5" cy="5.5" r="5.5"/><circle class="f" cx="5.5" cy="5.5" r="5"/></g><g class="c" transform="translate(-109.667 190.333)"><circle class="e" cx="5.5" cy="5.5" r="5.5"/><circle class="f" cx="5.5" cy="5.5" r="5"/></g></g></svg>