<svg xmlns="http://www.w3.org/2000/svg" width="201" height="201" viewBox="0 0 201 201"><defs><style>.a{fill:#ff8c56;}.b,.d{fill:none;}.b{stroke:#fff;}.c{stroke:none;}</style></defs><g transform="translate(197 -103)"><circle class="a" cx="9" cy="9" r="9" transform="translate(-197 103)"/><ellipse class="a" cx="8.5" cy="9" rx="8.5" ry="9" transform="translate(-162 103)"/><ellipse class="a" cx="8" cy="9" rx="8" ry="9" transform="translate(-127 103)"/><g class="b" transform="translate(-94 103)"><circle class="c" cx="8.5" cy="8.5" r="8.5"/><circle class="d" cx="8.5" cy="8.5" r="8"/></g><circle class="a" cx="8.5" cy="8.5" r="8.5" transform="translate(-59 103)"/><ellipse class="a" cx="9" cy="8.5" rx="9" ry="8.5" transform="translate(-197 138)"/><circle class="a" cx="8.5" cy="8.5" r="8.5" transform="translate(-162 138)"/><ellipse class="a" cx="8" cy="8.5" rx="8" ry="8.5" transform="translate(-127 138)"/><g class="b" transform="translate(-94 138)"><circle class="c" cx="8.5" cy="8.5" r="8.5"/><circle class="d" cx="8.5" cy="8.5" r="8"/></g><g class="b" transform="translate(-59 138)"><circle class="c" cx="8.5" cy="8.5" r="8.5"/><circle class="d" cx="8.5" cy="8.5" r="8"/></g><ellipse class="a" cx="9" cy="8" rx="9" ry="8" transform="translate(-197 173)"/><ellipse class="a" cx="8.5" cy="8" rx="8.5" ry="8" transform="translate(-162 173)"/><circle class="a" cx="8" cy="8" r="8" transform="translate(-35 265)"/><g class="b" transform="translate(-94 173)"><circle class="c" cx="8.5" cy="8.5" r="8.5"/><circle class="d" cx="8.5" cy="8.5" r="8"/></g><g class="b" transform="translate(-59 173)"><circle class="c" cx="8.5" cy="8.5" r="8.5"/><circle class="d" cx="8.5" cy="8.5" r="8"/></g><g class="b" transform="translate(-197 206)"><circle class="c" cx="8.5" cy="8.5" r="8.5"/><circle class="d" cx="8.5" cy="8.5" r="8"/></g><g class="b" transform="translate(-162 206)"><circle class="c" cx="8.5" cy="8.5" r="8.5"/><circle class="d" cx="8.5" cy="8.5" r="8"/></g><g class="b" transform="translate(-127 206)"><circle class="c" cx="8.5" cy="8.5" r="8.5"/><circle class="d" cx="8.5" cy="8.5" r="8"/></g><g class="b" transform="translate(-94 206)"><circle class="c" cx="8.5" cy="8.5" r="8.5"/><circle class="d" cx="8.5" cy="8.5" r="8"/></g><g class="b" transform="translate(-59 206)"><circle class="c" cx="8.5" cy="8.5" r="8.5"/><circle class="d" cx="8.5" cy="8.5" r="8"/></g><g class="b" transform="translate(-197 241)"><circle class="c" cx="8.5" cy="8.5" r="8.5"/><circle class="d" cx="8.5" cy="8.5" r="8"/></g><g class="b" transform="translate(-162 241)"><circle class="c" cx="8.5" cy="8.5" r="8.5"/><circle class="d" cx="8.5" cy="8.5" r="8"/></g><g class="b" transform="translate(-127 241)"><circle class="c" cx="8.5" cy="8.5" r="8.5"/><circle class="d" cx="8.5" cy="8.5" r="8"/></g><g class="b" transform="translate(-94 241)"><circle class="c" cx="8.5" cy="8.5" r="8.5"/><circle class="d" cx="8.5" cy="8.5" r="8"/></g><g class="b" transform="translate(-59 241)"><circle class="c" cx="31.5" cy="31.5" r="31.5"/><circle class="d" cx="31.5" cy="31.5" r="31"/></g></g></svg>