<svg xmlns="http://www.w3.org/2000/svg" xmlns:xlink="http://www.w3.org/1999/xlink" width="635" height="583" viewBox="0 0 635 583">
  <defs>
    <clipPath id="clip-path">
      <rect id="Rectangle_2173" data-name="Rectangle 2173" width="635" height="583" transform="translate(1158 1461)" fill="none"/>
    </clipPath>
    <clipPath id="clip-path-2">
      <rect id="Rectangle_2172" data-name="Rectangle 2172" width="414" height="414" transform="translate(823 6161)" fill="#fff"/>
    </clipPath>
    <filter id="Path_11507" x="276.048" y="-75.048" width="556.38" height="556.38" filterUnits="userSpaceOnUse">
      <feOffset dy="3" input="SourceAlpha"/>
      <feGaussianBlur stdDeviation="49.5" result="blur"/>
      <feFlood flood-color="#00ffcb" flood-opacity="0.161"/>
      <feComposite operator="in" in2="blur"/>
      <feComposite in="SourceGraphic"/>
    </filter>
    <filter id="Path_11508" x="-212.436" y="124.862" width="563.586" height="614.584" filterUnits="userSpaceOnUse">
      <feOffset dy="3.013" input="SourceAlpha"/>
      <feGaussianBlur stdDeviation="49.71" result="blur-2"/>
      <feFlood flood-color="#0952e2" flood-opacity="0.161"/>
      <feComposite operator="in" in2="blur-2"/>
      <feComposite in="SourceGraphic"/>
    </filter>
  </defs>
  <g id="why" transform="translate(-1158 -1461)" clip-path="url(#clip-path)">
    <g id="why-2" data-name="why" transform="translate(431.087 -4605)">
      <g id="Group_9840" data-name="Group 9840" transform="translate(26 -8)" clip-path="url(#clip-path-2)">
        <g id="Group_9839" data-name="Group 9839" transform="translate(856.234 6189.012)">
          <g id="Group_9838" data-name="Group 9838">
            <g id="Group_9837" data-name="Group 9837" transform="translate(-12.234 -12.012)">
              <path id="Path_11463" data-name="Path 11463" d="M326.061,297.291a36.79,36.79,0,1,1,36.791,36.793,36.789,36.789,0,0,1-36.791-36.793Z" transform="translate(-27.778 -12.135)" fill="#0952e2" fill-rule="evenodd"/>
              <path id="Path_11464" data-name="Path 11464" d="M60.3,194.516A109.822,109.822,0,1,1,170.122,304.338,109.822,109.822,0,0,1,60.3,194.516Z" transform="translate(-6.288 -8.547)" fill="#bcd3ff" fill-rule="evenodd"/>
              <path id="Path_11465" data-name="Path 11465" d="M68.329,246.707c3.09-2.853,13.933-12.8,16.177-13.82s28.27,28.019,25.7,30.1-16.174,14.6-21.291,17.789C78.7,269.653,71.59,256.879,68.329,246.707Z" transform="translate(-7.032 -22.267)" fill="#fff" fill-rule="evenodd"/>
              <path id="Path_11466" data-name="Path 11466" d="M67.183,243.955c3.09-2.853,13.55-12.5,15.8-13.515s28.461,30.168,25.89,32.244-16.214,15.394-20.246,17.947" transform="translate(-6.926 -22.041)" fill="none" stroke="#1b3c87" stroke-linecap="round" stroke-linejoin="round" stroke-width="1.544"/>
              <path id="Path_11467" data-name="Path 11467" d="M136.976,211.008c14.913,22.681-21.712,51.146-27.319,52.781s-29.745-31.435-28-35.79S118.967,183.618,136.976,211.008Z" transform="translate(-8.258 -19.363)" fill="#46dbc9" fill-rule="evenodd"/>
              <path id="Path_11468" data-name="Path 11468" d="M98.552,206.457c11.841-8.214,26.578-12.954,36.251,1.758C149.717,230.9,113.091,259.361,107.485,261s-29.745-31.439-28-35.79a30.093,30.093,0,0,1,4.447-5.792" transform="translate(-8.057 -19.104)" fill="none" stroke="#1b3c87" stroke-linecap="round" stroke-linejoin="round" stroke-width="1.544"/>
              <path id="Path_11469" data-name="Path 11469" d="M169.469,190.778c-16.8-.1-33.325,3.131-41.472,9.46-13.229,10.279-22.027,73.821-18.233,92.73a109.871,109.871,0,0,0,117.676,7.666c2.775-23.611-4.065-91.107-14.883-99.318C203.334,194.314,186.267,190.879,169.469,190.778Z" transform="translate(-10.786 -18.37)" fill="#46dbc9" fill-rule="evenodd"/>
              <path id="Path_11470" data-name="Path 11470" d="M113.466,227.069c3.183-13.972,7.444-25.625,12.493-29.546,16.292-12.657,66.112-12.927,84.56,1.077,11.476,8.714,18.985,84.291,14.273,103.141" transform="translate(-11.211 -18.119)" fill="none" stroke="#1b3c87" stroke-linecap="round" stroke-linejoin="round" stroke-width="1.544"/>
              <path id="Path_11471" data-name="Path 11471" d="M107.137,298.809c-.762-4.811-.809-12.613-.235-21.725" transform="translate(-10.568 -26.362)" fill="none" stroke="#1b3c87" stroke-linecap="round" stroke-linejoin="round" stroke-width="1.544"/>
              <path id="Path_11472" data-name="Path 11472" d="M22.3.776,72.478,19.719,50.945,76.742.776,57.8Z" transform="translate(-0.776 -0.776)" fill="none" stroke="#00ffcb" stroke-linecap="round" stroke-linejoin="round" stroke-width="1.544"/>
              <path id="Path_11473" data-name="Path 11473" d="M272.466,323.171l8.952,81.412,57.632-98.2Z" transform="translate(-15.03 -23.05)" fill="none" stroke="#fb0" stroke-linecap="round" stroke-linejoin="round" stroke-width="1.544"/>
              <path id="Path_11474" data-name="Path 11474" d="M22.845,86.612a29.478,29.478,0,1,1,29.478,29.479A29.478,29.478,0,0,1,22.845,86.612Z" transform="translate(-2.82 -5.995)" fill="none" stroke="#fff" stroke-linecap="round" stroke-linejoin="round" stroke-width="1.544"/>
              <path id="Path_11475" data-name="Path 11475" d="M251.368,298.41c-2.34-2.34-18.473-24.344-20.291-26.415s32.674-30.673,34.8-28.172,10.626,14.4,14.592,20.947C277.278,270.513,259.657,292.753,251.368,298.41Z" transform="translate(-22.096 -23.268)" fill="#fff" fill-rule="evenodd"/>
              <path id="Path_11476" data-name="Path 11476" d="M252.132,296.243c-1.957-2.668-19.442-26.756-21.26-28.828s32.675-30.673,34.8-28.172,12.281,16.4,15.78,23.209" transform="translate(-22.077 -22.844)" fill="none" stroke="#1b3c87" stroke-linecap="round" stroke-linejoin="round" stroke-width="1.544"/>
              <path id="Path_11477" data-name="Path 11477" d="M211.6,198.447c17.417-11.951,59.456,29.1,59.351,41.33s-37.482,34.468-43.708,31.257C220.376,267.5,184.87,216.775,211.6,198.447Z" transform="translate(-19.388 -18.881)" fill="#46dbc9" fill-rule="evenodd"/>
              <path id="Path_11478" data-name="Path 11478" d="M200.933,224.931c-2.348-11.377-.841-22.29,8.855-28.94,17.421-11.948,59.456,29.1,59.35,41.336s-37.481,34.468-43.708,31.257c-1.992-1.028-6.4-6.032-11-13.067" transform="translate(-19.221 -18.654)" fill="none" stroke="#1b3c87" stroke-linecap="round" stroke-linejoin="round" stroke-width="1.544"/>
              <path id="Path_11479" data-name="Path 11479" d="M60.3,194.516A109.822,109.822,0,1,1,170.122,304.338,109.822,109.822,0,0,1,60.3,194.516Z" transform="translate(-6.288 -8.547)" fill="none" stroke="#1b3c87" stroke-linecap="round" stroke-linejoin="round" stroke-width="1.544"/>
              <path id="Path_11480" data-name="Path 11480" d="M285.364,225.506c.108-3.155,6.257-4.435,13.734-2.859s13.451,5.41,13.344,8.565-6.257,4.434-13.734,2.859S285.253,228.661,285.364,225.506Z" transform="translate(-27.129 -21.259)" fill="#fff" fill-rule="evenodd"/>
              <path id="Path_11481" data-name="Path 11481" d="M287.807,212.205c.108-3.155,6.257-4.435,13.734-2.859s13.452,5.41,13.344,8.565-6.257,4.435-13.734,2.859S287.7,215.36,287.807,212.205Z" transform="translate(-27.355 -20.027)" fill="#fff" fill-rule="evenodd"/>
              <path id="Path_11482" data-name="Path 11482" d="M287.492,198.459c.108-3.155,6.257-4.434,13.734-2.859s13.451,5.41,13.343,8.565-6.257,4.435-13.734,2.859S287.384,201.613,287.492,198.459Z" transform="translate(-27.326 -18.755)" fill="#fff" fill-rule="evenodd"/>
              <path id="Path_11483" data-name="Path 11483" d="M290.879,193.747a25.085,25.085,0,0,1,9.343.4c7.477,1.576,13.451,5.41,13.343,8.565-.073,2.13-2.9,3.406-7.032,3.522" transform="translate(-27.64 -18.62)" fill="none" stroke="#1b3c87" stroke-linecap="round" stroke-linejoin="round" stroke-width="1.544"/>
              <path id="Path_11484" data-name="Path 11484" d="M288.848,208.113c2.464-1.067,6.7-1.226,11.472-.219,7.477,1.576,13.451,5.41,13.343,8.565-.078,2.3-3.366,3.6-8.044,3.53" transform="translate(-27.452 -19.893)" fill="none" stroke="#1b3c87" stroke-linecap="round" stroke-linejoin="round" stroke-width="1.544"/>
              <path id="Path_11485" data-name="Path 11485" d="M290.54,220.584a27.639,27.639,0,0,1,7.717.611c7.477,1.576,13.451,5.41,13.343,8.565-.067,1.971-2.495,3.209-6.131,3.479" transform="translate(-27.608 -21.125)" fill="none" stroke="#1b3c87" stroke-linecap="round" stroke-linejoin="round" stroke-width="1.544"/>
              <path id="Path_11486" data-name="Path 11486" d="M44.59,203.505c.108-3.155,6.257-4.434,13.734-2.859s13.451,5.41,13.343,8.565-6.257,4.434-13.734,2.859S44.482,206.66,44.59,203.505Z" transform="translate(-4.833 -19.222)" fill="#fff" fill-rule="evenodd"/>
              <path id="Path_11487" data-name="Path 11487" d="M47.037,190.2c.108-3.155,6.257-4.434,13.734-2.859s13.451,5.41,13.343,8.567-6.257,4.434-13.734,2.859S46.929,193.36,47.037,190.2Z" transform="translate(-5.06 -17.99)" fill="#fff" fill-rule="evenodd"/>
              <path id="Path_11488" data-name="Path 11488" d="M46.721,176.458c.108-3.155,6.257-4.434,13.734-2.859s13.451,5.41,13.343,8.565-6.257,4.434-13.734,2.859S46.614,179.611,46.721,176.458Z" transform="translate(-5.031 -16.717)" fill="#fff" fill-rule="evenodd"/>
              <path id="Path_11489" data-name="Path 11489" d="M48.055,179.261c-2.3-1.519-3.689-3.216-3.637-4.751.108-3.155,6.257-4.434,13.734-2.859a30.41,30.41,0,0,1,8.732,3.209" transform="translate(-4.817 -16.537)" fill="none" stroke="#1b3c87" stroke-linecap="round" stroke-linejoin="round" stroke-width="1.544"/>
              <path id="Path_11490" data-name="Path 11490" d="M51.25,194.592c-3.965-1.836-6.588-4.236-6.516-6.336.108-3.155,6.257-4.434,13.734-2.859a30.942,30.942,0,0,1,8.232,2.934" transform="translate(-4.847 -17.81)" fill="none" stroke="#1b3c87" stroke-linecap="round" stroke-linejoin="round" stroke-width="1.544"/>
              <path id="Path_11491" data-name="Path 11491" d="M53.1,209.488c-6.25-1.821-10.912-5.142-10.816-7.932.108-3.155,6.257-4.435,13.734-2.859a27.326,27.326,0,0,1,10.661,4.5" transform="translate(-4.62 -19.041)" fill="none" stroke="#1b3c87" stroke-linecap="round" stroke-linejoin="round" stroke-width="1.544"/>
              <path id="Path_11492" data-name="Path 11492" d="M191.49,164.106c-.712,4.05-3.992,20.357-1.478,38.034-2.9,2.192-19.81,3.775-24.461,0,.164-7.169.328-21.507-.328-25.174S192.2,160.056,191.49,164.106Z" transform="translate(-16.003 -15.83)" fill="#fff" fill-rule="evenodd"/>
              <path id="Path_11493" data-name="Path 11493" d="M163.458,199.548c.164-7.169.328-21.507-.329-25.174s26.979-16.908,26.268-12.86-3.992,20.357-1.478,38.034c-1.313.99-5.5,1.857-10.113,2.16" transform="translate(-15.809 -15.59)" fill="none" stroke="#1b3c87" stroke-linecap="round" stroke-linejoin="round" stroke-width="1.544"/>
              <path id="Path_11494" data-name="Path 11494" d="M133.3,134.912c1.609-19.743,16.426-34.668,33.094-33.336s28.875,18.415,27.265,38.158-16.426,34.671-33.094,33.34S131.69,154.655,133.3,134.912Z" transform="translate(-13.035 -10.103)" fill="#fff" fill-rule="evenodd"/>
              <path id="Path_11495" data-name="Path 11495" d="M177.158,172.307a27.017,27.017,0,0,1-17.474,4.827,27.667,27.667,0,0,1-19.439-10.787" transform="translate(-13.691 -16.108)" fill="none" stroke="#1b3c87" stroke-linecap="round" stroke-linejoin="round" stroke-width="1.544"/>
              <path id="Path_11496" data-name="Path 11496" d="M132.954,147.284a41.439,41.439,0,0,1-1.349-14.512c1.609-19.743,16.426-34.668,33.1-33.336s28.875,18.415,27.265,38.158a41.145,41.145,0,0,1-4.742,16.22" transform="translate(-12.878 -9.905)" fill="none" stroke="#1b3c87" stroke-linecap="round" stroke-linejoin="round" stroke-width="1.544"/>
              <path id="Path_11497" data-name="Path 11497" d="M165.6,130c.23-2.134,1.2-3.779,2.166-3.675s1.562,1.919,1.331,4.052-1.2,3.779-2.166,3.674S165.371,132.134,165.6,130Z" transform="translate(-16.035 -12.402)" fill="#1b3c87" fill-rule="evenodd"/>
              <path id="Path_11498" data-name="Path 11498" d="M150.416,132.346a17.464,17.464,0,0,1-5.426,9.08" transform="translate(-14.131 -12.96)" fill="none" stroke="#1b3c87" stroke-linecap="round" stroke-linejoin="round" stroke-width="1.544"/>
              <path id="Path_11499" data-name="Path 11499" d="M157.8,154.641a3.509,3.509,0,1,1,3.509,3.509A3.509,3.509,0,0,1,157.8,154.641Z" transform="translate(-15.316 -14.699)" fill="none" stroke="#1b3c87" stroke-linecap="round" stroke-linejoin="round" stroke-width="1.544"/>
              <path id="Path_11500" data-name="Path 11500" d="M184.916,137.912c-2.119-.151-8.2-8.829-1.962-14.794-3.061-2.982-21.07-16.462-42.707-8.1-2.811-2.859-10.484-14.353-3.861-19.308s9.389,1.037,10.247,3.419c-2-6.289-.874-23.2,15.968-23.391s34.951,49.024,34.219,57.855S196.053,143.613,184.916,137.912Z" transform="translate(-13.091 -7.717)" fill="#fb5d64" fill-rule="evenodd"/>
              <path id="Path_11501" data-name="Path 11501" d="M185.923,100.955c6.372,13.208,10.576,27.338,10.216,31.685-.733,8.831-.769,10.024-11.906,4.322-2.118-.151-8.2-8.829-1.962-14.794-2.422-2.36-14.206-11.295-29.739-10.777" transform="translate(-14.829 -10.053)" fill="none" stroke="#1b3c87" stroke-linecap="round" stroke-linejoin="round" stroke-width="1.544"/>
              <path id="Path_11502" data-name="Path 11502" d="M137.579,111.4c-2.811-2.859-10.484-14.353-3.861-19.308s9.393,1.036,10.247,3.419c-2-6.29-.874-23.2,15.968-23.392,4.227-.047,8.538,3.021,12.608,7.781" transform="translate(-12.844 -7.382)" fill="none" stroke="#1b3c87" stroke-linecap="round" stroke-linejoin="round" stroke-width="1.544"/>
              <path id="Path_11503" data-name="Path 11503" d="M184.833,148.09a7.716,7.716,0,1,1,7.716,7.716,7.716,7.716,0,0,1-7.716-7.716Z" transform="translate(-17.82 -13.703)" fill="#fff" fill-rule="evenodd"/>
              <path id="Path_11504" data-name="Path 11504" d="M188.969,139.929a7.716,7.716,0,1,1-.423,13.809" transform="translate(-18.164 -13.596)" fill="none" stroke="#1b3c87" stroke-linecap="round" stroke-linejoin="round" stroke-width="1.544"/>
            </g>
          </g>
        </g>
      </g>
      <g id="Group_9844" data-name="Group 9844" transform="translate(0.21)">
        <g id="Group_9842" data-name="Group 9842" transform="translate(28.948 -250)">
          <g id="Group_9841" data-name="Group 9841" transform="translate(1287 6344.645) rotate(-45)">
            <path id="Path_11505" data-name="Path 11505" d="M144.232-495.333,170.6-468.967" transform="translate(-144.232 495.333)" fill="none" stroke="#ee5a24" stroke-linecap="round" stroke-width="8"/>
            <path id="Path_11506" data-name="Path 11506" d="M26.367,26.367,0,0" transform="translate(26.367) rotate(90)" fill="none" stroke="#ee5a24" stroke-linecap="round" stroke-width="8"/>
          </g>
          <g transform="matrix(1, 0, 0, 1, 697.76, 6316)" filter="url(#Path_11507)">
            <path id="Path_11507-2" data-name="Path 11507" d="M859.281,2591c-42.406,138.7-121.49,44.75-155.281,155.28" transform="translate(-973.48 -2123.35) rotate(-17)" fill="none" stroke="#00ffcb" stroke-linecap="round" stroke-width="42"/>
          </g>
        </g>
        <g id="Group_9843" data-name="Group 9843" transform="translate(-0.605 180.539)">
          <g id="Ellipse_109" data-name="Ellipse 109" transform="translate(826.593 6099.461)" fill="none" stroke="#fb0" stroke-width="12">
            <circle cx="21.5" cy="21.5" r="21.5" stroke="none"/>
            <circle cx="21.5" cy="21.5" r="15.5" fill="none"/>
          </g>
          <g transform="matrix(1, 0, 0, 1, 727.31, 5885.46)" filter="url(#Path_11508)">
            <path id="Path_11508-2" data-name="Path 11508" d="M905,2678.994C877.067,2830.9,790.811,2748.2,753.624,2902.507" transform="translate(1592.61 2910.57) rotate(165)" fill="none" stroke="#0952e2" stroke-linecap="round" stroke-width="42.178"/>
          </g>
        </g>
      </g>
    </g>
  </g>
</svg>
